<?xml version="1.0" encoding="UTF-8"?>
<svg version="1.1" xmlns="http://www.w3.org/2000/svg" width="480" height="480">
<path d="M0 0 C158.4 0 316.8 0 480 0 C480 158.4 480 316.8 480 480 C321.6 480 163.2 480 0 480 C0 321.6 0 163.2 0 0 Z " fill="#CCDCC8" transform="translate(0,0)"/>
<path d="M0 0 C0.33 0 0.66 0 1 0 C1 12.87 1 25.74 1 39 C1.66 39 2.32 39 3 39 C2.83701416 39.56170898 2.67402832 40.12341797 2.50610352 40.70214844 C1.97014902 43.13553181 1.88638604 45.27622228 1.90234375 47.765625 C1.90717773 49.09980469 1.90717773 49.09980469 1.91210938 50.4609375 C1.92048828 51.38132813 1.92886719 52.30171875 1.9375 53.25 C1.94201172 54.18585938 1.94652344 55.12171875 1.95117188 56.0859375 C1.96293082 58.39069041 1.97936574 60.69531227 2 63 C3.485 62.505 3.485 62.505 5 62 C5.66 62.33 6.32 62.66 7 63 C7.33 62.01 7.66 61.02 8 60 C8.66 60.33 9.32 60.66 10 61 C10 61.99 10 62.98 10 64 C13.63 63.67 17.26 63.34 21 63 C21 63.66 21 64.32 21 65 C22.98 65 24.96 65 27 65 C27.33 65.66 27.66 66.32 28 67 C28.33 66.34 28.66 65.68 29 65 C29.66 65 30.32 65 31 65 C30.67 66.65 30.34 68.3 30 70 C30.7425 70.144375 31.485 70.28875 32.25 70.4375 C33.61125 70.7159375 33.61125 70.7159375 35 71 C35.70125 71.04125 36.4025 71.0825 37.125 71.125 C39 72 39 72 40.75 75.5625 C41.1625 76.696875 41.575 77.83125 42 79 C43.65 79 45.3 79 47 79 C47 80.32 47 81.64 47 83 C48.485 83.99 48.485 83.99 50 85 C49.67 85.33 49.34 85.66 49 86 C48.76636119 87.84891946 48.58696365 89.70488031 48.4375 91.5625 C48.31181641 93.08037109 48.31181641 93.08037109 48.18359375 94.62890625 C48.12300781 95.41136719 48.06242187 96.19382812 48 97 C48.66 97 49.32 97 50 97 C49 100 49 100 47 101 C49.67247634 103.34287418 49.67247634 103.34287418 53 104 C53.33 104.99 53.66 105.98 54 107 C55.65 106.67 57.3 106.34 59 106 C58.505 107.485 58.505 107.485 58 109 C59.65 109 61.3 109 63 109 C63.33 109.99 63.66 110.98 64 112 C65.30946028 112.71241561 66.64823454 113.37154764 68 114 C69.56508839 115.1564561 71.10617769 116.34591825 72.625 117.5625 C75.66066003 120.0196581 75.66066003 120.0196581 79 122 C79 126.95 79 131.9 79 137 C80.32 137.33 81.64 137.66 83 138 C81.35 138.66 79.7 139.32 78 140 C78.495 142.475 78.495 142.475 79 145 C79.99 145.33 80.98 145.66 82 146 C83 147.75 83 147.75 83 150 C80.5625 152.75 80.5625 152.75 78 155 C79.32 155 80.64 155 82 155 C82 155.66 82 156.32 82 157 C81.360625 157.12375 80.72125 157.2475 80.0625 157.375 C79.381875 157.58125 78.70125 157.7875 78 158 C77.67 158.66 77.34 159.32 77 160 C77.5775 159.649375 78.155 159.29875 78.75 158.9375 C81.35801776 157.85082593 82.39417629 158.06934867 85 159 C85.103125 159.639375 85.20625 160.27875 85.3125 160.9375 C85.539375 161.618125 85.76625 162.29875 86 163 C86.99 163.33 87.98 163.66 89 164 C88.67 164.66 88.34 165.32 88 166 C89.32 165.67 90.64 165.34 92 165 C91.9175 165.763125 91.835 166.52625 91.75 167.3125 C91.70721848 170.09020802 91.70721848 170.09020802 93.75 171.625 C94.4925 172.07875 95.235 172.5325 96 173 C98.25 174.375 98.25 174.375 100 176 C100.25 178.6875 100.25 178.6875 100 181 C100.66 181 101.32 181 102 181 C102 182.65 102 184.3 102 186 C104.475 185.01 104.475 185.01 107 184 C105.63016497 187.16115776 105.0109362 187.9927092 102 190 C101.26656572 193.06556598 101.26656572 193.06556598 101 196 C102.65 196 104.3 196 106 196 C106 197.32 106 198.64 106 200 C104.35 200 102.7 200 101 200 C100.67 201.32 100.34 202.64 100 204 C100.66 204.33 101.32 204.66 102 205 C102 205.66 102 206.32 102 207 C100.35 207.66 98.7 208.32 97 209 C98.74805953 214.24417859 104.39785542 216.29285613 109 219 C109 218.01 109 217.02 109 216 C109.66 216 110.32 216 111 216 C111.33 217.98 111.66 219.96 112 222 C112.598125 221.690625 113.19625 221.38125 113.8125 221.0625 C116 220 116 220 119 219 C118.34 220.65 117.68 222.3 117 224 C118.98 223.67 120.96 223.34 123 223 C123 223.66 123 224.32 123 225 C123.66 225 124.32 225 125 225 C125 225.66 125 226.32 125 227 C125.99 227 126.98 227 128 227 C128 227.66 128 228.32 128 229 C127.01 229.33 126.02 229.66 125 230 C126.1678266 233.81413002 126.1678266 233.81413002 129.125 236.3125 C130.053125 236.6528125 130.053125 236.6528125 131 237 C130.67 237.66 130.34 238.32 130 239 C131.98 239 133.96 239 136 239 C136.33 240.32 136.66 241.64 137 243 C135.68 243.33 134.36 243.66 133 244 C133.33 246.97 133.66 249.94 134 253 C135.32 253 136.64 253 138 253 C138.33 254.32 138.66 255.64 139 257 C137.35 257 135.7 257 134 257 C133.67 257.66 133.34 258.32 133 259 C135.64 259.66 138.28 260.32 141 261 C139.68 261.66 138.36 262.32 137 263 C137.33 263.66 137.66 264.32 138 265 C136.02 264.67 134.04 264.34 132 264 C132.020625 264.94875 132.04125 265.8975 132.0625 266.875 C132 270 132 270 131 272 C132.32 272.33 133.64 272.66 135 273 C135 273.99 135 274.98 135 276 C133.35 276 131.7 276 130 276 C130 276.66 130 277.32 130 278 C131.65 278.33 133.3 278.66 135 279 C135 279.33 135 279.66 135 280 C101.01 280 67.02 280 32 280 C32.66 279.34 33.32 278.68 34 278 C32.35 278 30.7 278 29 278 C28.34 276.35 27.68 274.7 27 273 C28.65 272.67 30.3 272.34 32 272 C31.01 269.69 30.02 267.38 29 265 C28.01 265.66 27.02 266.32 26 267 C25.01 267 24.02 267 23 267 C24 264 24 264 27 262 C26.67 259.03 26.34 256.06 26 253 C24.35 253.33 22.7 253.66 21 254 C21 253.34 21 252.68 21 252 C22.32 251.67 23.64 251.34 25 251 C25.05447047 249.58376784 25.09300508 248.16691809 25.125 246.75 C25.14820313 245.96109375 25.17140625 245.1721875 25.1953125 244.359375 C24.9828378 241.79268059 24.28654105 240.2083933 23 238 C23.99 238 24.98 238 26 238 C22.65526199 236.88508733 20.39936478 237.19488729 17 238 C16.34 238 15.68 238 15 238 C15.99 235.03 15.99 235.03 17 232 C15.02 232.99 15.02 232.99 13 234 C13 233.34 13 232.68 13 232 C11.68 232.33 10.36 232.66 9 233 C9.33 232.01 9.66 231.02 10 230 C10.66 229.67 11.32 229.34 12 229 C11.67 227.68 11.34 226.36 11 225 C9.68 225 8.36 225 7 225 C7.66 223.02 8.32 221.04 9 219 C7.02 219 5.04 219 3 219 C3.165 218.21625 3.33 217.4325 3.5 216.625 C4.0623707 214.11791961 4.0623707 214.11791961 4 212 C3.34 211.67 2.68 211.34 2 211 C2 210.34 2 209.68 2 209 C3.32 209 4.64 209 6 209 C6 208.34 6 207.68 6 207 C4.68 207 3.36 207 2 207 C2.33 206.01 2.66 205.02 3 204 C3.66 204 4.32 204 5 204 C4.95875 202.948125 4.9175 201.89625 4.875 200.8125 C4.99147875 197.25989827 5.47208068 195.15133359 7 192 C5.35 192 3.7 192 2 192 C2.66 190.35 3.32 188.7 4 187 C4.66 187 5.32 187 6 187 C6 186.34 6 185.68 6 185 C7.485 184.01 7.485 184.01 9 183 C8.67 180.69 8.34 178.38 8 176 C6.68 175.67 5.36 175.34 4 175 C3.505 177.97 3.505 177.97 3 181 C2.34 181 1.68 181 1 181 C1 178.36 1 175.72 1 173 C-0.32 173 -1.64 173 -3 173 C-3.33 174.32 -3.66 175.64 -4 177 C-4.66 177 -5.32 177 -6 177 C-5.979375 176.2575 -5.95875 175.515 -5.9375 174.75 C-5.99328688 172.29537721 -6.3069904 170.33890739 -7 168 C-7.474375 168.825 -7.94875 169.65 -8.4375 170.5 C-8.953125 171.325 -9.46875 172.15 -10 173 C-10.33 173 -10.66 173 -11 173 C-11.19573608 171.56359829 -11.38127816 170.12580496 -11.5625 168.6875 C-11.66691406 167.88699219 -11.77132813 167.08648437 -11.87890625 166.26171875 C-12 164 -12 164 -11 161 C-12.32 161 -13.64 161 -15 161 C-14.67 159.35 -14.34 157.7 -14 156 C-14.99 155.67 -15.98 155.34 -17 155 C-16.67 154.01 -16.34 153.02 -16 152 C-15.34 152 -14.68 152 -14 152 C-14 150.68 -14 149.36 -14 148 C-15.65 148.33 -17.3 148.66 -19 149 C-19 148.34 -19 147.68 -19 147 C-18.360625 146.7525 -17.72125 146.505 -17.0625 146.25 C-14.81258459 145.18437567 -14.81258459 145.18437567 -14.25 142.875 C-14.1675 142.25625 -14.085 141.6375 -14 141 C-14.66 141 -15.32 141 -16 141 C-15.6875 139.125 -15.6875 139.125 -15 137 C-13.515 136.01 -13.515 136.01 -12 135 C-12.66 134.67 -13.32 134.34 -14 134 C-14 133.34 -14 132.68 -14 132 C-12.68 131.67 -11.36 131.34 -10 131 C-10 130.34 -10 129.68 -10 129 C-10.66 129 -11.32 129 -12 129 C-11.67 128.01 -11.34 127.02 -11 126 C-9.68 126 -8.36 126 -7 126 C-7 125.34 -7 124.68 -7 124 C-7.66 124 -8.32 124 -9 124 C-9 123.34 -9 122.68 -9 122 C-7.02 121.505 -7.02 121.505 -5 121 C-5.33 119.68 -5.66 118.36 -6 117 C-7.98 117.99 -7.98 117.99 -10 119 C-9.67 117.35 -9.34 115.7 -9 114 C-11.475 114.495 -11.475 114.495 -14 115 C-14 113.35 -14 111.7 -14 110 C-16.64738916 108.5393715 -17.89448334 108 -21 108 C-21 107.34 -21 106.68 -21 106 C-21.66 106 -22.32 106 -23 106 C-22.835 105.401875 -22.67 104.80375 -22.5 104.1875 C-21.8885876 101.88655664 -21.8885876 101.88655664 -22 99 C-21.01 99 -20.02 99 -19 99 C-19 96.03 -19 93.06 -19 90 C-19.99 90 -20.98 90 -22 90 C-21.67 89.01 -21.34 88.02 -21 87 C-20.01 86.505 -20.01 86.505 -19 86 C-19.165 85.38125 -19.33 84.7625 -19.5 84.125 C-20 82 -20 82 -20 80 C-19.278125 80.268125 -18.55625 80.53625 -17.8125 80.8125 C-14.78862803 81.32228543 -14.78862803 81.32228543 -12.1875 78.875 C-9.7809055 76.22307478 -9.7809055 76.22307478 -9.6875 73.1875 C-9.790625 72.465625 -9.89375 71.74375 -10 71 C-9.236875 71.20625 -8.47375 71.4125 -7.6875 71.625 C-4.78114056 72.33391203 -4.78114056 72.33391203 -2 70 C-1.5818783 66.99147392 -1.5818783 66.99147392 -1.70703125 63.4609375 C-1.71669922 62.15898437 -1.72636719 60.85703125 -1.73632812 59.515625 C-1.76139612 58.13541077 -1.78679098 56.75520244 -1.8125 55.375 C-1.82754483 53.98699337 -1.84123359 52.59897133 -1.85351562 51.2109375 C-1.8889743 47.80690491 -1.93839702 44.40364378 -2 41 C-2.33 41.99 -2.66 42.98 -3 44 C-3.66 44 -4.32 44 -5 44 C-5 41.69 -5 39.38 -5 37 C-4.01 37 -3.02 37 -2 37 C-1.34 24.79 -0.68 12.58 0 0 Z " fill="#92AC81" transform="translate(287,200)"/>
<path d="M0 0 C0.99 0.66 1.98 1.32 3 2 C3.33 1.34 3.66 0.68 4 0 C8 0 8 0 9.75 1.5 C10.1625 1.995 10.575 2.49 11 3 C11.33 2.01 11.66 1.02 12 0 C12.99 0.495 12.99 0.495 14 1 C14 1.66 14 2.32 14 3 C16.94079782 4.47039891 19.97578226 5.71190726 23 7 C23 5.35 23 3.7 23 2 C24.65 2.33 26.3 2.66 28 3 C29.125 6.75 29.125 6.75 28 9 C29.98 8.67 31.96 8.34 34 8 C34.33 8.99 34.66 9.98 35 11 C35.66 11 36.32 11 37 11 C37 11.99 37 12.98 37 14 C38.32 13.67 39.64 13.34 41 13 C41.2165625 14.60875 41.2165625 14.60875 41.4375 16.25 C41.83749442 18.91662949 42.27591924 21.41399729 43 24 C43.99 24 44.98 24 46 24 C46 24.66 46 25.32 46 26 C45.34 26 44.68 26 44 26 C44 26.66 44 27.32 44 28 C45.32 28.33 46.64 28.66 48 29 C47.01 29.66 46.02 30.32 45 31 C46.32 31.33 47.64 31.66 49 32 C49 32.66 49 33.32 49 34 C46.525 34.495 46.525 34.495 44 35 C43.67 36.32 43.34 37.64 43 39 C44.32 39.33 45.64 39.66 47 40 C47 40.66 47 41.32 47 42 C46.01 42.495 46.01 42.495 45 43 C45.33 43.99 45.66 44.98 46 46 C45.01 46 44.02 46 43 46 C43.99 47.98 43.99 47.98 45 50 C42.13275314 49.42655063 41.1385485 49.1385485 39 47 C34.02177315 50.58176643 34.02177315 50.58176643 31.125 55.75 C31.08375 56.4925 31.0425 57.235 31 58 C30.67 58.66 30.34 59.32 30 60 C32.475 59.505 32.475 59.505 35 59 C34 62 34 62 32 64 C33.20728609 67.51202512 33.20728609 67.51202512 35 71 C37.06890419 72.04289755 37.06890419 72.04289755 39 72 C39 72.66 39 73.32 39 74 C38.34 74 37.68 74 37 74 C37.33 75.65 37.66 77.3 38 79 C39.32 79.33 40.64 79.66 42 80 C41.01 80.495 41.01 80.495 40 81 C40 82.32 40 83.64 40 85 C40.99 85 41.98 85 43 85 C42.67 85.99 42.34 86.98 42 88 C41.34 88 40.68 88 40 88 C40.33 89.65 40.66 91.3 41 93 C39.68 92.67 38.36 92.34 37 92 C37 92.66 37 93.32 37 94 C38.64821244 95.03013277 40.31503702 96.03114628 42 97 C42 97.33 42 97.66 42 98 C40.906875 98.103125 39.81375 98.20625 38.6875 98.3125 C35.01463192 98.99727202 34.24762314 99.27919304 32 102 C31.34 102 30.68 102 30 102 C29.34 104.64 28.68 107.28 28 110 C28.99 110 29.98 110 31 110 C31.33 111.32 31.66 112.64 32 114 C30.68 114 29.36 114 28 114 C28.33 115.32 28.66 116.64 29 118 C28.01 117.67 27.02 117.34 26 117 C26 116.34 26 115.68 26 115 C22.75150023 116.72226496 22.75150023 116.72226496 22 120 C18.9375 121.1875 18.9375 121.1875 16 122 C16 122.66 16 123.32 16 124 C17.32 124 18.64 124 20 124 C19.67 126.31 19.34 128.62 19 131 C19.99 131.33 20.98 131.66 22 132 C21.34 132.33 20.68 132.66 20 133 C20 134.98 20 136.96 20 139 C21.32 139.33 22.64 139.66 24 140 C24 140.66 24 141.32 24 142 C22.68 142 21.36 142 20 142 C20 142.99 20 143.98 20 145 C21.98 145 23.96 145 26 145 C26 145.66 26 146.32 26 147 C23.69 147.33 21.38 147.66 19 148 C19 148.66 19 149.32 19 150 C20.98 150.33 22.96 150.66 25 151 C25 151.66 25 152.32 25 153 C22.36 152.67 19.72 152.34 17 152 C17.825 152.78375 18.65 153.5675 19.5 154.375 C22 157 22 157 22 159 C19.03 158.01 19.03 158.01 16 157 C16 157.99 16 158.98 16 160 C16.99 160 17.98 160 19 160 C19 160.66 19 161.32 19 162 C18.01 162 17.02 162 16 162 C16.0721875 162.57363281 16.144375 163.14726562 16.21875 163.73828125 C17.24714307 173.15093451 17.08817066 182.54614553 17 192 C16.67 192 16.34 192 16 192 C14.94161873 185.99139451 14.88337429 180.15372439 14.9375 174.0625 C14.94201172 173.09248047 14.94652344 172.12246094 14.95117188 171.12304688 C14.9628685 168.7486324 14.97925914 166.37434979 15 164 C14.34 164 13.68 164 13 164 C12.67 166.31 12.34 168.62 12 171 C11.01 171.33 10.02 171.66 9 172 C8.26676204 174.01508358 8.26676204 174.01508358 8 176 C7.34 176 6.68 176 6 176 C6 175.34 6 174.68 6 174 C5.34 174 4.68 174 4 174 C4 175.32 4 176.64 4 178 C3.01 177.67 2.02 177.34 1 177 C1 176.34 1 175.68 1 175 C0.01 175.33 -0.98 175.66 -2 176 C-1.67 177.98 -1.34 179.96 -1 182 C-0.01 182 0.98 182 2 182 C2.66 183.32 3.32 184.64 4 186 C3.67 186.33 3.34 186.66 3 187 C3.66 187.33 4.32 187.66 5 188 C5 188.99 5 189.98 5 191 C3.35 191 1.7 191 0 191 C-0.25030977 193.41619823 -0.25030977 193.41619823 0 196 C1.485 196.99 1.485 196.99 3 198 C3 198.66 3 199.32 3 200 C1.35 199.67 -0.3 199.34 -2 199 C-1.67 199.66 -1.34 200.32 -1 201 C-0.01 201.33 0.98 201.66 2 202 C2 202.66 2 203.32 2 204 C0.35 204 -1.3 204 -3 204 C-4.02703748 209.55493924 -4.02703748 209.55493924 -3 215 C-4.98 214.01 -4.98 214.01 -7 213 C-5.68 214.65 -4.36 216.3 -3 218 C-5.31 217.67 -7.62 217.34 -10 217 C-10 217.99 -10 218.98 -10 220 C-42.34 220 -74.68 220 -108 220 C-107.505 219.01 -107.505 219.01 -107 218 C-108.32 217.67 -109.64 217.34 -111 217 C-110.67 216.01 -110.34 215.02 -110 214 C-108.68 214 -107.36 214 -106 214 C-106.33 212.35 -106.66 210.7 -107 209 C-108.98 208.67 -110.96 208.34 -113 208 C-113 207.34 -113 206.68 -113 206 C-111.35 205.67 -109.7 205.34 -108 205 C-108 204.34 -108 203.68 -108 203 C-109.65 203 -111.3 203 -113 203 C-113 201.35 -113 199.7 -113 198 C-112.01 197.67 -111.02 197.34 -110 197 C-110.99 196.01 -111.98 195.02 -113 194 C-111.35 194 -109.7 194 -108 194 C-108 193.34 -108 192.68 -108 192 C-109.98 192 -111.96 192 -114 192 C-114 191.34 -114 190.68 -114 190 C-113.01 189.67 -112.02 189.34 -111 189 C-111.33 188.01 -111.66 187.02 -112 186 C-110.68 186.33 -109.36 186.66 -108 187 C-107.66226563 186.38511719 -107.32453125 185.77023437 -106.9765625 185.13671875 C-106.53054687 184.32847656 -106.08453125 183.52023437 -105.625 182.6875 C-104.96371094 181.48673828 -104.96371094 181.48673828 -104.2890625 180.26171875 C-103.26486665 178.46472057 -102.14732862 176.72099292 -101 175 C-102.65 174.34 -104.3 173.68 -106 173 C-105.34 171.35 -104.68 169.7 -104 168 C-103.34 168 -102.68 168 -102 168 C-102 167.34 -102 166.68 -102 166 C-99.13275314 166.57344937 -98.1385485 166.8614515 -96 169 C-94.65555841 168.09970429 -93.32468562 167.17911978 -92 166.25 C-91.2575 165.73953125 -90.515 165.2290625 -89.75 164.703125 C-89.1725 164.14109375 -88.595 163.5790625 -88 163 C-88 161.68 -88 160.36 -88 159 C-88 158.34 -88 157.68 -88 157 C-86.68 157.66 -85.36 158.32 -84 159 C-84.4640625 158.071875 -84.4640625 158.071875 -84.9375 157.125 C-85.625 155.75 -86.3125 154.375 -87 153 C-85.68 153 -84.36 153 -83 153 C-83 152.34 -83 151.68 -83 151 C-82.01 151 -81.02 151 -80 151 C-79.67 152.32 -79.34 153.64 -79 155 C-78.34 154.67 -77.68 154.34 -77 154 C-77 152.35 -77 150.7 -77 149 C-76.01 149.33 -75.02 149.66 -74 150 C-73.3125 152.0625 -73.3125 152.0625 -73 154 C-72.01 153.67 -71.02 153.34 -70 153 C-70.495 150.525 -70.495 150.525 -71 148 C-73.64 148 -76.28 148 -79 148 C-78.01 146.02 -77.02 144.04 -76 142 C-77.65 142.33 -79.3 142.66 -81 143 C-80.814375 142.401875 -80.62875 141.80375 -80.4375 141.1875 C-79.77906313 138.83591238 -79.77906313 138.83591238 -81 136 C-79.68 136 -78.36 136 -77 136 C-77 132.7 -77 129.4 -77 126 C-77.99 125.505 -77.99 125.505 -79 125 C-78.505 123.515 -78.505 123.515 -78 122 C-77.01 122 -76.02 122 -75 122 C-75.66 120.35 -76.32 118.7 -77 117 C-76.01 116.67 -75.02 116.34 -74 116 C-74.33 115.01 -74.66 114.02 -75 113 C-73.68 113.33 -72.36 113.66 -71 114 C-71.33 112.68 -71.66 111.36 -72 110 C-70.35 110.66 -68.7 111.32 -67 112 C-67.7734375 110.8553125 -67.7734375 110.8553125 -68.5625 109.6875 C-69.036875 108.800625 -69.51125 107.91375 -70 107 C-69.505 105.515 -69.505 105.515 -69 104 C-67.5 105.375 -67.5 105.375 -66 107 C-66 107.66 -66 108.32 -66 109 C-65.54109375 108.566875 -65.0821875 108.13375 -64.609375 107.6875 C-63.99578125 107.130625 -63.3821875 106.57375 -62.75 106 C-62.14671875 105.443125 -61.5434375 104.88625 -60.921875 104.3125 C-59 103 -59 103 -55 103 C-55.33 101.35 -55.66 99.7 -56 98 C-55.01 98.66 -54.02 99.32 -53 100 C-52.67 98.35 -52.34 96.7 -52 95 C-53.65 95 -55.3 95 -57 95 C-56.01 93.35 -55.02 91.7 -54 90 C-55.32 90 -56.64 90 -58 90 C-57.505 88.515 -57.505 88.515 -57 87 C-56.34 87 -55.68 87 -55 87 C-55 86.34 -55 85.68 -55 85 C-56.32 85 -57.64 85 -59 85 C-59 84.34 -59 83.68 -59 83 C-57.68 83 -56.36 83 -55 83 C-54.855625 82.0925 -54.71125 81.185 -54.5625 80.25 C-54.13590527 77.78523044 -53.64925779 75.41152893 -53 73 C-53.99 72.34 -54.98 71.68 -56 71 C-56 70.34 -56 69.68 -56 69 C-55.34 68.67 -54.68 68.34 -54 68 C-54.33 66.35 -54.66 64.7 -55 63 C-54.34 63 -53.68 63 -53 63 C-53 61.68 -53 60.36 -53 59 C-50 60 -50 60 -48.8125 62.0625 C-48.4103125 63.0215625 -48.4103125 63.0215625 -48 64 C-40.4462188 59.11148844 -40.4462188 59.11148844 -36.375 51.5 C-36.189375 49.7675 -36.189375 49.7675 -36 48 C-34.68 48.66 -33.36 49.32 -32 50 C-32 50.66 -32 51.32 -32 52 C-31.34 52 -30.68 52 -30 52 C-30.061875 51.071875 -30.12375 50.14375 -30.1875 49.1875 C-30 46 -30 46 -28.5 44.125 C-27.7575 43.568125 -27.7575 43.568125 -27 43 C-26.505 44.98 -26.505 44.98 -26 47 C-25.01 44.03 -25.01 44.03 -24 41 C-24.66 41 -25.32 41 -26 41 C-25.34 39.35 -24.68 37.7 -24 36 C-25.485 35.505 -25.485 35.505 -27 35 C-26.505 34.01 -26.505 34.01 -26 33 C-25.01 33 -24.02 33 -23 33 C-23 32.34 -23 31.68 -23 31 C-24.485 30.505 -24.485 30.505 -26 30 C-25.67 29.34 -25.34 28.68 -25 28 C-24.01 28 -23.02 28 -22 28 C-21.814375 27.1028125 -21.814375 27.1028125 -21.625 26.1875 C-21 24 -21 24 -19 21 C-19.31506627 17.85778033 -19.31506627 17.85778033 -20 15 C-18.35 15.66 -16.7 16.32 -15 17 C-15.495 14.525 -15.495 14.525 -16 12 C-15.01 12.33 -14.02 12.66 -13 13 C-12.67 11.35 -12.34 9.7 -12 8 C-11.01 8.495 -11.01 8.495 -10 9 C-10 9.66 -10 10.32 -10 11 C-7.95163118 10.43637698 -7.95163118 10.43637698 -6 9 C-5.18415432 5.94091587 -5.18415432 5.94091587 -5 3 C-4.01 3.33 -3.02 3.66 -2 4 C-1.34 2.68 -0.68 1.36 0 0 Z M-52 66 C-51 68 -51 68 -51 68 Z " fill="#92AC81" transform="translate(175,260)"/>
<path d="M0 0 C2.31 0 4.62 0 7 0 C8.9375 2.5 8.9375 2.5 10 5 C10.33 4.01 10.66 3.02 11 2 C13.9719385 3.12451727 16.33440687 4.22293791 19 6 C21.62531524 6.16713569 21.62531524 6.16713569 24 6 C23.48594831 10.96916636 22.76615118 15.29026351 21 20 C22.32 20.66 23.64 21.32 25 22 C24.13329546 28.35583327 23.06965872 34.67551301 22 41 C24.475 40.505 24.475 40.505 27 40 C28.485 34.06 28.485 34.06 30 28 C30.99 28 31.98 28 33 28 C37.29748435 36.32637593 38.66093189 45.04559453 36.45703125 54.2734375 C35.75 56.0625 35.75 56.0625 34 59 C33.443125 59.99 32.88625 60.98 32.3125 62 C30 64 30 64 27.96484375 64.08203125 C25.75 63.8125 25.75 63.8125 22 63 C22 61.02 22 59.04 22 57 C20.68 57 19.36 57 18 57 C17.773125 57.78375 17.54625 58.5675 17.3125 59.375 C16 62 16 62 13.375 63.3125 C12.59125 63.539375 11.8075 63.76625 11 64 C11 66.31 11 68.62 11 71 C15.7897321 71.23428313 15.7897321 71.23428313 20 69 C20.37125 69.515625 20.7425 70.03125 21.125 70.5625 C23.02545011 72.37019311 23.02545011 72.37019311 26.1171875 71.58984375 C27.06851563 71.39519531 28.01984375 71.20054687 29 71 C34.59041132 89.76780943 34.59041132 89.76780943 30.62109375 97.78515625 C29 100 29 100 26.6875 101 C24 101 24 101 21.37109375 99.51953125 C17.17533808 97.62828101 13.90799564 97.5891277 9.375 97.6875 C8.62476563 97.68427734 7.87453125 97.68105469 7.1015625 97.67773438 C3.18884422 97.71589032 0.37194036 98.00784213 -3 100 C-6.5625 100.375 -6.5625 100.375 -10 100 C-12.157677 97.85228918 -12.92834107 96.46016275 -13.3984375 93.44140625 C-13.34314431 86.64955971 -12.43190636 80.56787628 -10.65625 74.0078125 C-9.96523988 70.84068278 -9.68826398 68.2286945 -10 65 C-11.18064971 63.07385728 -11.18064971 63.07385728 -12.875 61.5625 C-18.17664261 55.81071792 -18.39566951 49.55516248 -18.25390625 42.00390625 C-17.69521366 35.39414312 -15.75404279 29.75404279 -11 25 C-5.7027027 21 -5.7027027 21 -2 21 C-1.67 42.45 -1.34 63.9 -1 86 C-0.67 73.13 -0.34 60.26 0 47 C0.99 47 1.98 47 3 47 C3.33 46.34 3.66 45.68 4 45 C2.68 45 1.36 45 0 45 C0 30.15 0 15.3 0 0 Z " fill="#FEFDFD" transform="translate(234,167)"/>
<path d="M0 0 C0.84328857 -0.00547852 1.68657715 -0.01095703 2.55541992 -0.01660156 C7.94867302 0.04479969 12.63089262 0.81240375 17.8125 2.3125 C17.8125 2.9725 17.8125 3.6325 17.8125 4.3125 C18.54597656 4.57804688 19.27945313 4.84359375 20.03515625 5.1171875 C30.05820707 9.43090557 36.37252611 17.60651436 40.5625 27.375 C43.06828009 33.78045071 45.15341059 39.32383289 44.8125 46.3125 C44.13703125 45.89097656 43.4615625 45.46945313 42.765625 45.03515625 C41.87359375 44.48730469 40.9815625 43.93945312 40.0625 43.375 C39.18078125 42.82972656 38.2990625 42.28445312 37.390625 41.72265625 C32.4110945 38.99900396 27.40278419 38.71931872 21.8125 39.3125 C20.27704275 39.9006582 18.75531406 40.5259952 17.25 41.1875 C15.01953125 42.04296875 15.01953125 42.04296875 12.8125 42.3125 C10.34720279 41.06049042 8.55806773 39.61238103 6.5390625 37.73046875 C4.79847306 35.99516757 4.79847306 35.99516757 1.8125 36.3125 C1.57539307 37.33722412 1.33828613 38.36194824 1.09399414 39.41772461 C0.21613227 43.20731517 -0.66647136 46.99578791 -1.55053711 50.78393555 C-1.93302474 52.42588523 -2.31421321 54.06813809 -2.6940918 55.71069336 C-3.23928735 58.06704703 -3.78909472 60.42228278 -4.33984375 62.77734375 C-4.5096727 63.51589096 -4.67950165 64.25443817 -4.85447693 65.0153656 C-6.07362829 70.19862829 -6.07362829 70.19862829 -7.1875 71.3125 C-8.85367115 71.35313832 -10.52138095 71.355221 -12.1875 71.3125 C-11.69623071 64.94690427 -11.19094253 58.61985307 -10.1875 52.3125 C-11.5075 51.6525 -12.8275 50.9925 -14.1875 50.3125 C-13.9709375 49.70921875 -13.754375 49.1059375 -13.53125 48.484375 C-13.2528125 47.68515625 -12.974375 46.8859375 -12.6875 46.0625 C-12.4090625 45.27359375 -12.130625 44.4846875 -11.84375 43.671875 C-11.00885139 41.07837262 -11.00885139 41.07837262 -11.1875 37.3125 C-11.868125 37.23 -12.54875 37.1475 -13.25 37.0625 C-17.0621907 36.08917472 -19.82820329 34.35442545 -23.1875 32.3125 C-23.5175 34.9525 -23.8475 37.5925 -24.1875 40.3125 C-24.5175 40.3125 -24.8475 40.3125 -25.1875 40.3125 C-25.8475 37.3425 -26.5075 34.3725 -27.1875 31.3125 C-29.4975 30.9825 -31.8075 30.6525 -34.1875 30.3125 C-34.1875 45.1625 -34.1875 60.0125 -34.1875 75.3125 C-32.8675 75.3125 -31.5475 75.3125 -30.1875 75.3125 C-30.5175 76.3025 -30.8475 77.2925 -31.1875 78.3125 C-31.8475 78.3125 -32.5075 78.3125 -33.1875 78.3125 C-33.20731934 79.44268555 -33.22713867 80.57287109 -33.24755859 81.73730469 C-33.3236888 85.93446964 -33.41239479 90.13129126 -33.50488281 94.328125 C-33.54314191 96.14381121 -33.57800017 97.95957241 -33.609375 99.77539062 C-33.6550923 102.38699123 -33.71307536 104.99807688 -33.7734375 107.609375 C-33.79076431 108.82521271 -33.79076431 108.82521271 -33.80844116 110.06561279 C-33.91233265 114.04192406 -34.25263573 116.85052987 -36.1875 120.3125 C-36.21092215 111.53105234 -36.22856435 102.74961582 -36.23931217 93.96814346 C-36.24447689 89.8882561 -36.25145413 85.80839048 -36.26293945 81.72851562 C-36.35803406 47.07211963 -36.35803406 47.07211963 -35.1875 30.3125 C-38.54183109 31.26183899 -41.87996505 32.20998835 -45.1875 33.3125 C-41.74555359 20.9619864 -35.48798929 12.22629087 -24.9375 5.125 C-16.8801252 0.91118692 -8.96904033 0.04269799 0 0 Z " fill="#B2CAA2" transform="translate(268.1875,136.6875)"/>
<path d="M0 0 C0.84328857 -0.00547852 1.68657715 -0.01095703 2.55541992 -0.01660156 C7.94867302 0.04479969 12.63089262 0.81240375 17.8125 2.3125 C15.67011871 8.5611121 12.85454432 11.97056204 7 15 C-0.15644754 18.49289252 -6.69648116 19.65641381 -14.5625 19.625 C-15.36171875 19.64111328 -16.1609375 19.65722656 -16.984375 19.67382812 C-24.07186184 19.67956234 -30.24799879 18.27216748 -36.1875 14.3125 C-25.04398683 4.00836834 -15.30515326 0.07286167 0 0 Z " fill="#BBD5AA" transform="translate(268.1875,136.6875)"/>
<path d="M0 0 C4.3946122 4.07455641 5.78760445 8.5418755 6.29296875 14.390625 C6.44061554 20.99957635 6.41468564 26.26820625 3 32 C2.1646875 33.485 2.1646875 33.485 1.3125 35 C-1 37 -1 37 -3.03515625 37.08203125 C-5.25 36.8125 -5.25 36.8125 -9 36 C-9 34.02 -9 32.04 -9 30 C-10.32 29.67 -11.64 29.34 -13 29 C-13 26.36 -13 23.72 -13 21 C-13.66 21 -14.32 21 -15 21 C-15 20.01 -15 19.02 -15 18 C-14.01 18 -13.02 18 -12 18 C-11.34 15.69 -10.68 13.38 -10 11 C-9.67 11.99 -9.34 12.98 -9 14 C-7.35 13.67 -5.7 13.34 -4 13 C-3.79503906 12.14535156 -3.59007812 11.29070312 -3.37890625 10.41015625 C-3.10949219 9.30542969 -2.84007812 8.20070312 -2.5625 7.0625 C-2.29566406 5.96035156 -2.02882813 4.85820312 -1.75390625 3.72265625 C-1 1 -1 1 0 0 Z " fill="#FBDADA" transform="translate(265,194)"/>
<path d="M0 0 C-1.53762396 3.30923418 -2.71722423 4.79879261 -5.875 6.6875 C-6.89207031 7.31205078 -6.89207031 7.31205078 -7.9296875 7.94921875 C-12.91103686 10.47748852 -17.97740305 10.18336043 -23.4375 10.1875 C-24.28376953 10.19974609 -25.13003906 10.21199219 -26.00195312 10.22460938 C-30.45046872 10.23506008 -33.95733487 10.10019359 -38 8 C-27.03185813 -1.4752006 -13.64171225 -0.48963274 0 0 Z " fill="#A4BE93" transform="translate(278,137)"/>
<path d="M0 0 C1.65 0 3.3 0 5 0 C4.34346185 7.68149636 2.765991 15.00286842 1 22.5 C0.72671875 23.69109375 0.4534375 24.8821875 0.171875 26.109375 C-1.86774554 34.86774554 -1.86774554 34.86774554 -3 36 C-4.66617115 36.04063832 -6.33388095 36.042721 -8 36 C-7.53137247 23.41735089 -4.14852398 11.82329333 0 0 Z " fill="#5F5F5F" transform="translate(264,172)"/>
<path d="M0 0 C4.3946122 4.07455641 5.78760445 8.5418755 6.29296875 14.390625 C6.44061554 20.99957635 6.41468564 26.26820625 3 32 C2.443125 32.99 1.88625 33.98 1.3125 35 C-1 37 -1 37 -3.03515625 37.08203125 C-5.25 36.8125 -5.25 36.8125 -9 36 C-8.67 34.68 -8.34 33.36 -8 32 C-6.906875 31.7525 -5.81375 31.505 -4.6875 31.25 C-1.08379187 30.28873034 -1.08379187 30.28873034 0.9375 28.3125 C2.47820801 24.95919432 2.52025747 22.64180231 2 19 C1.154375 18.401875 0.30875 17.80375 -0.5625 17.1875 C-3 15 -3 15 -3.1796875 12.7109375 C-2.76795374 8.20842956 -2.04036485 4.0807297 0 0 Z " fill="#FEFAFB" transform="translate(265,194)"/>
<path d="M0 0 C0.33 0 0.66 0 1 0 C1 16.5 1 33 1 50 C2.32 50 3.64 50 5 50 C4.67 50.99 4.34 51.98 4 53 C3.34 53 2.68 53 2 53 C1.98018066 54.13018555 1.96036133 55.26037109 1.93994141 56.42480469 C1.8638112 60.62196964 1.77510521 64.81879126 1.68261719 69.015625 C1.64435809 70.83131121 1.60949983 72.64707241 1.578125 74.46289062 C1.5324077 77.07449123 1.47442464 79.68557688 1.4140625 82.296875 C1.40251129 83.10743347 1.39096008 83.91799194 1.37905884 84.75311279 C1.27516735 88.72942406 0.93486427 91.53802987 -1 95 C-1.0235053 86.30490602 -1.04110452 77.60982351 -1.05181217 68.91470432 C-1.05695962 64.87419551 -1.0639026 60.83370892 -1.07543945 56.79321289 C-1.12818557 37.8340839 -1.00296169 18.93930766 0 0 Z " fill="#B1C5CF" transform="translate(233,162)"/>
<path d="M0 0 C1.72824788 3.45649576 2.47611671 5.72444562 3.125 9.4375 C3.37636719 10.82775391 3.37636719 10.82775391 3.6328125 12.24609375 C3.98273843 14.87053825 4.06716891 17.35642353 4 20 C2.35 19.67 0.7 19.34 -1 19 C-0.7525 18.2575 -0.505 17.515 -0.25 16.75 C0.29657975 13.95536026 0.29657975 13.95536026 -1.4375 11.875 C-8.38693717 6.79004597 -15.59574014 6.10740964 -24 7 C-26.77199607 7.93969957 -26.77199607 7.93969957 -29 9 C-29 10.65 -29 12.3 -29 14 C-30.65 14 -32.3 14 -34 14 C-34.625 12.1875 -34.625 12.1875 -35 10 C-34.34 9.01 -33.68 8.02 -33 7 C-33.556875 6.7525 -34.11375 6.505 -34.6875 6.25 C-37.39971127 4.78393985 -39.63587365 2.97010529 -42 1 C-38.28756242 1.33749433 -36.43437833 2.38743263 -33.6875 4.75 C-31.94603357 6.16967747 -31.94603357 6.16967747 -30 7 C-27.80899302 6.61018894 -26.1050395 5.80313392 -24.09375 4.859375 C-17.55998618 2.17760627 -11.38179848 4.25611206 -5.1640625 6.83203125 C-3 8 -3 8 0 11 C0 7.37 0 3.74 0 0 Z " fill="#C5DDB5" transform="translate(312,171)"/>
<path d="M0 0 C1.65 0.33 3.3 0.66 5 1 C4.67 2.98 4.34 4.96 4 7 C5.65 7 7.3 7 9 7 C9 7.33 9 7.66 9 8 C7.35 8.33 5.7 8.66 4 9 C4 10.65 4 12.3 4 14 C5.65 14.33 7.3 14.66 9 15 C8.67 15.66 8.34 16.32 8 17 C3.25 16.25 3.25 16.25 1 14 C0.34 14.66 -0.32 15.32 -1 16 C-4.125 15.625 -4.125 15.625 -7 15 C-7.33 12.69 -7.66 10.38 -8 8 C-6.576875 7.4121875 -6.576875 7.4121875 -5.125 6.8125 C-1.65872662 4.80206144 -1.0197307 3.77300358 0 0 Z " fill="#F4B2C5" transform="translate(252,223)"/>
<path d="M0 0 C0.33 0 0.66 0 1 0 C0.98428955 1.01425049 0.9685791 2.02850098 0.95239258 3.07348633 C0.89809681 6.83610087 0.86365149 10.59868078 0.83520508 14.36157227 C0.82011757 15.99021223 0.79964494 17.61881156 0.77368164 19.24731445 C0.73729551 21.58815535 0.7202738 23.92845919 0.70703125 26.26953125 C0.69154739 26.99775589 0.67606354 27.72598053 0.66011047 28.47627258 C0.63477378 32.52061619 0.63477378 32.52061619 2.51831055 35.9831543 C3.00726807 36.31871338 3.49622559 36.65427246 4 37 C3.67 37.66 3.34 38.32 3 39 C2.01 38.67 1.02 38.34 0 38 C-0.05534912 39.1238208 -0.11069824 40.2476416 -0.16772461 41.40551758 C-0.37605628 45.62324362 -0.58738364 49.8408154 -0.79956055 54.05834961 C-0.89053182 55.87471587 -0.98071873 57.69112161 -1.07006836 59.50756836 C-2.02331808 78.86546077 -2.02331808 78.86546077 -3 88 C-3.33 88 -3.66 88 -4 88 C-4.4749722 70.46121158 -3.61645836 53.06595273 -2.5625 35.5625 C-2.49501556 34.43572845 -2.42753113 33.30895691 -2.35800171 32.14804077 C-2.16002886 28.87060931 -1.95819187 25.59344994 -1.75390625 22.31640625 C-1.69343109 21.33997162 -1.63295593 20.36353699 -1.57064819 19.35751343 C-1.1569768 12.89361137 -0.61716521 6.44758606 0 0 Z " fill="#99B6BB" transform="translate(59,215)"/>
<path d="M0 0 C0 4.95 0 9.9 0 15 C-7 15 -7 15 -9.4375 13.9375 C-11 12 -11 12 -11.6875 8.6875 C-10.84254163 4.15545055 -9.3470118 2.837668 -5.921875 -0.03125 C-4 -1 -4 -1 0 0 Z " fill="#FEDBDB" transform="translate(232,212)"/>
<path d="M0 0 C0.33 0 0.66 0 1 0 C1 12.87 1 25.74 1 39 C1.66 39 2.32 39 3 39 C2.84007568 39.56388428 2.68015137 40.12776855 2.51538086 40.70874023 C1.98240105 43.0782407 1.82665198 45.23456379 1.75390625 47.66015625 C1.72103516 48.53607422 1.68816406 49.41199219 1.65429688 50.31445312 C1.59297282 52.15026036 1.53569746 53.9862072 1.48242188 55.82226562 C1.44826172 56.69689453 1.41410156 57.57152344 1.37890625 58.47265625 C1.3538501 59.26937744 1.32879395 60.06609863 1.30297852 60.88696289 C1 63 1 63 -1 66 C-1.33 57.75 -1.66 49.5 -2 41 C-2.33 41.99 -2.66 42.98 -3 44 C-3.66 44 -4.32 44 -5 44 C-5 41.69 -5 39.38 -5 37 C-4.01 37 -3.02 37 -2 37 C-1.34 24.79 -0.68 12.58 0 0 Z " fill="#8AABAD" transform="translate(287,200)"/>
<path d="M0 0 C0.845625 0.37125 1.69125 0.7425 2.5625 1.125 C6.76791565 2.19546944 8.92940533 1.33219462 13 0 C15.9375 -0.125 15.9375 -0.125 18 0 C17.01 0.33 16.02 0.66 15 1 C14.87882812 1.61746094 14.75765625 2.23492187 14.6328125 2.87109375 C13.49925432 8.5999224 12.28630034 14.30352707 11 20 C9.02 19.01 7.04 18.02 5 17 C5.2165625 16.39671875 5.433125 15.7934375 5.65625 15.171875 C6.07390625 13.97304687 6.07390625 13.97304687 6.5 12.75 C6.7784375 11.96109375 7.056875 11.1721875 7.34375 10.359375 C8.17864861 7.76587262 8.17864861 7.76587262 8 4 C7.236875 3.896875 6.47375 3.79375 5.6875 3.6875 C2.82940576 2.95635961 1.84257115 2.23048087 0 0 Z " fill="#D4D0C1" transform="translate(249,170)"/>
<path d="M0 0 C1.16672651 2.33345302 1.04101573 3.54160754 0.9375 6.125 C0.89202648 9.32330433 1.11790324 11.4200303 2 14.5625 C3.17062094 18.74450089 3.29764409 22.93305698 3.375 27.25 C3.41367187 28.29716187 3.41367187 28.29716187 3.453125 29.36547852 C3.4664476 32.81894609 3.24439546 34.67413939 1.1484375 37.46875 C-1.44224271 39.31519844 -2.8853679 39.34607023 -6 39 C-5.1028125 38.6596875 -5.1028125 38.6596875 -4.1875 38.3125 C-1.33700285 36.60220171 -0.47528021 34.96723025 1 32 C1.88963398 25.0646813 0.9012613 18.65441455 -1 12 C-1 10.68 -1 9.36 -1 8 C-2.7015625 8.0309375 -2.7015625 8.0309375 -4.4375 8.0625 C-8 8 -8 8 -9 7 C-9.125 4.5 -9.125 4.5 -9 2 C-6.95301586 -0.04698414 -2.69588759 0.29954307 0 0 Z " fill="#F2B0C0" transform="translate(264,230)"/>
<path d="M0 0 C1.11375 0.556875 1.11375 0.556875 2.25 1.125 C1.92 1.785 1.59 2.445 1.25 3.125 C0.26 2.465 -0.73 1.805 -1.75 1.125 C-0.9765625 1.8365625 -0.9765625 1.8365625 -0.1875 2.5625 C1.98486467 6.43497616 1.00333154 9.87729924 0.25 14.125 C-1.07 14.455 -2.39 14.785 -3.75 15.125 C-3.42 16.445 -3.09 17.765 -2.75 19.125 C-3.41 19.125 -4.07 19.125 -4.75 19.125 C-4.75 13.515 -4.75 7.905 -4.75 2.125 C-5.41 1.795 -6.07 1.465 -6.75 1.125 C-4.02098495 -0.69434337 -3.21400584 -1.02263822 0 0 Z " fill="#A7BFB7" transform="translate(311.75,436.875)"/>
<path d="M0 0 C0 3.67580023 -0.76778243 4.17083266 -3.125 6.875 C-7.59479358 12.3825868 -10.25802786 18.50162647 -13 25 C-12.34 25.33 -11.68 25.66 -11 26 C-11.33 28.31 -11.66 30.62 -12 33 C-13.65 32.67 -15.3 32.34 -17 32 C-15.03137851 20.3787828 -8.89874562 7.85183437 0 0 Z " fill="#C5DDB6" transform="translate(236,145)"/>
<path d="M0 0 C0.33 0 0.66 0 1 0 C2.87443946 8.31569507 2.87443946 8.31569507 0.73046875 12.4453125 C-0.76429233 14.39865367 -2.2937979 16.22950623 -4 18 C-6.64 17.67 -9.28 17.34 -12 17 C-11.67 15.68 -11.34 14.36 -11 13 C-9.3603125 12.62875 -9.3603125 12.62875 -7.6875 12.25 C-4.08417803 11.29914084 -4.08417803 11.29914084 -2.125 9.3125 C-0.6374713 6.25480212 -0.32346577 3.36404401 0 0 Z " fill="#FDF0F1" transform="translate(268,213)"/>
<path d="M0 0 C0 0.66 0 1.32 0 2 C-0.9075 2.0825 -1.815 2.165 -2.75 2.25 C-6.52571704 3.12131932 -7.81907617 3.81249593 -10 7 C-10.58369443 10.58461856 -10.58369443 10.58461856 -10 14 C-6.55549263 16.29633824 -4.06187717 16.54016485 0 17 C0 17.33 0 17.66 0 18 C-5.67276511 18.29341888 -8.99067246 18.00559652 -14 15 C-13.35145219 10.01489367 -12.73329514 6.04756448 -9.8125 1.875 C-6.31251157 -0.45832562 -4.12530194 -0.40444137 0 0 Z " fill="#FEEDED" transform="translate(232,210)"/>
<path d="M0 0 C4.75 0.75 4.75 0.75 7 3 C7.66 2.01 8.32 1.02 9 0 C9.66 0 10.32 0 11 0 C10.34 1.98 9.68 3.96 9 6 C5.71303767 6.79953138 4.28976808 7.09658936 1 6 C0.67 4.02 0.34 2.04 0 0 Z " fill="#667D57" transform="translate(307,303)"/>
<path d="M0 0 C0.33 0 0.66 0 1 0 C1 8.58 1 17.16 1 26 C0.67 26 0.34 26 0 26 C-0.33 23.36 -0.66 20.72 -1 18 C-1.33 18.99 -1.66 19.98 -2 21 C-2.66 21 -3.32 21 -4 21 C-4 18.69 -4 16.38 -4 14 C-3.01 14 -2.02 14 -1 14 C-0.67 9.38 -0.34 4.76 0 0 Z " fill="#86A68D" transform="translate(286,223)"/>
<path d="M0 0 C2.5 0.125 2.5 0.125 3.5 1.125 C3.625 3.625 3.625 3.625 3.5 6.125 C2.5 7.125 2.5 7.125 0 7.25 C-2.5 7.125 -2.5 7.125 -3.5 6.125 C-3.625 3.625 -3.625 3.625 -3.5 1.125 C-2.5 0.125 -2.5 0.125 0 0 Z " fill="#FEFAFB" transform="translate(258.5,230.875)"/>
<path d="M0 0 C0.66 0.33 1.32 0.66 2 1 C2.4375 3.0625 2.4375 3.0625 2 6 C-0.12080183 8.57260172 -2.50627561 10.79254499 -5 13 C-8 9.25 -8 9.25 -8 7 C-5.525 7.99 -5.525 7.99 -3 9 C-3.33 7.35 -3.66 5.7 -4 4 C-3.01 4.33 -2.02 4.66 -1 5 C-0.67 3.35 -0.34 1.7 0 0 Z " fill="#7A906C" transform="translate(163,268)"/>
<path d="M0 0 C-0.33 2.64 -0.66 5.28 -1 8 C-3.4375 7.25 -3.4375 7.25 -6 6 C-6.8125 3.875 -6.8125 3.875 -7 2 C-1.125 0 -1.125 0 0 0 Z " fill="#FEF5CC" transform="translate(258,173)"/>
<path d="M0 0 C0.99 0 1.98 0 3 0 C3.66 2.31 4.32 4.62 5 7 C3.35 7.33 1.7 7.66 0 8 C-1.32 6.02 -2.64 4.04 -4 2 C-2.68 2 -1.36 2 0 2 C0 1.34 0 0.68 0 0 Z " fill="#7B906F" transform="translate(92,411)"/>
<path d="M0 0 C2 1.375 2 1.375 4 3 C4 3.66 4 4.32 4 5 C4.66 5.33 5.32 5.66 6 6 C5.01 6.66 4.02 7.32 3 8 C0 3.375 0 3.375 0 0 Z M9 0 C9.99 0.495 9.99 0.495 11 1 C10.01 1.495 10.01 1.495 9 2 C9 1.34 9 0.68 9 0 Z M-2 6 C0.475 6.99 0.475 6.99 3 8 C2.01 9.485 2.01 9.485 1 11 C-0.5 9.625 -0.5 9.625 -2 8 C-2 7.34 -2 6.68 -2 6 Z " fill="#7B926E" transform="translate(105,364)"/>
<path d="M0 0 C0.99 0 1.98 0 3 0 C3 4.95 3 9.9 3 15 C0.92428418 11.88642627 0.44947895 10.0053011 -0.1875 6.375 C-0.36667969 5.39273438 -0.54585937 4.41046875 -0.73046875 3.3984375 C-0.81941406 2.60695312 -0.90835938 1.81546875 -1 1 C-0.67 0.67 -0.34 0.34 0 0 Z " fill="#FDFBFA" transform="translate(229,168)"/>
<path d="M0 0 C0.97582031 0.00902344 1.95164062 0.01804688 2.95703125 0.02734375 C4.06111328 0.04474609 4.06111328 0.04474609 5.1875 0.0625 C0.9047612 2.9176592 -1.95708058 3.17922494 -7 3.125 C-8.63001953 3.11146484 -8.63001953 3.11146484 -10.29296875 3.09765625 C-11.12441406 3.08605469 -11.95585937 3.07445312 -12.8125 3.0625 C-9.26061743 -0.48938257 -4.8063041 -0.05790728 0 0 Z " fill="#B3CBA2" transform="translate(263.8125,136.9375)"/>
<path d="M0 0 C1.32 0.99 2.64 1.98 4 3 C4.171875 5.26171875 4.171875 5.26171875 3.75 7.6875 C3.62109375 8.49574219 3.4921875 9.30398438 3.359375 10.13671875 C3.18148438 11.05904297 3.18148438 11.05904297 3 12 C2.01 12 1.02 12 0 12 C0 8.04 0 4.08 0 0 Z " fill="#CBDBC7" transform="translate(309,439)"/>
<path d="M0 0 C5.841744 -0.35050464 9.8531808 -0.16727335 15 3 C14.01 3.495 14.01 3.495 13 4 C12.34 3.67 11.68 3.34 11 3 C10.67 5.64 10.34 8.28 10 11 C9.67 11 9.34 11 9 11 C8.34 8.03 7.68 5.06 7 2 C4.69 1.67 2.38 1.34 0 1 C0 0.67 0 0.34 0 0 Z " fill="#D8C7B7" transform="translate(234,166)"/>
<path d="M0 0 C1.98 0 3.96 0 6 0 C6 0.66 6 1.32 6 2 C6.66 2 7.32 2 8 2 C7.34 3.32 6.68 4.64 6 6 C4.68 5.67 3.36 5.34 2 5 C2.33 4.67 2.66 4.34 3 4 C1.68 3.67 0.36 3.34 -1 3 C-0.67 2.01 -0.34 1.02 0 0 Z " fill="#718764" transform="translate(65,474)"/>
<path d="M0 0 C0.33 0.99 0.66 1.98 1 3 C2.65 3 4.3 3 6 3 C6 3.66 6 4.32 6 5 C5.05125 5.45375 4.1025 5.9075 3.125 6.375 C-0.00313679 7.80238254 -0.00313679 7.80238254 -2 10 C-2.99 10 -3.98 10 -5 10 C-5 9.01 -5 8.02 -5 7 C-4.01 7 -3.02 7 -2 7 C-1.34 4.69 -0.68 2.38 0 0 Z " fill="#C1AFAF" transform="translate(255,205)"/>
<path d="M0 0 C0.33 1.32 0.66 2.64 1 4 C-6.75 4.125 -6.75 4.125 -9 3 C-9 2.34 -9 1.68 -9 1 C-5.8035914 -0.06546953 -3.34252724 -0.07427838 0 0 Z " fill="#677D5A" transform="translate(423,439)"/>
<path d="M0 0 C0.33 0 0.66 0 1 0 C1 1.98 1 3.96 1 6 C0.34 6 -0.32 6 -1 6 C-1 6.66 -1 7.32 -1 8 C-2.32 8 -3.64 8 -5 8 C-5 6.02 -5 4.04 -5 2 C-3.68 2.33 -2.36 2.66 -1 3 C-0.67 2.01 -0.34 1.02 0 0 Z " fill="#657A57" transform="translate(295,260)"/>
<path d="M0 0 C1.32 0 2.64 0 4 0 C3.91253716 1.43861294 3.80434652 2.87597508 3.6875 4.3125 C3.62949219 5.11300781 3.57148438 5.91351563 3.51171875 6.73828125 C3 9 3 9 0 12 C0 8.04 0 4.08 0 0 Z " fill="#FCE1E1" transform="translate(234,214)"/>
<path d="M0 0 C0.99 0.33 1.98 0.66 3 1 C3 2.98 3 4.96 3 7 C2.34 7 1.68 7 1 7 C1 7.66 1 8.32 1 9 C0.01 8.67 -0.98 8.34 -2 8 C-2 6.68 -2 5.36 -2 4 C-1.34 4 -0.68 4 0 4 C0 2.68 0 1.36 0 0 Z " fill="#7C9071" transform="translate(122,319)"/>
<path d="M0 0 C0 1.32 0 2.64 0 4 C0.99 4.66 1.98 5.32 3 6 C2 7 2 7 -1.5625 7.0625 C-2.696875 7.041875 -3.83125 7.02125 -5 7 C-5.1875 4.625 -5.1875 4.625 -5 2 C-2 0 -2 0 0 0 Z " fill="#647A56" transform="translate(334,279)"/>
<path d="M0 0 C2.0625 0.4375 2.0625 0.4375 4 1 C3.67 2.65 3.34 4.3 3 6 C1.35 6 -0.3 6 -2 6 C-1.125 1.125 -1.125 1.125 0 0 Z " fill="#FEFEFE" transform="translate(248,231)"/>
<path d="M0 0 C0.66 0 1.32 0 2 0 C2.33 0.66 2.66 1.32 3 2 C4.65 1.67 6.3 1.34 8 1 C7.34 2.32 6.68 3.64 6 5 C5.34 5 4.68 5 4 5 C4 5.66 4 6.32 4 7 C3.34 7 2.68 7 2 7 C0 5 0 5 -0.125 2.375 C-0.08375 1.59125 -0.0425 0.8075 0 0 Z " fill="#637A54" transform="translate(343,354)"/>
<path d="M0 0 C0.66 0 1.32 0 2 0 C2 0.66 2 1.32 2 2 C2.66 2 3.32 2 4 2 C3.67 3.65 3.34 5.3 3 7 C1.35 6.67 -0.3 6.34 -2 6 C-1.125 1.125 -1.125 1.125 0 0 Z " fill="#69815B" transform="translate(183,302)"/>
<path d="M0 0 C1.32 0 2.64 0 4 0 C5.125 3.75 5.125 3.75 4 6 C2.35 5.67 0.7 5.34 -1 5 C-0.67 3.35 -0.34 1.7 0 0 Z " fill="#F9F3BA" transform="translate(220,172)"/>
<path d="M0 0 C2.31 0 4.62 0 7 0 C7.33 0.99 7.66 1.98 8 3 C5 5 5 5 2 5 C1.34 3.35 0.68 1.7 0 0 Z " fill="#657B58" transform="translate(314,473)"/>
<path d="M0 0 C0.66 0 1.32 0 2 0 C2.33 1.65 2.66 3.3 3 5 C3.66 4.01 4.32 3.02 5 2 C5.66 2 6.32 2 7 2 C6.1875 4.4375 6.1875 4.4375 5 7 C4.01 7.33 3.02 7.66 2 8 C1.34 7.67 0.68 7.34 0 7 C0 4.69 0 2.38 0 0 Z " fill="#637A55" transform="translate(171,361)"/>
<path d="M0 0 C0 2.97 0 5.94 0 9 C-0.66 9 -1.32 9 -2 9 C-2 6.69 -2 4.38 -2 2 C-3.65 2 -5.3 2 -7 2 C-5.26578631 -1.46842738 -3.40984787 -1.13661596 0 0 Z " fill="#677D5A" transform="translate(125,353)"/>
<path d="M0 0 C2.39323804 2.39323804 2.44196109 3.73148638 3 7 C3.33 7.99 3.66 8.98 4 10 C1.13275314 9.42655063 0.1385485 9.1385485 -2 7 C-2.33 6.34 -2.66 5.68 -3 5 C-1.5625 2.375 -1.5625 2.375 0 0 Z " fill="#99AC90" transform="translate(216,300)"/>
<path d="M0 0 C1.65 0.99 3.3 1.98 5 3 C5 3.99 5 4.98 5 6 C4.01 5.67 3.02 5.34 2 5 C1.67 8.63 1.34 12.26 1 16 C0.67 16 0.34 16 0 16 C0 10.72 0 5.44 0 0 Z " fill="#6D9487" transform="translate(57,248)"/>
<path d="M0 0 C2.4375 0.8125 2.4375 0.8125 5 2 C5.33 2.99 5.66 3.98 6 5 C3.29120665 6.35439668 0.99066732 6.06501451 -2 6 C-2 5.34 -2 4.68 -2 4 C-1.01 3.67 -0.02 3.34 1 3 C0.67 2.01 0.34 1.02 0 0 Z " fill="#657A57" transform="translate(63,446)"/>
<path d="M0 0 C0.66 0 1.32 0 2 0 C2 1.98 2 3.96 2 6 C1.34 6 0.68 6 0 6 C-0.33 6.99 -0.66 7.98 -1 9 C-2.5625 7.1875 -2.5625 7.1875 -4 5 C-3.67 4.01 -3.34 3.02 -3 2 C-1.515 2.99 -1.515 2.99 0 4 C0 2.68 0 1.36 0 0 Z " fill="#627853" transform="translate(329,415)"/>
<path d="M0 0 C0.66 1.98 1.32 3.96 2 6 C0.68 6 -0.64 6 -2 6 C-2.2475 5.38125 -2.495 4.7625 -2.75 4.125 C-4.20628639 1.64931313 -5.37812506 1.04874998 -8 0 C-4.71023192 -1.09658936 -3.28696233 -0.79953138 0 0 Z " fill="#C2D3BD" transform="translate(104,408)"/>
<path d="M0 0 C-0.33 0.99 -0.66 1.98 -1 3 C-3.31 3.33 -5.62 3.66 -8 4 C-5.97675095 -0.48005146 -4.79569304 -1.43870791 0 0 Z " fill="#627854" transform="translate(366,322)"/>
<path d="M0 0 C1.67542976 0.28604898 3.34385343 0.61781233 5 1 C5 2.32 5 3.64 5 5 C3.35 5 1.7 5 0 5 C-0.5625 3.0625 -0.5625 3.0625 -1 1 C-0.67 0.67 -0.34 0.34 0 0 Z " fill="#FDF5B9" transform="translate(278,180)"/>
<path d="M0 0 C2.475 0.495 2.475 0.495 5 1 C6.125 4.75 6.125 4.75 5 7 C4.34 6.67 3.68 6.34 3 6 C3 5.34 3 4.68 3 4 C2.01 4.99 1.02 5.98 0 7 C0 4.69 0 2.38 0 0 Z " fill="#738D82" transform="translate(198,262)"/>
<path d="M0 0 C1.32 0 2.64 0 4 0 C4.33 1.65 4.66 3.3 5 5 C3.68 4.67 2.36 4.34 1 4 C1 4.66 1 5.32 1 6 C0.34 6 -0.32 6 -1 6 C-0.67 4.02 -0.34 2.04 0 0 Z " fill="#6E8461" transform="translate(179,260)"/>
<path d="M0 0 C1.32 0 2.64 0 4 0 C4.66 1.32 5.32 2.64 6 4 C5 5 5 5 2.4375 5.0625 C1.2309375 5.0315625 1.2309375 5.0315625 0 5 C-0.5625 3.0625 -0.5625 3.0625 -1 1 C-0.67 0.67 -0.34 0.34 0 0 Z " fill="#6A7F5D" transform="translate(173,442)"/>
<path d="M0 0 C1.65 1.65 3.3 3.3 5 5 C4.34 6.32 3.68 7.64 3 9 C1 5.25 1 5.25 1 3 C0.34 3 -0.32 3 -1 3 C-0.67 3.99 -0.34 4.98 0 6 C-0.99 5.67 -1.98 5.34 -3 5 C-2.67 4.01 -2.34 3.02 -2 2 C-1.34 2 -0.68 2 0 2 C0 1.34 0 0.68 0 0 Z " fill="#A8BBA0" transform="translate(73,426)"/>
<path d="M0 0 C2.9375 0.375 2.9375 0.375 6 1 C6.33 1.66 6.66 2.32 7 3 C5.9275 3.103125 4.855 3.20625 3.75 3.3125 C0.14179128 3.97400493 -1.36395023 4.57483421 -4 7 C-2.79618552 4.50638429 -1.54571278 2.31856917 0 0 Z " fill="#9AAD91" transform="translate(210,355)"/>
<path d="M0 0 C-0.375 2.4375 -0.375 2.4375 -1 5 C-1.99 5.495 -1.99 5.495 -3 6 C-3 5.34 -3 4.68 -3 4 C-4.32 4.33 -5.64 4.66 -7 5 C-6 2 -6 2 -4.0625 0.8125 C-2 0 -2 0 0 0 Z " fill="#637956" transform="translate(303,428)"/>
<path d="M0 0 C1.98 0 3.96 0 6 0 C5.67 0.66 5.34 1.32 5 2 C4.34 2 3.68 2 3 2 C3.33 3.65 3.66 5.3 4 7 C2.68 6.67 1.36 6.34 0 6 C0 4.02 0 2.04 0 0 Z " fill="#6F8661" transform="translate(212,346)"/>
<path d="M0 0 C1.65 0 3.3 0 5 0 C5 1.65 5 3.3 5 5 C3.35 4.67 1.7 4.34 0 4 C0 2.68 0 1.36 0 0 Z " fill="#FCF4B9" transform="translate(311,186)"/>
<path d="M0 0 C0.99 0.33 1.98 0.66 3 1 C3.6875 3.0625 3.6875 3.0625 4 5 C3.34 5 2.68 5 2 5 C2 4.34 2 3.68 2 3 C1.34 3 0.68 3 0 3 C0 4.32 0 5.64 0 7 C-0.66 7 -1.32 7 -2 7 C-2 5.35 -2 3.7 -2 2 C-1.34 2 -0.68 2 0 2 C0 1.34 0 0.68 0 0 Z " fill="#657B57" transform="translate(179,431)"/>
<path d="M0 0 C1.32 0.33 2.64 0.66 4 1 C3.34 2.32 2.68 3.64 2 5 C0.35 4.67 -1.3 4.34 -3 4 C-2.01 2.68 -1.02 1.36 0 0 Z " fill="#627954" transform="translate(347,309)"/>
<path d="M0 0 C0.66 0 1.32 0 2 0 C2 2.64 2 5.28 2 8 C1.01 7.67 0.02 7.34 -1 7 C-1.6875 4.9375 -1.6875 4.9375 -2 3 C-1.34 3 -0.68 3 0 3 C0 2.01 0 1.02 0 0 Z " fill="#627A58" transform="translate(287,263)"/>
<path d="M0 0 C0.33 0 0.66 0 1 0 C1.17835515 4.54805635 0.99785435 7.8794254 -1 12 C-1.33 12 -1.66 12 -2 12 C-1.85904936 10.3745692 -1.71207913 8.74965949 -1.5625 7.125 C-1.48128906 6.22007812 -1.40007812 5.31515625 -1.31640625 4.3828125 C-1 2 -1 2 0 0 Z " fill="#2A5F27" transform="translate(340,233)"/>
<path d="M0 0 C1.32 0.33 2.64 0.66 4 1 C3.67 2.65 3.34 4.3 3 6 C2.01 6 1.02 6 0 6 C0 4.02 0 2.04 0 0 Z " fill="#545252" transform="translate(252,225)"/>
<path d="M0 0 C0.66 0 1.32 0 2 0 C1.4140625 6.15234375 1.4140625 6.15234375 1 8 C0.01 8.495 0.01 8.495 -1 9 C-1.09765625 2.84765625 -1.09765625 2.84765625 -1 1 C-0.67 0.67 -0.34 0.34 0 0 Z " fill="#647B55" transform="translate(133,406)"/>
<path d="M0 0 C2.475 0.99 2.475 0.99 5 2 C5 2.66 5 3.32 5 4 C2.69 4.33 0.38 4.66 -2 5 C-1.34 3.35 -0.68 1.7 0 0 Z " fill="#647957" transform="translate(291,387)"/>
<path d="M0 0 C0 1.65 0 3.3 0 5 C-1.32 5.33 -2.64 5.66 -4 6 C-4 4.35 -4 2.7 -4 1 C-2 0 -2 0 0 0 Z " fill="#607752" transform="translate(308,368)"/>
<path d="M0 0 C0.75 1.75 0.75 1.75 1 4 C-0.8125 6.25 -0.8125 6.25 -3 8 C-3.66 8 -4.32 8 -5 8 C-3.62845496 5.04590299 -2.01136276 2.55991624 0 0 Z " fill="#5F7651" transform="translate(336,354)"/>
<path d="M0 0 C1.65 0 3.3 0 5 0 C5.33 1.32 5.66 2.64 6 4 C4.35 4 2.7 4 1 4 C0.67 2.68 0.34 1.36 0 0 Z " fill="#687D5B" transform="translate(420,453)"/>
<path d="M0 0 C0.33 1.32 0.66 2.64 1 4 C-0.32 4.33 -1.64 4.66 -3 5 C-3 4.34 -3 3.68 -3 3 C-3.99 2.67 -4.98 2.34 -6 2 C-3 0 -3 0 0 0 Z " fill="#617653" transform="translate(410,423)"/>
<path d="M0 0 C1.67542976 0.28604898 3.34385343 0.61781233 5 1 C4.67 2.32 4.34 3.64 4 5 C4 4.34 4 3.68 4 3 C2.68 2.67 1.36 2.34 0 2 C0 3.65 0 5.3 0 7 C-0.33 7 -0.66 7 -1 7 C-1.04254356 5.00045254 -1.04080783 2.99958364 -1 1 C-0.67 0.67 -0.34 0.34 0 0 Z " fill="#9A9090" transform="translate(252,223)"/>
<path d="M0 0 C1.65 0 3.3 0 5 0 C4.67 0.99 4.34 1.98 4 3 C3.34 3 2.68 3 2 3 C1.67 5.31 1.34 7.62 1 10 C0.67 10 0.34 10 0 10 C0 6.7 0 3.4 0 0 Z " fill="#B1B0B6" transform="translate(233,212)"/>
<path d="M0 0 C0.66 0 1.32 0 2 0 C0.52307692 4.67692308 0.52307692 4.67692308 -2.125 6.3125 C-3.053125 6.6528125 -3.053125 6.6528125 -4 7 C-2.92598892 4.08482708 -2.22189824 2.22189824 0 0 Z " fill="#6B805F" transform="translate(404,419)"/>
<path d="M0 0 C0.99 0.33 1.98 0.66 3 1 C3.33 1.99 3.66 2.98 4 4 C2.35 4.33 0.7 4.66 -1 5 C-0.67 3.35 -0.34 1.7 0 0 Z " fill="#6B805F" transform="translate(291,414)"/>
<path d="M0 0 C1.2065625 0.0309375 1.2065625 0.0309375 2.4375 0.0625 C2.4375 1.3825 2.4375 2.7025 2.4375 4.0625 C1.1175 4.0625 -0.2025 4.0625 -1.5625 4.0625 C-1.5625 3.4025 -1.5625 2.7425 -1.5625 2.0625 C-2.2225 1.7325 -2.8825 1.4025 -3.5625 1.0625 C-2.5625 0.0625 -2.5625 0.0625 0 0 Z " fill="#667C59" transform="translate(390.5625,395.9375)"/>
<path d="M0 0 C0.66 0.33 1.32 0.66 2 1 C2 2.32 2 3.64 2 5 C1.34 5 0.68 5 0 5 C0 5.66 0 6.32 0 7 C-0.66 7 -1.32 7 -2 7 C-1.125 1.125 -1.125 1.125 0 0 Z " fill="#5E744F" transform="translate(339,355)"/>
<path d="M0 0 C0.33 0 0.66 0 1 0 C1.36923077 5.53846154 1.36923077 5.53846154 -0.5 7.875 C-1.2425 8.431875 -1.2425 8.431875 -2 9 C-2.25 3.375 -2.25 3.375 0 0 Z " fill="#627954" transform="translate(153,352)"/>
<path d="M0 0 C0.66 0 1.32 0 2 0 C3.25664978 2.90600261 4 4.79604584 4 8 C3.34 8 2.68 8 2 8 C0.74335022 5.09399739 0 3.20395416 0 0 Z " fill="#617853" transform="translate(124,405)"/>
<path d="M0 0 C1.32 0 2.64 0 4 0 C4.33 1.32 4.66 2.64 5 4 C3.35 4 1.7 4 0 4 C0 2.68 0 1.36 0 0 Z " fill="#97AA8E" transform="translate(202,370)"/>
<path d="M0 0 C1.65 0.33 3.3 0.66 5 1 C4.01 2.485 4.01 2.485 3 4 C0.375 4.1875 0.375 4.1875 -2 4 C-1.34 2.68 -0.68 1.36 0 0 Z " fill="#617753" transform="translate(371,362)"/>
<path d="M0 0 C0.33 0.99 0.66 1.98 1 3 C-0.65 4.65 -2.3 6.3 -4 8 C-3.50168276 4.31245243 -2.89932357 2.39509338 0 0 Z " fill="#617853" transform="translate(159,355)"/>
<path d="M0 0 C0.33 0 0.66 0 1 0 C1.36923077 5.53846154 1.36923077 5.53846154 -0.5 7.875 C-1.2425 8.431875 -1.2425 8.431875 -2 9 C-1.125 1.125 -1.125 1.125 0 0 Z " fill="#30632D" transform="translate(206,239)"/>
<path d="M0 0 C1.2065625 0.0309375 1.2065625 0.0309375 2.4375 0.0625 C1.7259375 0.7121875 1.7259375 0.7121875 1 1.375 C-0.79936957 3.08559613 -0.79936957 3.08559613 -1.5625 6.0625 C-2.2225 6.0625 -2.8825 6.0625 -3.5625 6.0625 C-3.605221 4.39638095 -3.60313832 2.72867115 -3.5625 1.0625 C-2.5625 0.0625 -2.5625 0.0625 0 0 Z " fill="#FCD2DD" transform="translate(247.5625,229.9375)"/>
<path d="M0 0 C0.66 0 1.32 0 2 0 C1.38722388 2.96175123 0.74627478 4.38058783 -1 7 C-1.66 7 -2.32 7 -3 7 C-1.125 1.125 -1.125 1.125 0 0 Z " fill="#6A805C" transform="translate(305,431)"/>
<path d="M0 0 C0.66 0 1.32 0 2 0 C2.33 1.65 2.66 3.3 3 5 C1.35 5 -0.3 5 -2 5 C-2.33 4.34 -2.66 3.68 -3 3 C-2.01 2.67 -1.02 2.34 0 2 C0 1.34 0 0.68 0 0 Z " fill="#617653" transform="translate(72,429)"/>
<path d="M0 0 C0.66 0.33 1.32 0.66 2 1 C0.7260411 3.03833424 -0.61061923 5.03852126 -2 7 C-2.66 7 -3.32 7 -4 7 C-2.92598892 4.08482708 -2.22189824 2.22189824 0 0 Z " fill="#627853" transform="translate(180,364)"/>
<path d="M0 0 C0.33 0.66 0.66 1.32 1 2 C1.99 2.33 2.98 2.66 4 3 C1 5 1 5 -3 5 C-1.125 1.125 -1.125 1.125 0 0 Z " fill="#657B58" transform="translate(367,358)"/>
</svg>
