<?xml version="1.0" encoding="UTF-8"?>
<svg version="1.1" xmlns="http://www.w3.org/2000/svg" width="100" height="130">
<path d="M0 0 C0 1.65 0 3.3 0 5 C1.65 5 3.3 5 5 5 C5 6.98 5 8.96 5 11 C7.31 11 9.62 11 12 11 C12.495 16.94 12.495 16.94 13 23 C19.6 23 26.2 23 33 23 C33 27.29 33 31.58 33 36 C31.35 36 29.7 36 28 36 C28.020625 36.804375 28.04125 37.60875 28.0625 38.4375 C28 41 28 41 27 42 C24.4672235 42.07320163 21.96896082 42.09227569 19.4375 42.0625 C16.983125 42.041875 14.52875 42.02125 12 42 C12 49.59 12 57.18 12 65 C25.86 65 39.72 65 54 65 C54.75289597 69.51737584 55.135322 73.2966259 55.125 77.8125 C55.12886719 79.52373047 55.12886719 79.52373047 55.1328125 81.26953125 C55 84 55 84 54 85 C52.35 85 50.7 85 49 85 C49 90.61 49 96.22 49 102 C47.35 102.33 45.7 102.66 44 103 C44 108.61 44 114.22 44 120 C44.66 120 45.32 120 46 120 C46 120.66 46 121.32 46 122 C45.34 122 44.68 122 44 122 C43.505 123.485 43.505 123.485 43 125 C41.68 125 40.36 125 39 125 C39 126.32 39 127.64 39 129 C17.55 129 -3.9 129 -26 129 C-26 127.68 -26 126.36 -26 125 C-27.65 125 -29.3 125 -31 125 C-31.33 117.74 -31.66 110.48 -32 103 C-33.65 102.67 -35.3 102.34 -37 102 C-37 96.39 -37 90.78 -37 85 C-38.32 85 -39.64 85 -41 85 C-41 78.4 -41 71.8 -41 65 C-31.76 65 -22.52 65 -13 65 C-13 65.66 -13 66.32 -13 67 C-11.35 67 -9.7 67 -8 67 C-8 66.34 -8 65.68 -8 65 C-4.37 65 -0.74 65 3 65 C2.8613598 60.7289011 2.71286099 56.45820108 2.5625 52.1875 C2.52318359 50.97255859 2.48386719 49.75761719 2.44335938 48.50585938 C2.40146484 47.34248047 2.35957031 46.17910156 2.31640625 44.98046875 C2.26141968 43.37014771 2.26141968 43.37014771 2.20532227 41.72729492 C2.10458153 38.90688447 2.10458153 38.90688447 1 36 C-4.28 36 -9.56 36 -15 36 C-15 34.68 -15 33.36 -15 32 C-18.63 32 -22.26 32 -26 32 C-26 29.69 -26 27.38 -26 25 C-27.65 25 -29.3 25 -31 25 C-31 18.73 -31 12.46 -31 6 C-29.35 5.67 -27.7 5.34 -26 5 C-26 3.68 -26 2.36 -26 1 C-17.31126982 0.10884819 -8.73139464 -0.11624638 0 0 Z " fill="#D58D46" transform="translate(45,1)"/>
<path d="M0 0 C14.19 0 28.38 0 43 0 C43 4.95 43 9.9 43 15 C41.68 15 40.36 15 39 15 C39 20.28 39 25.56 39 31 C37.02 31 35.04 31 33 31 C33 38.26 33 45.52 33 53 C31.35 53.33 29.7 53.66 28 54 C28 55.65 28 57.3 28 59 C15.13 59 2.26 59 -11 59 C-11 57.35 -11 55.7 -11 54 C-3.74 54 3.52 54 11 54 C11 44.76 11 35.52 11 26 C-5.17 26 -21.34 26 -38 26 C-38 27.65 -38 29.3 -38 31 C-39.65 31 -41.3 31 -43 31 C-43 25.72 -43 20.44 -43 15 C-44.65 15 -46.3 15 -48 15 C-48 13.68 -48 12.36 -48 11 C-28.53 11 -9.06 11 11 11 C11 9.02 11 7.04 11 5 C7.37 5 3.74 5 0 5 C0 3.35 0 1.7 0 0 Z " fill="#904904" transform="translate(54,69)"/>
<path d="M0 0 C16.17 0 32.34 0 49 0 C49 9.24 49 18.48 49 28 C41.74 28 34.48 28 27 28 C27 29.65 27 31.3 27 33 C39.87 33 52.74 33 66 33 C66 33.33 66 33.66 66 34 C46.2 34 26.4 34 6 34 C6 32.02 6 30.04 6 28 C4.02 28 2.04 28 0 28 C0 21.07 0 14.14 0 7 C-1.32 7 -2.64 7 -4 7 C-4 6.34 -4 5.68 -4 5 C-2.68 5 -1.36 5 0 5 C0 3.35 0 1.7 0 0 Z " fill="#D68333" transform="translate(16,95)"/>
<path d="M0 0 C1.32 0 2.64 0 4 0 C4 1.65 4 3.3 4 5 C5.98 5 7.96 5 10 5 C10 6.98 10 8.96 10 11 C10.804375 10.979375 11.60875 10.95875 12.4375 10.9375 C15 11 15 11 16 12 C16.07271741 14.35313555 16.08370868 16.70833668 16.0625 19.0625 C16.05347656 20.35285156 16.04445312 21.64320312 16.03515625 22.97265625 C16.02355469 23.97167969 16.01195312 24.97070312 16 26 C17.98 26 19.96 26 22 26 C22 24.35 22 22.7 22 21 C27.94 21 33.88 21 40 21 C40 25.29 40 29.58 40 34 C38.35 34 36.7 34 35 34 C35 35.65 35 37.3 35 39 C29.06 39 23.12 39 17 39 C17 47.91 17 56.82 17 66 C15.02 66 13.04 66 11 66 C11 55.11 11 44.22 11 33 C6.05 33 1.1 33 -4 33 C-4.66 32.67 -5.32 32.34 -6 32 C-6.625 29.4375 -6.625 29.4375 -7 27 C-9.97 26.67 -12.94 26.34 -16 26 C-16 24.68 -16 23.36 -16 22 C-17.98 22 -19.96 22 -22 22 C-22 16.39 -22 10.78 -22 5 C-20.68 5 -19.36 5 -18 5 C-18 6.98 -18 8.96 -18 11 C-12.06 11 -6.12 11 0 11 C0 7.37 0 3.74 0 0 Z " fill="#2A8885" transform="translate(38,3)"/>
<path d="M0 0 C0 1.65 0 3.3 0 5 C1.65 5 3.3 5 5 5 C5 6.98 5 8.96 5 11 C7.31 11 9.62 11 12 11 C12.495 16.94 12.495 16.94 13 23 C13.66 23 14.32 23 15 23 C15 24.65 15 26.3 15 28 C13.02 28 11.04 28 9 28 C8.67 23.38 8.34 18.76 8 14 C5.525 13.505 5.525 13.505 3 13 C3 11.02 3 9.04 3 7 C1.02 7 -0.96 7 -3 7 C-3 5.35 -3 3.7 -3 2 C-4.32 2 -5.64 2 -7 2 C-7 5.63 -7 9.26 -7 13 C-12.94 13 -18.88 13 -25 13 C-25 11.02 -25 9.04 -25 7 C-26.32 7 -27.64 7 -29 7 C-29 12.61 -29 18.22 -29 24 C-27.02 24 -25.04 24 -23 24 C-23 25.32 -23 26.64 -23 28 C-22.36191406 27.98839844 -21.72382813 27.97679688 -21.06640625 27.96484375 C-20.24011719 27.95582031 -19.41382812 27.94679688 -18.5625 27.9375 C-17.73878906 27.92589844 -16.91507813 27.91429688 -16.06640625 27.90234375 C-14 28 -14 28 -13 29 C-13 30.65 -13 32.3 -13 34 C-7.39 34.33 -1.78 34.66 4 35 C4 45.89 4 56.78 4 68 C0.37 68 -3.26 68 -7 68 C-7 71.3 -7 74.6 -7 78 C-8.98 78 -10.96 78 -13 78 C-13 74.7 -13 71.4 -13 68 C-21.91 68 -30.82 68 -40 68 C-40 73.28 -40 78.56 -40 84 C-38.68 84.33 -37.36 84.66 -36 85 C-37.65 85 -39.3 85 -41 85 C-41 78.4 -41 71.8 -41 65 C-31.76 65 -22.52 65 -13 65 C-13 65.66 -13 66.32 -13 67 C-11.35 67 -9.7 67 -8 67 C-8 66.34 -8 65.68 -8 65 C-4.37 65 -0.74 65 3 65 C2.8613598 60.7289011 2.71286099 56.45820108 2.5625 52.1875 C2.52318359 50.97255859 2.48386719 49.75761719 2.44335938 48.50585938 C2.40146484 47.34248047 2.35957031 46.17910156 2.31640625 44.98046875 C2.26141968 43.37014771 2.26141968 43.37014771 2.20532227 41.72729492 C2.10458153 38.90688447 2.10458153 38.90688447 1 36 C-4.28 36 -9.56 36 -15 36 C-15 34.68 -15 33.36 -15 32 C-18.63 32 -22.26 32 -26 32 C-26 29.69 -26 27.38 -26 25 C-27.65 25 -29.3 25 -31 25 C-31 18.73 -31 12.46 -31 6 C-29.35 5.67 -27.7 5.34 -26 5 C-26 3.68 -26 2.36 -26 1 C-17.31126982 0.10884819 -8.73139464 -0.11624638 0 0 Z " fill="#AAD5D2" transform="translate(45,1)"/>
<path d="M0 0 C16.17 0 32.34 0 49 0 C49 9.24 49 18.48 49 28 C41.74 28 34.48 28 27 28 C27 29.65 27 31.3 27 33 C39.87 33 52.74 33 66 33 C66 33.33 66 33.66 66 34 C46.2 34 26.4 34 6 34 C6 32.02 6 30.04 6 28 C4.02 28 2.04 28 0 28 C0 21.07 0 14.14 0 7 C-1.32 7 -2.64 7 -4 7 C-4 6.34 -4 5.68 -4 5 C-2.68 5 -1.36 5 0 5 C0 3.35 0 1.7 0 0 Z M16 1 C16 9.91 16 18.82 16 28 C26.56 27.67 37.12 27.34 48 27 C48 18.75 48 10.5 48 2 C37.44 1.67 26.88 1.34 16 1 Z " fill="#CB7C2F" transform="translate(16,95)"/>
<path d="M0 0 C14.19 0 28.38 0 43 0 C43 4.95 43 9.9 43 15 C41.68 15.33 40.36 15.66 39 16 C38.67 17.98 38.34 19.96 38 22 C36.35 22 34.7 22 33 22 C33 20.02 33 18.04 33 16 C18.15 16 3.3 16 -12 16 C-12 14.68 -12 13.36 -12 12 C10.275 11.505 10.275 11.505 33 11 C33 9.35 33 7.7 33 6 C22.11 5.67 11.22 5.34 0 5 C0 3.35 0 1.7 0 0 Z " fill="#6A3403" transform="translate(54,69)"/>
<path d="M0 0 C5.61 0 11.22 0 17 0 C17 0.33 17 0.66 17 1 C12.05 1 7.1 1 2 1 C2 8.59 2 16.18 2 24 C15.86 24 29.72 24 44 24 C44.75289597 28.51737584 45.135322 32.2966259 45.125 36.8125 C45.12886719 38.52373047 45.12886719 38.52373047 45.1328125 40.26953125 C45 43 45 43 44 44 C42.35 44 40.7 44 39 44 C39 49.61 39 55.22 39 61 C37.35 61.33 35.7 61.66 34 62 C34 67.61 34 73.22 34 79 C34.66 79 35.32 79 36 79 C36 79.66 36 80.32 36 81 C35.34 81 34.68 81 34 81 C33.505 82.485 33.505 82.485 33 84 C31.68 84 30.36 84 29 84 C29 85.32 29 86.64 29 88 C7.55 88 -13.9 88 -36 88 C-36 86.68 -36 85.36 -36 84 C-37.65 84 -39.3 84 -41 84 C-41.33 76.74 -41.66 69.48 -42 62 C-43.65 61.67 -45.3 61.34 -47 61 C-47 60.01 -47 59.02 -47 58 C-45.68 58 -44.36 58 -43 58 C-43 58.66 -43 59.32 -43 60 C-41.68 60 -40.36 60 -39 60 C-39 66.93 -39 73.86 -39 81 C-37.02 81 -35.04 81 -33 81 C-33 82.98 -33 84.96 -33 87 C-13.2 87 6.6 87 27 87 C27 85.02 27 83.04 27 81 C28.32 80.67 29.64 80.34 31 80 C31.33 72.74 31.66 65.48 32 58 C33.98 58 35.96 58 38 58 C38 52.72 38 47.44 38 42 C39.32 42 40.64 42 42 42 C42 37.05 42 32.1 42 27 C28.14 27 14.28 27 0 27 C0 18.09 0 9.18 0 0 Z " fill="#D4BBA5" transform="translate(55,42)"/>
<path d="M0 0 C3.3 0 6.6 0 10 0 C10 2.97 10 5.94 10 9 C8.68 9.33 7.36 9.66 6 10 C5.67 11.32 5.34 12.64 5 14 C-0.28 14 -5.56 14 -11 14 C-11 23.57 -11 33.14 -11 43 C-12.32 43 -13.64 43 -15 43 C-15 32.11 -15 21.22 -15 10 C-13.68 10 -12.36 10 -11 10 C-11 8.35 -11 6.7 -11 5 C-5.555 4.505 -5.555 4.505 0 4 C0 2.68 0 1.36 0 0 Z " fill="#0F605F" transform="translate(65,26)"/>
<path d="M0 0 C2.31 0 4.62 0 7 0 C7 6.6 7 13.2 7 20 C9.97 20 12.94 20 16 20 C18.02321415 20.13472056 20.04512294 20.29570865 22.0625 20.5 C23.00222656 20.5928125 23.94195312 20.685625 24.91015625 20.78125 C25.59980469 20.8534375 26.28945313 20.925625 27 21 C27 22.65 27 24.3 27 26 C39.87 26 52.74 26 66 26 C66 26.33 66 26.66 66 27 C46.2 27 26.4 27 6 27 C6 25.02 6 23.04 6 21 C4.02 21 2.04 21 0 21 C0 14.07 0 7.14 0 0 Z " fill="#B46B24" transform="translate(16,102)"/>
<path d="M0 0 C3.63 0 7.26 0 11 0 C11 8.91 11 17.82 11 27 C7.37 27 3.74 27 0 27 C0 18.09 0 9.18 0 0 Z " fill="#EAA158" transform="translate(32,96)"/>
<path d="M0 0 C8.91 0 17.82 0 27 0 C27 3.3 27 6.6 27 10 C18.09 10 9.18 10 0 10 C0 6.7 0 3.4 0 0 Z " fill="#EDA762" transform="translate(5,69)"/>
<path d="M0 0 C9.24 0 18.48 0 28 0 C28 0.66 28 1.32 28 2 C29.65 2 31.3 2 33 2 C33 1.34 33 0.68 33 0 C36.63 0 40.26 0 44 0 C44 0.99 44 1.98 44 3 C40.7 3 37.4 3 34 3 C34 6.3 34 9.6 34 13 C32.02 13 30.04 13 28 13 C28 9.7 28 6.4 28 3 C19.09 3 10.18 3 1 3 C1 8.28 1 13.56 1 19 C2.32 19.33 3.64 19.66 5 20 C3.35 20 1.7 20 0 20 C0 13.4 0 6.8 0 0 Z " fill="#F8E3C9" transform="translate(4,66)"/>
<path d="M0 0 C5.61 0 11.22 0 17 0 C17 0.33 17 0.66 17 1 C12.05 1 7.1 1 2 1 C2 8.59 2 16.18 2 24 C15.86 24 29.72 24 44 24 C44.495 26.97 44.495 26.97 45 30 C44.34 29.67 43.68 29.34 43 29 C43 28.34 43 27.68 43 27 C28.81 27 14.62 27 0 27 C0 18.09 0 9.18 0 0 Z " fill="#DDD6CD" transform="translate(55,42)"/>
<path d="M0 0 C12.87 0 25.74 0 39 0 C39 1.65 39 3.3 39 5 C26.13 5 13.26 5 0 5 C0 3.35 0 1.7 0 0 Z " fill="#754010" transform="translate(43,123)"/>
<path d="M0 0 C0 1.65 0 3.3 0 5 C1.65 5 3.3 5 5 5 C5 6.98 5 8.96 5 11 C7.31 11 9.62 11 12 11 C12.495 16.94 12.495 16.94 13 23 C13.66 23 14.32 23 15 23 C15 24.65 15 26.3 15 28 C13.02 28 11.04 28 9 28 C8.67 23.38 8.34 18.76 8 14 C5.525 13.505 5.525 13.505 3 13 C3 11.02 3 9.04 3 7 C1.02 7 -0.96 7 -3 7 C-3 5.35 -3 3.7 -3 2 C-6.63 2 -10.26 2 -14 2 C-14 3.32 -14 4.64 -14 6 C-17.63 6 -21.26 6 -25 6 C-25.33 4.35 -25.66 2.7 -26 1 C-17.31126982 0.10884819 -8.73139464 -0.11624638 0 0 Z " fill="#A3CECE" transform="translate(45,1)"/>
<path d="M0 0 C0 1.65 0 3.3 0 5 C3.63 5 7.26 5 11 5 C11 6.98 11 8.96 11 11 C3.74 11 -3.52 11 -11 11 C-10.34 10.67 -9.68 10.34 -9 10 C-9 7.03 -9 4.06 -9 1 C-5.8035914 -0.06546953 -3.34252724 -0.07427838 0 0 Z " fill="#CC7D2F" transform="translate(54,69)"/>
<path d="M0 0 C1.98 0 3.96 0 6 0 C6 3.63 6 7.26 6 11 C0.06 11 -5.88 11 -12 11 C-12 9.02 -12 7.04 -12 5 C-8.04 5 -4.08 5 0 5 C0 3.35 0 1.7 0 0 Z " fill="#67B7B3" transform="translate(32,3)"/>
<path d="M0 0 C1.98 0 3.96 0 6 0 C7.7462388 1.7462388 7.13221151 3.99878324 7.13671875 6.32226562 C7.13285156 7.02029297 7.12898438 7.71832031 7.125 8.4375 C7.12886719 9.13166016 7.13273437 9.82582031 7.13671875 10.54101562 C7.12663994 15.74672012 7.12663994 15.74672012 6 18 C4.02 18 2.04 18 0 18 C0 12.06 0 6.12 0 0 Z " fill="#F1BC86" transform="translate(32,96)"/>
<path d="M0 0 C2.64429609 2.64429609 2.41511048 4.25354334 2.6875 7.9375 C2.77386719 8.99839844 2.86023438 10.05929688 2.94921875 11.15234375 C3 14 3 14 2 17 C0.35 17 -1.3 17 -3 17 C-3 22.61 -3 28.22 -3 34 C-5.475 34.495 -5.475 34.495 -8 35 C-8 40.61 -8 46.22 -8 52 C-8.66 52 -9.32 52 -10 52 C-10 45.07 -10 38.14 -10 31 C-8.02 31 -6.04 31 -4 31 C-4 25.72 -4 20.44 -4 15 C-2.68 15 -1.36 15 0 15 C0 10.05 0 5.1 0 0 Z " fill="#BB9F84" transform="translate(97,69)"/>
<path d="M0 0 C0.66 0 1.32 0 2 0 C2 4.29 2 8.58 2 13 C0.35 13 -1.3 13 -3 13 C-3 14.65 -3 16.3 -3 18 C-8.94 18 -14.88 18 -21 18 C-21 26.91 -21 35.82 -21 45 C-21.33 45 -21.66 45 -22 45 C-22 35.43 -22 25.86 -22 16 C-16.72 16 -11.44 16 -6 16 C-6 14.68 -6 13.36 -6 12 C-4.02 12 -2.04 12 0 12 C0 8.04 0 4.08 0 0 Z " fill="#88A6A6" transform="translate(76,24)"/>
<path d="M0 0 C3.63 0 7.26 0 11 0 C11 1.65 11 3.3 11 5 C23.87 5 36.74 5 50 5 C50 5.33 50 5.66 50 6 C33.5 6 17 6 0 6 C0 4.02 0 2.04 0 0 Z " fill="#BC7C41" transform="translate(32,123)"/>
<path d="M0 0 C5.28 0 10.56 0 16 0 C16 1.32 16 2.64 16 4 C5.77 4 -4.46 4 -15 4 C-15 3.34 -15 2.68 -15 2 C-10.05 2 -5.1 2 0 2 C0 1.34 0 0.68 0 0 Z " fill="#6A3403" transform="translate(65,123)"/>
<path d="M0 0 C4.95 0 9.9 0 15 0 C15 1.98 15 3.96 15 6 C10.05 6 5.1 6 0 6 C0 4.02 0 2.04 0 0 Z " fill="#0B6663" transform="translate(34,29)"/>
<path d="M0 0 C14.19 0 28.38 0 43 0 C43 0.33 43 0.66 43 1 C32.44 1 21.88 1 11 1 C11 2.32 11 3.64 11 5 C7.37 5 3.74 5 0 5 C0 3.35 0 1.7 0 0 Z " fill="#8C5018" transform="translate(54,69)"/>
<path d="M0 0 C0.33 0 0.66 0 1 0 C1 4.62 1 9.24 1 14 C2.98 14 4.96 14 7 14 C7 12.35 7 10.7 7 9 C12.28 9 17.56 9 23 9 C23 12.96 23 16.92 23 21 C21.35 21 19.7 21 18 21 C19.32 20.67 20.64 20.34 22 20 C22 17.03 22 14.06 22 11 C18.7 11 15.4 11 12 11 C12 12.32 12 13.64 12 15 C8.04 15 4.08 15 0 15 C0 10.05 0 5.1 0 0 Z " fill="#509491" transform="translate(53,15)"/>
<path d="M0 0 C6.93 0.33 13.86 0.66 21 1 C21 2.32 21 3.64 21 5 C14.07 5 7.14 5 0 5 C0 3.35 0 1.7 0 0 Z " fill="#914A03" transform="translate(65,74)"/>
<path d="M0 0 C0.99 0 1.98 0 3 0 C3 9.24 3 18.48 3 28 C2.01 28 1.02 28 0 28 C0 18.76 0 9.52 0 0 Z " fill="#0C3E3C" transform="translate(50,41)"/>
<path d="M0 0 C1.32 0 2.64 0 4 0 C4 6.6 4 13.2 4 20 C2.68 20 1.36 20 0 20 C0 13.4 0 6.8 0 0 Z " fill="#954E0B" transform="translate(16,102)"/>
<path d="M0 0 C0 0.66 0 1.32 0 2 C-0.99 2 -1.98 2 -3 2 C-3 3.32 -3 4.64 -3 6 C-6.63 6 -10.26 6 -14 6 C-14.33 4.35 -14.66 2.7 -15 1 C-13.06263299 0.83179449 -11.12510094 0.66548905 -9.1875 0.5 C-7.56908203 0.36078125 -7.56908203 0.36078125 -5.91796875 0.21875 C-3 0 -3 0 0 0 Z " fill="#D2F6EB" transform="translate(34,1)"/>
<path d="M0 0 C0.33 0 0.66 0 1 0 C1 1.65 1 3.3 1 5 C6.61 5.33 12.22 5.66 18 6 C18 16.89 18 27.78 18 39 C17.67 39 17.34 39 17 39 C16.97494385 38.13721436 16.9498877 37.27442871 16.92407227 36.38549805 C16.82888615 33.18176231 16.72965556 29.97818463 16.62768555 26.7746582 C16.58439782 25.38864017 16.54271836 24.00257094 16.50268555 22.61645508 C16.44483416 20.62308202 16.38070224 18.62989435 16.31640625 16.63671875 C16.27974854 15.43748779 16.24309082 14.23825684 16.20532227 13.00268555 C16.12266975 9.95005651 16.12266975 9.95005651 15 7 C10.05 7 5.1 7 0 7 C0 4.69 0 2.38 0 0 Z " fill="#8AABAA" transform="translate(31,30)"/>
<path d="M0 0 C0.99 0 1.98 0 3 0 C3 6.27 3 12.54 3 19 C2.01 19 1.02 19 0 19 C0 12.73 0 6.46 0 0 Z " fill="#6C3402" transform="translate(82,102)"/>
<path d="M0 0 C0.33 1.32 0.66 2.64 1 4 C2.65 4 4.3 4 6 4 C6 9.28 6 14.56 6 20 C5.01 20 4.02 20 3 20 C3 15.38 3 10.76 3 6 C2.01 5.67 1.02 5.34 0 5 C0 3.35 0 1.7 0 0 Z " fill="#A6815F" transform="translate(5,80)"/>
<path d="M0 0 C0.66 0 1.32 0 2 0 C2 6.6 2 13.2 2 20 C0.35 20.33 -1.3 20.66 -3 21 C-3 20.34 -3 19.68 -3 19 C-2.01 19 -1.02 19 0 19 C0 12.73 0 6.46 0 0 Z " fill="#7C512C" transform="translate(85,102)"/>
<path d="M0 0 C3.63 0 7.26 0 11 0 C11 1.65 11 3.3 11 5 C12.65 5 14.3 5 16 5 C16 5.66 16 6.32 16 7 C13.36 7 10.72 7 8 7 C8 5.35 8 3.7 8 2 C5.36 2 2.72 2 0 2 C0 1.34 0 0.68 0 0 Z " fill="#ADD5D3" transform="translate(34,1)"/>
<path d="M0 0 C0.99 0 1.98 0 3 0 C3 4.95 3 9.9 3 15 C2.01 15 1.02 15 0 15 C0 10.05 0 5.1 0 0 Z " fill="#FDD8B3" transform="translate(34,97)"/>
<path d="M0 0 C1.32 0.33 2.64 0.66 4 1 C4 4.3 4 7.6 4 11 C2.68 11 1.36 11 0 11 C0 7.37 0 3.74 0 0 Z " fill="#6E3706" transform="translate(12,85)"/>
<path d="M0 0 C1.65 0 3.3 0 5 0 C4.67 3.3 4.34 6.6 4 10 C2.68 10 1.36 10 0 10 C0 6.7 0 3.4 0 0 Z " fill="#EDA864" transform="translate(38,69)"/>
<path d="M0 0 C3.96 0 7.92 0 12 0 C12 2.31 12 4.62 12 7 C11.67 5.68 11.34 4.36 11 3 C7.37 3 3.74 3 0 3 C0 2.01 0 1.02 0 0 Z " fill="#D6E6E7" transform="translate(19,30)"/>
<path d="M0 0 C0.66 0 1.32 0 2 0 C2 2.97 2 5.94 2 9 C2.99 9 3.98 9 5 9 C5 6.36 5 3.72 5 1 C5.33 1 5.66 1 6 1 C6 4.3 6 7.6 6 11 C4.02 11 2.04 11 0 11 C0 7.37 0 3.74 0 0 Z " fill="#F7CB9E" transform="translate(32,68)"/>
<path d="M0 0 C2.43357796 2.43357796 2.41100776 3.51498869 2.75 6.875 C2.84796875 7.73867187 2.9459375 8.60234375 3.046875 9.4921875 C2.99583479 12.22283899 2.39884193 13.68653065 1 16 C-0.65 16 -2.3 16 -4 16 C-2.68 15.67 -1.36 15.34 0 15 C0 10.05 0 5.1 0 0 Z " fill="#9D7A5E" transform="translate(97,69)"/>
<path d="M0 0 C1.32 0 2.64 0 4 0 C4 0.66 4 1.32 4 2 C5.32 2 6.64 2 8 2 C8 8.6 8 15.2 8 22 C7.67 22 7.34 22 7 22 C7 15.73 7 9.46 7 3 C4.69 3 2.38 3 0 3 C0 2.01 0 1.02 0 0 Z " fill="#CCAC8F" transform="translate(8,100)"/>
<path d="M0 0 C0 0.66 0 1.32 0 2 C-0.66 2 -1.32 2 -2 2 C-2.33 2.99 -2.66 3.98 -3 5 C-4.32 5 -5.64 5 -7 5 C-7 5.66 -7 6.32 -7 7 C-7.66 7 -8.32 7 -9 7 C-9 5.35 -9 3.7 -9 2 C-5.62902617 0.50178941 -3.79557881 0 0 0 Z " fill="#D0BFAE" transform="translate(91,121)"/>
<path d="M0 0 C2.64 0 5.28 0 8 0 C8 1.32 8 2.64 8 4 C5.36 4 2.72 4 0 4 C0 2.68 0 1.36 0 0 Z " fill="#964F07" transform="translate(23,123)"/>
<path d="M0 0 C0.33 0 0.66 0 1 0 C1 3.63 1 7.26 1 11 C2.32 11 3.64 11 5 11 C5 12.32 5 13.64 5 15 C3.35 15 1.7 15 0 15 C0 10.05 0 5.1 0 0 Z " fill="#8E521D" transform="translate(11,85)"/>
<path d="M0 0 C1.98 0 3.96 0 6 0 C6 1.65 6 3.3 6 5 C4.02 5 2.04 5 0 5 C0 3.35 0 1.7 0 0 Z " fill="#99500C" transform="translate(43,123)"/>
<path d="M0 0 C1.98 0 3.96 0 6 0 C6 1.98 6 3.96 6 6 C5.01 6 4.02 6 3 6 C3 5.01 3 4.02 3 3 C2.01 3 1.02 3 0 3 C0 2.01 0 1.02 0 0 Z " fill="#CEAB8C" transform="translate(16,123)"/>
<path d="M0 0 C1.98 0 3.96 0 6 0 C6 1.32 6 2.64 6 4 C8.97 4 11.94 4 15 4 C15 4.33 15 4.66 15 5 C11.04 5 7.08 5 3 5 C3 3.68 3 2.36 3 1 C2.01 0.67 1.02 0.34 0 0 Z " fill="#86B5B4" transform="translate(16,25)"/>
<path d="M0 0 C1.65 0 3.3 0 5 0 C5 1.32 5 2.64 5 4 C3.35 4 1.7 4 0 4 C0 2.68 0 1.36 0 0 Z " fill="#0C4243" transform="translate(65,36)"/>
<path d="M0 0 C1.65 0 3.3 0 5 0 C5 1.32 5 2.64 5 4 C3.35 4 1.7 4 0 4 C0 2.68 0 1.36 0 0 Z " fill="#258280" transform="translate(60,26)"/>
<path d="M0 0 C1.65 0 3.3 0 5 0 C5 1.32 5 2.64 5 4 C3.35 4 1.7 4 0 4 C0 2.68 0 1.36 0 0 Z " fill="#136A68" transform="translate(22,25)"/>
</svg>
