<?xml version="1.0" encoding="UTF-8"?>
<svg version="1.1" xmlns="http://www.w3.org/2000/svg" width="100" height="160">
<path d="M0 0 C3.63 0 7.26 0 11 0 C11 1.98 11 3.96 11 6 C9.35 6.33 7.7 6.66 6 7 C6 8.65 6 10.3 6 12 C4.35 12 2.7 12 1 12 C1 16.62 1 21.24 1 26 C2.32 26 3.64 26 5 26 C5 24.35 5 22.7 5 21 C6.32 20.67 7.64 20.34 9 20 C9.33 18.35 9.66 16.7 10 15 C13.63 15 17.26 15 21 15 C21.495 17.475 21.495 17.475 22 20 C23.65 20.33 25.3 20.66 27 21 C27 24.96 27 28.92 27 33 C25.35 33 23.7 33 22 33 C22 34.32 22 35.64 22 37 C16.39 37 10.78 37 5 37 C5 35.68 5 34.36 5 33 C3.68 33 2.36 33 1 33 C1 42.57 1 52.14 1 62 C2.32 62 3.64 62 5 62 C5 60.35 5 58.7 5 57 C6.32 57 7.64 57 9 57 C9.33 55.35 9.66 53.7 10 52 C11.65 52 13.3 52 15 52 C15 50.35 15 48.7 15 47 C16.12148437 47.01740234 16.12148437 47.01740234 17.265625 47.03515625 C18.25046875 47.04417969 19.2353125 47.05320313 20.25 47.0625 C21.22453125 47.07410156 22.1990625 47.08570313 23.203125 47.09765625 C25.66199607 47.01180181 27.63809649 46.6013103 30 46 C31 47 31 47 31.0625 49.5625 C31.041875 50.366875 31.02125 51.17125 31 52 C31.804375 51.979375 32.60875 51.95875 33.4375 51.9375 C36 52 36 52 37 53 C37.09975032 55.51136104 37.13882183 57.98903415 37.125 60.5 C37.12886719 61.20253906 37.13273437 61.90507813 37.13671875 62.62890625 C37.12661378 67.87338622 37.12661378 67.87338622 36 69 C34.33382885 69.04063832 32.66611905 69.042721 31 69 C31.33 69.99 31.66 70.98 32 72 C31.34 72.99 30.68 73.98 30 75 C27.95288086 75.35644531 27.95288086 75.35644531 25.46484375 75.328125 C24.12776367 75.32039063 24.12776367 75.32039063 22.76367188 75.3125 C21.83103516 75.291875 20.89839844 75.27125 19.9375 75.25 C19.00099609 75.24484375 18.06449219 75.2396875 17.09960938 75.234375 C10.15390339 75.15390339 10.15390339 75.15390339 9 74 C8.95936168 72.33382885 8.957279 70.66611905 9 69 C6.36 69 3.72 69 1 69 C1 79.23 1 89.46 1 100 C1.99 99.67 2.98 99.34 4 99 C6.86512985 98.90277124 9.70524493 98.86005031 12.5703125 98.8671875 C13.40714569 98.86623077 14.24397888 98.86527405 15.10617065 98.86428833 C16.8730273 98.86360827 18.63988645 98.86545043 20.40673828 98.86962891 C23.12147577 98.87499304 25.83604882 98.86967117 28.55078125 98.86328125 C30.26562537 98.8639418 31.98046938 98.86522248 33.6953125 98.8671875 C34.51194366 98.86516327 35.32857483 98.86313904 36.16995239 98.86105347 C41.88504036 98.88504036 41.88504036 98.88504036 43 100 C43.09975032 102.51136104 43.13882183 104.98903415 43.125 107.5 C43.12886719 108.20253906 43.13273437 108.90507813 43.13671875 109.62890625 C43.12661378 114.87338622 43.12661378 114.87338622 42 116 C40.33382885 116.04063832 38.66611905 116.042721 37 116 C37.01160156 117.07121094 37.02320312 118.14242187 37.03515625 119.24609375 C37.04453299 120.64322743 37.05363331 122.04036299 37.0625 123.4375 C37.07087891 124.14455078 37.07925781 124.85160156 37.08789062 125.58007812 C37.09653588 127.38693559 37.05220011 129.19387603 37 131 C36.67 131.33 36.34 131.66 36 132 C34.35 132 32.7 132 31 132 C31 138.6 31 145.2 31 152 C29.68 152 28.36 152 27 152 C27 153.98 27 155.96 27 158 C19.32463373 158.02312821 11.64927104 158.04091753 3.97387791 158.05181217 C0.41022578 158.05703995 -3.15340257 158.06413569 -6.71704102 158.07543945 C-10.81006097 158.08834176 -14.9030558 158.09322906 -18.99609375 158.09765625 C-20.92418129 158.10539818 -20.92418129 158.10539818 -22.89122009 158.11329651 C-24.66294334 158.11340981 -24.66294334 158.11340981 -26.47045898 158.11352539 C-27.51636703 158.115746 -28.56227509 158.11796661 -29.63987732 158.12025452 C-32 158 -32 158 -33 157 C-33.04063832 155.33382885 -33.042721 153.66611905 -33 152 C-33.639375 152.185625 -34.27875 152.37125 -34.9375 152.5625 C-35.9584375 152.7790625 -35.9584375 152.7790625 -37 153 C-38 152 -38 152 -38.11352539 149.95874023 C-38.10828857 149.08419189 -38.10305176 148.20964355 -38.09765625 147.30859375 C-38.09443359 146.36435547 -38.09121094 145.42011719 -38.08789062 144.44726562 C-38.07951172 143.45404297 -38.07113281 142.46082031 -38.0625 141.4375 C-38.05798828 140.44041016 -38.05347656 139.44332031 -38.04882812 138.41601562 C-38.03700007 135.94395151 -38.02051849 133.47200482 -38 131 C-38.99 131.33 -39.98 131.66 -41 132 C-42 131 -42 131 -42.09765625 127.62109375 C-42.09098369 126.22652923 -42.07902532 124.83198257 -42.0625 123.4375 C-42.05798828 122.72658203 -42.05347656 122.01566406 -42.04882812 121.28320312 C-42.03700864 119.52209987 -42.01907263 117.76103964 -42 116 C-43.98 116 -45.96 116 -48 116 C-48 110.72 -48 105.44 -48 100 C-43.41671544 99.08334309 -39.26712319 98.8708309 -34.63671875 98.90234375 C-33.93405884 98.90335083 -33.23139893 98.90435791 -32.50744629 98.90539551 C-29.90078075 98.91059899 -27.29413861 98.92456013 -24.6875 98.9375 C-18.850625 98.958125 -13.01375 98.97875 -7 99 C-6.67 84.15 -6.34 69.3 -6 54 C-8.97 54 -11.94 54 -15 54 C-15.33 55.32 -15.66 56.64 -16 58 C-26.395 58.495 -26.395 58.495 -37 59 C-37.33 57.35 -37.66 55.7 -38 54 C-39.32 53.67 -40.64 53.34 -42 53 C-42 47.39 -42 41.78 -42 36 C-40.35 36 -38.7 36 -37 36 C-36.67 34.68 -36.34 33.36 -36 32 C-31.05 31.67 -26.1 31.34 -21 31 C-20.67 32.65 -20.34 34.3 -20 36 C-18.68 36 -17.36 36 -16 36 C-15.505 38.475 -15.505 38.475 -15 41 C-13.35 41.33 -11.7 41.66 -10 42 C-9.505 43.98 -9.505 43.98 -9 46 C-8.34 46 -7.68 46 -7 46 C-6.67 38.08 -6.34 30.16 -6 22 C-9.63 22 -13.26 22 -17 22 C-17 20.35 -17 18.7 -17 17 C-18.32 16.67 -19.64 16.34 -21 16 C-21 12.37 -21 8.74 -21 5 C-15.72 5 -10.44 5 -5 5 C-4.505 7.475 -4.505 7.475 -4 10 C-3.34 10 -2.68 10 -2 10 C-1.34 6.7 -0.68 3.4 0 0 Z " fill="#278986" transform="translate(54,2)"/>
<path d="M0 0 C13.2 0 26.4 0 40 0 C40 4.62 40 9.24 40 14 C38.35 14 36.7 14 35 14 C35 18.95 35 23.9 35 29 C33.35 29 31.7 29 30 29 C30 36.26 30 43.52 30 51 C28.68 51 27.36 51 26 51 C26 52.65 26 54.3 26 56 C13.46 56 0.92 56 -12 56 C-12 54.02 -12 52.04 -12 50 C-5.07 50 1.86 50 9 50 C9 41.42 9 32.84 9 24 C-6.51 24 -22.02 24 -38 24 C-38 25.65 -38 27.3 -38 29 C-39.32 29 -40.64 29 -42 29 C-42 24.05 -42 19.1 -42 14 C-43.65 14 -45.3 14 -47 14 C-47 12.35 -47 10.7 -47 9 C-28.52 9 -10.04 9 9 9 C9 7.02 9 5.04 9 3 C6.03 3 3.06 3 0 3 C0 2.01 0 1.02 0 0 Z " fill="#924B06" transform="translate(55,103)"/>
<path d="M0 0 C3.3 0 6.6 0 10 0 C10 1.65 10 3.3 10 5 C16.6 5 23.2 5 30 5 C30 3.35 30 1.7 30 0 C31.98 0 33.96 0 36 0 C36 0.33 36 0.66 36 1 C34.35 1 32.7 1 31 1 C31.495 2.485 31.495 2.485 32 4 C31.34 4.99 30.68 5.98 30 7 C27.95288086 7.35644531 27.95288086 7.35644531 25.46484375 7.328125 C24.12776367 7.32039063 24.12776367 7.32039063 22.76367188 7.3125 C21.83103516 7.291875 20.89839844 7.27125 19.9375 7.25 C19.00099609 7.24484375 18.06449219 7.2396875 17.09960938 7.234375 C10.15390339 7.15390339 10.15390339 7.15390339 9 6 C8.95936168 4.33382885 8.957279 2.66611905 9 1 C6.36 1 3.72 1 1 1 C1 11.23 1 21.46 1 32 C1.99 31.67 2.98 31.34 4 31 C6.86512985 30.90277124 9.70524493 30.86005031 12.5703125 30.8671875 C13.40714569 30.86623077 14.24397888 30.86527405 15.10617065 30.86428833 C16.8730273 30.86360827 18.63988645 30.86545043 20.40673828 30.86962891 C23.12147577 30.87499304 25.83604882 30.86967117 28.55078125 30.86328125 C30.26562537 30.8639418 31.98046938 30.86522248 33.6953125 30.8671875 C34.51194366 30.86516327 35.32857483 30.86313904 36.16995239 30.86105347 C41.88504036 30.88504036 41.88504036 30.88504036 43 32 C43.09975032 34.51136104 43.13882183 36.98903415 43.125 39.5 C43.12886719 40.20253906 43.13273437 40.90507813 43.13671875 41.62890625 C43.12661378 46.87338622 43.12661378 46.87338622 42 48 C40.33382885 48.04063832 38.66611905 48.042721 37 48 C37.01160156 49.07121094 37.02320312 50.14242187 37.03515625 51.24609375 C37.04453299 52.64322743 37.05363331 54.04036299 37.0625 55.4375 C37.07087891 56.14455078 37.07925781 56.85160156 37.08789062 57.58007812 C37.09653588 59.38693559 37.05220011 61.19387603 37 63 C36 64 36 64 33.4375 64.0625 C32.633125 64.041875 31.82875 64.02125 31 64 C31 63.34 31 62.68 31 62 C32.65 62 34.3 62 36 62 C36 57.05 36 52.1 36 47 C37.65 47 39.3 47 41 47 C41 42.38 41 37.76 41 33 C27.8 33 14.6 33 1 33 C1 33.99 1 34.98 1 36 C3.97 36 6.94 36 10 36 C10 37.98 10 39.96 10 42 C-8.48 42 -26.96 42 -46 42 C-46 43.65 -46 45.3 -46 47 C-44.35 47 -42.7 47 -41 47 C-41 51.95 -41 56.9 -41 62 C-39.68 62 -38.36 62 -37 62 C-37 60.35 -37 58.7 -37 57 C-21.49 57 -5.98 57 10 57 C10 65.58 10 74.16 10 83 C3.07 83 -3.86 83 -11 83 C-11 84.98 -11 86.96 -11 89 C1.54 89 14.08 89 27 89 C27 89.33 27 89.66 27 90 C19.32463373 90.02312821 11.64927104 90.04091753 3.97387791 90.05181217 C0.41022578 90.05703995 -3.15340257 90.06413569 -6.71704102 90.07543945 C-10.81006097 90.08834176 -14.9030558 90.09322906 -18.99609375 90.09765625 C-20.92418129 90.10539818 -20.92418129 90.10539818 -22.89122009 90.11329651 C-24.66294334 90.11340981 -24.66294334 90.11340981 -26.47045898 90.11352539 C-28.03932106 90.11685631 -28.03932106 90.11685631 -29.63987732 90.12025452 C-32 90 -32 90 -33 89 C-33.04063832 87.33382885 -33.042721 85.66611905 -33 84 C-33.639375 84.185625 -34.27875 84.37125 -34.9375 84.5625 C-35.9584375 84.7790625 -35.9584375 84.7790625 -37 85 C-38 84 -38 84 -38.11352539 81.95874023 C-38.10828857 81.08419189 -38.10305176 80.20964355 -38.09765625 79.30859375 C-38.09443359 78.36435547 -38.09121094 77.42011719 -38.08789062 76.44726562 C-38.07951172 75.45404297 -38.07113281 74.46082031 -38.0625 73.4375 C-38.05798828 72.44041016 -38.05347656 71.44332031 -38.04882812 70.41601562 C-38.03700007 67.94395151 -38.02051849 65.47200482 -38 63 C-39.485 63.495 -39.485 63.495 -41 64 C-42 63 -42 63 -42.09765625 59.62109375 C-42.09098369 58.22652923 -42.07902532 56.83198257 -42.0625 55.4375 C-42.05798828 54.72658203 -42.05347656 54.01566406 -42.04882812 53.28320312 C-42.03700864 51.52209987 -42.01907263 49.76103964 -42 48 C-43.98 48 -45.96 48 -48 48 C-48 42.72 -48 37.44 -48 32 C-43.59362825 31.11872565 -39.62780147 30.85447878 -35.1796875 30.8671875 C-34.06897385 30.86575241 -34.06897385 30.86575241 -32.93582153 30.86428833 C-31.37762364 30.8636104 -29.81942287 30.86543762 -28.26123047 30.86962891 C-25.87591234 30.87499795 -23.49078118 30.86966303 -21.10546875 30.86328125 C-19.58854125 30.8639418 -18.07161387 30.86522249 -16.5546875 30.8671875 C-15.48587845 30.86415115 -15.48587845 30.86415115 -14.39547729 30.86105347 C-11.32028097 30.87564465 -8.94137945 31.01954018 -6 32 C-4.02 32 -2.04 32 0 32 C0 21.44 0 10.88 0 0 Z " fill="#D48232" transform="translate(54,70)"/>
<path d="M0 0 C3.3 0 6.6 0 10 0 C10 1.65 10 3.3 10 5 C16.6 5 23.2 5 30 5 C30 3.35 30 1.7 30 0 C31.98 0 33.96 0 36 0 C36 0.33 36 0.66 36 1 C34.35 1 32.7 1 31 1 C31.495 2.485 31.495 2.485 32 4 C31.34 4.99 30.68 5.98 30 7 C27.95288086 7.35644531 27.95288086 7.35644531 25.46484375 7.328125 C24.12776367 7.32039063 24.12776367 7.32039063 22.76367188 7.3125 C21.83103516 7.291875 20.89839844 7.27125 19.9375 7.25 C19.00099609 7.24484375 18.06449219 7.2396875 17.09960938 7.234375 C10.15390339 7.15390339 10.15390339 7.15390339 9 6 C8.95936168 4.33382885 8.957279 2.66611905 9 1 C6.36 1 3.72 1 1 1 C1 11.23 1 21.46 1 32 C1.99 31.67 2.98 31.34 4 31 C6.86512985 30.90277124 9.70524493 30.86005031 12.5703125 30.8671875 C13.40714569 30.86623077 14.24397888 30.86527405 15.10617065 30.86428833 C16.8730273 30.86360827 18.63988645 30.86545043 20.40673828 30.86962891 C23.12147577 30.87499304 25.83604882 30.86967117 28.55078125 30.86328125 C30.26562537 30.8639418 31.98046938 30.86522248 33.6953125 30.8671875 C34.51194366 30.86516327 35.32857483 30.86313904 36.16995239 30.86105347 C41.88504036 30.88504036 41.88504036 30.88504036 43 32 C43.09975032 34.51136104 43.13882183 36.98903415 43.125 39.5 C43.12886719 40.20253906 43.13273437 40.90507813 43.13671875 41.62890625 C43.12661378 46.87338622 43.12661378 46.87338622 42 48 C40.33382885 48.04063832 38.66611905 48.042721 37 48 C37.01160156 49.07121094 37.02320312 50.14242187 37.03515625 51.24609375 C37.04453299 52.64322743 37.05363331 54.04036299 37.0625 55.4375 C37.07087891 56.14455078 37.07925781 56.85160156 37.08789062 57.58007812 C37.09653588 59.38693559 37.05220011 61.19387603 37 63 C36 64 36 64 33.4375 64.0625 C32.633125 64.041875 31.82875 64.02125 31 64 C31 63.34 31 62.68 31 62 C32.65 62 34.3 62 36 62 C36 57.05 36 52.1 36 47 C37.65 47 39.3 47 41 47 C41 42.38 41 37.76 41 33 C27.8 33 14.6 33 1 33 C1 33.99 1 34.98 1 36 C3.97 36 6.94 36 10 36 C10 37.98 10 39.96 10 42 C-8.48 42 -26.96 42 -46 42 C-46 43.65 -46 45.3 -46 47 C-44.35 47 -42.7 47 -41 47 C-41 51.95 -41 56.9 -41 62 C-39.68 62 -38.36 62 -37 62 C-37 68.93 -37 75.86 -37 83 C-35.35 83 -33.7 83 -32 83 C-32 84.98 -32 86.96 -32 89 C-32.33 89 -32.66 89 -33 89 C-33 87.35 -33 85.7 -33 84 C-33.639375 84.185625 -34.27875 84.37125 -34.9375 84.5625 C-35.9584375 84.7790625 -35.9584375 84.7790625 -37 85 C-38 84 -38 84 -38.11352539 81.95874023 C-38.10828857 81.08419189 -38.10305176 80.20964355 -38.09765625 79.30859375 C-38.09443359 78.36435547 -38.09121094 77.42011719 -38.08789062 76.44726562 C-38.07951172 75.45404297 -38.07113281 74.46082031 -38.0625 73.4375 C-38.05798828 72.44041016 -38.05347656 71.44332031 -38.04882812 70.41601562 C-38.03700007 67.94395151 -38.02051849 65.47200482 -38 63 C-39.485 63.495 -39.485 63.495 -41 64 C-42 63 -42 63 -42.09765625 59.62109375 C-42.09098369 58.22652923 -42.07902532 56.83198257 -42.0625 55.4375 C-42.05798828 54.72658203 -42.05347656 54.01566406 -42.04882812 53.28320312 C-42.03700864 51.52209987 -42.01907263 49.76103964 -42 48 C-43.98 48 -45.96 48 -48 48 C-48 42.72 -48 37.44 -48 32 C-43.59362825 31.11872565 -39.62780147 30.85447878 -35.1796875 30.8671875 C-34.06897385 30.86575241 -34.06897385 30.86575241 -32.93582153 30.86428833 C-31.37762364 30.8636104 -29.81942287 30.86543762 -28.26123047 30.86962891 C-25.87591234 30.87499795 -23.49078118 30.86966303 -21.10546875 30.86328125 C-19.58854125 30.8639418 -18.07161387 30.86522249 -16.5546875 30.8671875 C-15.48587845 30.86415115 -15.48587845 30.86415115 -14.39547729 30.86105347 C-11.32028097 30.87564465 -8.94137945 31.01954018 -6 32 C-4.02 32 -2.04 32 0 32 C0 21.44 0 10.88 0 0 Z " fill="#E9A159" transform="translate(54,70)"/>
<path d="M0 0 C0 5.28 0 10.56 0 16 C1.98 16 3.96 16 6 16 C6 14.35 6 12.7 6 11 C7.32 11 8.64 11 10 11 C10 9.68 10 8.36 10 7 C11.65 7 13.3 7 15 7 C15 8.32 15 9.64 15 11 C20.28 11 25.56 11 31 11 C31 9.68 31 8.36 31 7 C32.65 7 34.3 7 36 7 C36 11.62 36 16.24 36 21 C34.02 21 32.04 21 30 21 C30 22.65 30 24.3 30 26 C23.4 26 16.8 26 10 26 C10 24.35 10 22.7 10 21 C6.7 21 3.4 21 0 21 C0 31.56 0 42.12 0 53 C-1.65 53 -3.3 53 -5 53 C-5 37.49 -5 21.98 -5 6 C-8.63 5.67 -12.26 5.34 -16 5 C-16 3.68 -16 2.36 -16 1 C-14.27111445 0.83044205 -12.54187557 0.66448486 -10.8125 0.5 C-9.84957031 0.4071875 -8.88664062 0.314375 -7.89453125 0.21875 C-5.26949639 0.0203668 -2.63252045 0 0 0 Z " fill="#08605D" transform="translate(54,49)"/>
<path d="M0 0 C13.2 0 26.4 0 40 0 C40 4.62 40 9.24 40 14 C38.35 14 36.7 14 35 14 C35 15.98 35 17.96 35 20 C33.35 20 31.7 20 30 20 C30 18.02 30 16.04 30 14 C16.14 14 2.28 14 -12 14 C-12 12.35 -12 10.7 -12 9 C-5.07 9 1.86 9 9 9 C9 7.02 9 5.04 9 3 C6.03 3 3.06 3 0 3 C0 2.01 0 1.02 0 0 Z " fill="#683302" transform="translate(55,103)"/>
<path d="M0 0 C2.413125 -0.04125 4.82625 -0.0825 7.3125 -0.125 C8.06829346 -0.14320801 8.82408691 -0.16141602 9.6027832 -0.18017578 C13.31447871 -0.21099473 14.83533664 -0.10977558 18 2 C18.66 1.34 19.32 0.68 20 0 C21.32 0 22.64 0 24 0 C24 1.98 24 3.96 24 6 C25.65 6 27.3 6 29 6 C29.33 7.65 29.66 9.3 30 11 C28.35 11 26.7 11 25 11 C25 12.32 25 13.64 25 15 C30.445 15.495 30.445 15.495 36 16 C36 31.51 36 47.02 36 63 C35.01 63.495 35.01 63.495 34 64 C34.33 48.49 34.66 32.98 35 17 C32.03 17 29.06 17 26 17 C25.67 18.32 25.34 19.64 25 21 C14.605 21.495 14.605 21.495 4 22 C3.67 20.35 3.34 18.7 3 17 C2.01 17 1.02 17 0 17 C0 11.39 0 5.78 0 0 Z " fill="#38928F" transform="translate(13,39)"/>
<path d="M0 0 C5.28 0 10.56 0 16 0 C16.33 10.56 16.66 21.12 17 32 C13.04 32 9.08 32 5 32 C5 30.02 5 28.04 5 26 C3.35 26 1.7 26 0 26 C0 17.42 0 8.84 0 0 Z " fill="#D58132" transform="translate(17,127)"/>
<path d="M0 0 C3.63 0 7.26 0 11 0 C11 1.98 11 3.96 11 6 C9.35 6.33 7.7 6.66 6 7 C6 8.65 6 10.3 6 12 C4.35 12 2.7 12 1 12 C1 16.62 1 21.24 1 26 C2.32 26 3.64 26 5 26 C5 24.35 5 22.7 5 21 C5.33 21 5.66 21 6 21 C6 22.98 6 24.96 6 27 C4.02 27 2.04 27 0 27 C0 22.05 0 17.1 0 12 C-3.63 12 -7.26 12 -11 12 C-11 10.02 -11 8.04 -11 6 C-13.97 6 -16.94 6 -20 6 C-20 8.97 -20 11.94 -20 15 C-18.68 15 -17.36 15 -16 15 C-16 16.98 -16 18.96 -16 21 C-12.37 21 -8.74 21 -5 21 C-5 29.91 -5 38.82 -5 48 C-6.98 48 -8.96 48 -11 48 C-11.495 45.525 -11.495 45.525 -12 43 C-13.65 43 -15.3 43 -17 43 C-17 41.02 -17 39.04 -17 37 C-18.1446875 37.495 -18.1446875 37.495 -19.3125 38 C-22.78480146 39.29201915 -24.48619861 39.17126713 -28 38 C-30.22574335 37.77548542 -32.45581519 37.59217122 -34.6875 37.4375 C-36.770625 37.293125 -38.85375 37.14875 -41 37 C-41 42.28 -41 47.56 -41 53 C-41.33 53 -41.66 53 -42 53 C-42 47.39 -42 41.78 -42 36 C-40.35 36 -38.7 36 -37 36 C-36.67 34.68 -36.34 33.36 -36 32 C-31.05 31.67 -26.1 31.34 -21 31 C-20.67 32.65 -20.34 34.3 -20 36 C-18.68 36 -17.36 36 -16 36 C-15.67 37.65 -15.34 39.3 -15 41 C-13.35 41.33 -11.7 41.66 -10 42 C-9.505 43.98 -9.505 43.98 -9 46 C-8.34 46 -7.68 46 -7 46 C-6.67 38.08 -6.34 30.16 -6 22 C-9.63 22 -13.26 22 -17 22 C-17 20.35 -17 18.7 -17 17 C-18.32 16.67 -19.64 16.34 -21 16 C-21 12.37 -21 8.74 -21 5 C-15.72 5 -10.44 5 -5 5 C-4.505 7.475 -4.505 7.475 -4 10 C-3.34 10 -2.68 10 -2 10 C-1.34 6.7 -0.68 3.4 0 0 Z " fill="#93CECB" transform="translate(54,2)"/>
<path d="M0 0 C3.3 0 6.6 0 10 0 C10 1.65 10 3.3 10 5 C16.6 5 23.2 5 30 5 C30 3.35 30 1.7 30 0 C31.98 0 33.96 0 36 0 C36 0.33 36 0.66 36 1 C34.35 1 32.7 1 31 1 C31.495 2.485 31.495 2.485 32 4 C31.34 4.99 30.68 5.98 30 7 C27.95288086 7.35644531 27.95288086 7.35644531 25.46484375 7.328125 C24.12776367 7.32039063 24.12776367 7.32039063 22.76367188 7.3125 C21.83103516 7.291875 20.89839844 7.27125 19.9375 7.25 C18.53274414 7.24226563 18.53274414 7.24226563 17.09960938 7.234375 C10.15390339 7.15390339 10.15390339 7.15390339 9 6 C8.95936168 4.33382885 8.957279 2.66611905 9 1 C6.36 1 3.72 1 1 1 C1 11.23 1 21.46 1 32 C1.99 31.67 2.98 31.34 4 31 C6.86512985 30.90277124 9.70524493 30.86005031 12.5703125 30.8671875 C13.40714569 30.86623077 14.24397888 30.86527405 15.10617065 30.86428833 C16.8730273 30.86360827 18.63988645 30.86545043 20.40673828 30.86962891 C23.12147577 30.87499304 25.83604882 30.86967117 28.55078125 30.86328125 C30.26562537 30.8639418 31.98046938 30.86522248 33.6953125 30.8671875 C34.51194366 30.86516327 35.32857483 30.86313904 36.16995239 30.86105347 C41.88504036 30.88504036 41.88504036 30.88504036 43 32 C43.09975032 34.51136104 43.13882183 36.98903415 43.125 39.5 C43.13080078 40.55380859 43.13080078 40.55380859 43.13671875 41.62890625 C43.12661378 46.87338622 43.12661378 46.87338622 42 48 C40.33382885 48.04063832 38.66611905 48.042721 37 48 C37.01160156 49.07121094 37.02320313 50.14242187 37.03515625 51.24609375 C37.04453299 52.64322743 37.05363331 54.04036299 37.0625 55.4375 C37.07087891 56.14455078 37.07925781 56.85160156 37.08789062 57.58007812 C37.09653588 59.38693559 37.05220011 61.19387603 37 63 C36 64 36 64 33.4375 64.0625 C32.633125 64.041875 31.82875 64.02125 31 64 C31 63.34 31 62.68 31 62 C32.65 62 34.3 62 36 62 C36 57.05 36 52.1 36 47 C37.65 47 39.3 47 41 47 C41 42.38 41 37.76 41 33 C27.8 33 14.6 33 1 33 C1 33.99 1 34.98 1 36 C3.97 36 6.94 36 10 36 C10 37.98 10 39.96 10 42 C3.07 42 -3.86 42 -11 42 C-11 39.03 -11 36.06 -11 33 C-7.09145257 32.08034178 -4.17664661 32 0 32 C0 21.44 0 10.88 0 0 Z " fill="#BB9362" transform="translate(54,70)"/>
<path d="M0 0 C3.3 0.33 6.6 0.66 10 1 C10 11.23 10 21.46 10 32 C22.54 32 35.08 32 48 32 C48 32.33 48 32.66 48 33 C28.53 33 9.06 33 -11 33 C-11 32.67 -11 32.34 -11 32 C-7.04 32 -3.08 32 1 32 C0.83701416 31.13938965 0.67402832 30.2787793 0.50610352 29.39208984 C0.01560286 26.10457607 -0.11409313 23.04681148 -0.09765625 19.7265625 C-0.09443359 18.57285156 -0.09121094 17.41914063 -0.08789062 16.23046875 C-0.07951172 15.04066406 -0.07113281 13.85085937 -0.0625 12.625 C-0.05798828 11.41199219 -0.05347656 10.19898438 -0.04882812 8.94921875 C-0.03708354 5.96609493 -0.0206584 2.98307321 0 0 Z " fill="#EBB37A" transform="translate(33,127)"/>
<path d="M0 0 C0 5.28 0 10.56 0 16 C1.98 16 3.96 16 6 16 C6 17.65 6 19.3 6 21 C4.02 21 2.04 21 0 21 C0 31.56 0 42.12 0 53 C-1.65 53 -3.3 53 -5 53 C-5 37.49 -5 21.98 -5 6 C-8.63 5.67 -12.26 5.34 -16 5 C-16 3.68 -16 2.36 -16 1 C-14.27111445 0.83044205 -12.54187557 0.66448486 -10.8125 0.5 C-9.84957031 0.4071875 -8.88664062 0.314375 -7.89453125 0.21875 C-5.26949639 0.0203668 -2.63252045 0 0 0 Z " fill="#083B39" transform="translate(54,49)"/>
<path d="M0 0 C0.33 0 0.66 0 1 0 C1 3.96 1 7.92 1 12 C-0.65 12 -2.3 12 -4 12 C-4 13.32 -4 14.64 -4 16 C-9.61 16 -15.22 16 -21 16 C-21 14.68 -21 13.36 -21 12 C-22.32 12 -23.64 12 -25 12 C-25 21.57 -25 31.14 -25 41 C-23.68 41 -22.36 41 -21 41 C-21 39.35 -21 37.7 -21 36 C-19.68 36 -18.36 36 -17 36 C-16.67 34.35 -16.34 32.7 -16 31 C-14.35 31 -12.7 31 -11 31 C-11 29.35 -11 27.7 -11 26 C-9.87851563 26.01740234 -9.87851563 26.01740234 -8.734375 26.03515625 C-7.74953125 26.04417969 -6.7646875 26.05320312 -5.75 26.0625 C-4.77546875 26.07410156 -3.8009375 26.08570312 -2.796875 26.09765625 C-0.33800393 26.01180181 1.63809649 25.6013103 4 25 C5 26 5 26 5.0625 28.5625 C5.041875 29.366875 5.02125 30.17125 5 31 C6.2065625 30.9690625 6.2065625 30.9690625 7.4375 30.9375 C10 31 10 31 11 32 C11.07313567 34.53049402 11.09247527 37.03304837 11.0625 39.5625 C11.05798828 40.27341797 11.05347656 40.98433594 11.04882812 41.71679688 C11.03700864 43.47790013 11.01907263 45.23896036 11 47 C10.67 47 10.34 47 10 47 C10 42.38 10 37.76 10 33 C8.35 33 6.7 33 5 33 C5 34.32 5 35.64 5 37 C-0.28 37 -5.56 37 -11 37 C-11 35.68 -11 34.36 -11 33 C-12.65 33 -14.3 33 -16 33 C-16 34.32 -16 35.64 -16 37 C-17.32 37 -18.64 37 -20 37 C-20 38.65 -20 40.3 -20 42 C-21.98 42 -23.96 42 -26 42 C-26 31.77 -26 21.54 -26 11 C-24.02 11 -22.04 11 -20 11 C-20 12.32 -20 13.64 -20 15 C-15.05 15 -10.1 15 -5 15 C-5 13.68 -5 12.36 -5 11 C-3.35 11 -1.7 11 0 11 C0 7.37 0 3.74 0 0 Z " fill="#7DB1B0" transform="translate(80,23)"/>
<path d="M0 0 C1.77049689 -0.05410687 3.54146849 -0.09284119 5.3125 -0.125 C6.29863281 -0.14820313 7.28476562 -0.17140625 8.30078125 -0.1953125 C11 0 11 0 14 2 C14.66 1.34 15.32 0.68 16 0 C17.32 0 18.64 0 20 0 C20 1.98 20 3.96 20 6 C21.65 6 23.3 6 25 6 C25.33 7.65 25.66 9.3 26 11 C24.35 11 22.7 11 21 11 C21 12.32 21 13.64 21 15 C26.445 15.495 26.445 15.495 32 16 C32 31.51 32 47.02 32 63 C31.01 63.495 31.01 63.495 30 64 C30.33 48.49 30.66 32.98 31 17 C28.03 17 25.06 17 22 17 C22 17.99 22 18.98 22 20 C21.34 20 20.68 20 20 20 C20 18.68 20 17.36 20 16 C13.4 16.33 6.8 16.66 0 17 C0 16.34 0 15.68 0 15 C6.6 15 13.2 15 20 15 C19.67 13.35 19.34 11.7 19 10 C17.68 9.67 16.36 9.34 15 9 C15 8.34 15 7.68 15 7 C10.38 7 5.76 7 1 7 C0.67 4.69 0.34 2.38 0 0 Z " fill="#509694" transform="translate(17,39)"/>
<path d="M0 0 C3.63 0 7.26 0 11 0 C11.33 1.65 11.66 3.3 12 5 C13.32 5 14.64 5 16 5 C16 5.66 16 6.32 16 7 C14.35 7 12.7 7 11 7 C11 8.65 11 10.3 11 12 C9.02 12 7.04 12 5 12 C5 13.65 5 15.3 5 17 C-1.15234375 17.09765625 -1.15234375 17.09765625 -3 17 C-4 16 -4 16 -4.09765625 13.49609375 C-4.08605469 12.48675781 -4.07445312 11.47742188 -4.0625 10.4375 C-4.05347656 9.42558594 -4.04445312 8.41367187 -4.03515625 7.37109375 C-4.02355469 6.58863281 -4.01195312 5.80617188 -4 5 C-3.01 5 -2.02 5 -1 5 C-0.67 3.35 -0.34 1.7 0 0 Z " fill="#268885" transform="translate(64,17)"/>
<path d="M0 0 C1.65 0 3.3 0 5 0 C6 1 6 1 6.11352539 2.94946289 C6.10828857 3.7821167 6.10305176 4.61477051 6.09765625 5.47265625 C6.09443359 6.37177734 6.09121094 7.27089844 6.08789062 8.19726562 C6.07951172 9.14279297 6.07113281 10.08832031 6.0625 11.0625 C6.05798828 12.01189453 6.05347656 12.96128906 6.04882812 13.93945312 C6.03700128 16.29299531 6.01906521 18.64650532 6 21 C9.63 21 13.26 21 17 21 C17 22.98 17 24.96 17 27 C13.04 27 9.08 27 5 27 C5 25.02 5 23.04 5 21 C3.35 21 1.7 21 0 21 C0 14.07 0 7.14 0 0 Z " fill="#964E09" transform="translate(17,132)"/>
<path d="M0 0 C12.21 0 24.42 0 37 0 C37 1.65 37 3.3 37 5 C24.79 5 12.58 5 0 5 C0 3.35 0 1.7 0 0 Z " fill="#683302" transform="translate(43,153)"/>
<path d="M0 0 C1.65 0 3.3 0 5 0 C5 3.3 5 6.6 5 10 C3.35 10 1.7 10 0 10 C0 11.32 0 12.64 0 14 C-4.95 14 -9.9 14 -15 14 C-15 12.68 -15 11.36 -15 10 C-16.98 10 -18.96 10 -21 10 C-21 8.35 -21 6.7 -21 5 C-19.02 5 -17.04 5 -15 5 C-14.67 6.32 -14.34 7.64 -14 9 C-11.36 9.33 -8.72 9.66 -6 10 C-6 8.35 -6 6.7 -6 5 C-4.02 5 -2.04 5 0 5 C0 3.35 0 1.7 0 0 Z " fill="#085F5D" transform="translate(75,24)"/>
<path d="M0 0 C1.19689453 -0.00128906 2.39378906 -0.00257812 3.62695312 -0.00390625 C4.88830078 -0.00003906 6.14964844 0.00382812 7.44921875 0.0078125 C9.32383789 0.00201172 9.32383789 0.00201172 11.23632812 -0.00390625 C13.0374707 -0.00197266 13.0374707 -0.00197266 14.875 0 C15.97884033 0.00112793 17.08268066 0.00225586 18.2199707 0.00341797 C21.13671875 0.1328125 21.13671875 0.1328125 25.13671875 1.1328125 C25.13671875 4.1028125 25.13671875 7.0728125 25.13671875 10.1328125 C23.81671875 10.1328125 22.49671875 10.1328125 21.13671875 10.1328125 C21.13671875 7.4928125 21.13671875 4.8528125 21.13671875 2.1328125 C12.22671875 2.1328125 3.31671875 2.1328125 -5.86328125 2.1328125 C-5.86328125 6.7528125 -5.86328125 11.3728125 -5.86328125 16.1328125 C-3.88328125 16.1328125 -1.90328125 16.1328125 0.13671875 16.1328125 C0.13671875 21.0828125 0.13671875 26.0328125 0.13671875 31.1328125 C1.45671875 31.1328125 2.77671875 31.1328125 4.13671875 31.1328125 C4.13671875 38.0628125 4.13671875 44.9928125 4.13671875 52.1328125 C5.78671875 52.1328125 7.43671875 52.1328125 9.13671875 52.1328125 C9.13671875 54.1128125 9.13671875 56.0928125 9.13671875 58.1328125 C8.80671875 58.1328125 8.47671875 58.1328125 8.13671875 58.1328125 C8.13671875 56.4828125 8.13671875 54.8328125 8.13671875 53.1328125 C7.49734375 53.3184375 6.85796875 53.5040625 6.19921875 53.6953125 C5.51859375 53.8396875 4.83796875 53.9840625 4.13671875 54.1328125 C3.13671875 53.1328125 3.13671875 53.1328125 3.02319336 51.09155273 C3.02843018 50.21700439 3.03366699 49.34245605 3.0390625 48.44140625 C3.04228516 47.49716797 3.04550781 46.55292969 3.04882812 45.58007812 C3.05720703 44.58685547 3.06558594 43.59363281 3.07421875 42.5703125 C3.07873047 41.57322266 3.08324219 40.57613281 3.08789062 39.54882812 C3.09971868 37.07676401 3.11620026 34.60481732 3.13671875 32.1328125 C1.65171875 32.6278125 1.65171875 32.6278125 0.13671875 33.1328125 C-0.86328125 32.1328125 -0.86328125 32.1328125 -0.9609375 28.75390625 C-0.95426494 27.35934173 -0.94230657 25.96479507 -0.92578125 24.5703125 C-0.92126953 23.85939453 -0.91675781 23.14847656 -0.91210938 22.41601562 C-0.90028989 20.65491237 -0.88235388 18.89385214 -0.86328125 17.1328125 C-2.84328125 17.1328125 -4.82328125 17.1328125 -6.86328125 17.1328125 C-6.89012804 14.48691236 -6.91004482 11.84128154 -6.92578125 9.1953125 C-6.93416016 8.44056641 -6.94253906 7.68582031 -6.95117188 6.90820312 C-6.95980566 4.98286937 -6.91552458 3.05745669 -6.86328125 1.1328125 C-5.07404294 -0.65642581 -2.41484708 0.00247513 0 0 Z " fill="#E7CDB2" transform="translate(12.86328125,100.8671875)"/>
<path d="M0 0 C0.02710123 2.5625718 0.04688771 5.12485365 0.0625 7.6875 C0.07087891 8.40873047 0.07925781 9.12996094 0.08789062 9.87304688 C0.10543632 13.71555382 -0.06475779 17.26639526 -1 21 C-2.32 21 -3.64 21 -5 21 C-5 16.05 -5 11.1 -5 6 C-8.63 5.67 -12.26 5.34 -16 5 C-16 3.68 -16 2.36 -16 1 C-14.27111445 0.83044205 -12.54187557 0.66448486 -10.8125 0.5 C-9.84957031 0.4071875 -8.88664062 0.314375 -7.89453125 0.21875 C-5.24812333 0.01875156 -2.65239135 -0.03879183 0 0 Z " fill="#146461" transform="translate(54,49)"/>
<path d="M0 0 C3.63 0 7.26 0 11 0 C11 1.98 11 3.96 11 6 C9.35 6.33 7.7 6.66 6 7 C6 8.65 6 10.3 6 12 C4.35 12 2.7 12 1 12 C1 16.62 1 21.24 1 26 C2.32 26 3.64 26 5 26 C5 24.35 5 22.7 5 21 C5.33 21 5.66 21 6 21 C6 22.98 6 24.96 6 27 C4.02 27 2.04 27 0 27 C0 22.05 0 17.1 0 12 C-3.63 12 -7.26 12 -11 12 C-11 11.67 -11 11.34 -11 11 C-6.545 10.505 -6.545 10.505 -2 10 C-1.34 6.7 -0.68 3.4 0 0 Z " fill="#8CB3B2" transform="translate(54,2)"/>
<path d="M0 0 C5.39346988 -0.02464849 10.78690725 -0.04283531 16.18041992 -0.05493164 C18.01668875 -0.05997231 19.85295354 -0.06680477 21.68920898 -0.07543945 C24.32276401 -0.08751672 26.95626616 -0.09323081 29.58984375 -0.09765625 C30.41588608 -0.10281754 31.24192841 -0.10797882 32.09300232 -0.11329651 C34.06236368 -0.11349205 36.03161614 -0.06204152 38 0 C39.75559942 1.75559942 39.13221919 4.03582442 39.13671875 6.37109375 C39.13285156 7.07363281 39.12898438 7.77617188 39.125 8.5 C39.13080078 9.55380859 39.13080078 9.55380859 39.13671875 10.62890625 C39.12661378 15.87338622 39.12661378 15.87338622 38 17 C36.33382885 17.04063832 34.66611905 17.042721 33 17 C33.01160156 18.07121094 33.02320313 19.14242187 33.03515625 20.24609375 C33.04453299 21.64322743 33.05363331 23.04036299 33.0625 24.4375 C33.07087891 25.14455078 33.07925781 25.85160156 33.08789062 26.58007812 C33.09653588 28.38693559 33.05220011 30.19387603 33 32 C32 33 32 33 29.4375 33.0625 C28.633125 33.041875 27.82875 33.02125 27 33 C27 32.34 27 31.68 27 31 C28.65 31 30.3 31 32 31 C32 26.05 32 21.1 32 16 C33.65 16 35.3 16 37 16 C37 11.38 37 6.76 37 2 C34.83179688 2.01160156 32.66359375 2.02320312 30.4296875 2.03515625 C28.31478013 2.04296937 26.19987441 2.04903329 24.08496094 2.05493164 C22.62238843 2.05994045 21.15982089 2.06674938 19.69726562 2.07543945 C17.58722709 2.08765698 15.47725513 2.09326295 13.3671875 2.09765625 C12.09987793 2.10289307 10.83256836 2.10812988 9.52685547 2.11352539 C6.252804 2.00813747 3.21110848 1.62450226 0 1 C0 0.67 0 0.34 0 0 Z " fill="#C2AC97" transform="translate(58,101)"/>
<path d="M0 0 C6.93 0 13.86 0 21 0 C21 1.98 21 3.96 21 6 C14.07 6 7.14 6 0 6 C0 4.02 0 2.04 0 0 Z " fill="#8C4703" transform="translate(64,106)"/>
<path d="M0 0 C1.65 0 3.3 0 5 0 C5 1.32 5 2.64 5 4 C8.96 4 12.92 4 17 4 C17 5.65 17 7.3 17 9 C10.07 9 3.14 9 -4 9 C-4 7.35 -4 5.7 -4 4 C-2.68 4 -1.36 4 0 4 C0 2.68 0 1.36 0 0 Z " fill="#238683" transform="translate(64,56)"/>
<path d="M0 0 C5.28 0 10.56 0 16 0 C16.33 1.98 16.66 3.96 17 6 C14.69 6 12.38 6 10 6 C10 4.35 10 2.7 10 1 C7.03 1 4.06 1 1 1 C1 3.97 1 6.94 1 10 C2.32 10 3.64 10 5 10 C5 11.98 5 13.96 5 16 C8.63 16 12.26 16 16 16 C16 24.91 16 33.82 16 43 C14.02 43 12.04 43 10 43 C10 41.02 10 39.04 10 37 C10.66 38.32 11.32 39.64 12 41 C12.66 41 13.32 41 14 41 C14.33 33.08 14.66 25.16 15 17 C11.37 17 7.74 17 4 17 C4 15.35 4 13.7 4 12 C2.68 11.67 1.36 11.34 0 11 C0 7.37 0 3.74 0 0 Z " fill="#A6CCCB" transform="translate(33,7)"/>
<path d="M0 0 C2.0625 0.4375 2.0625 0.4375 4 1 C2.68 1.33 1.36 1.66 0 2 C0 4.97 0 7.94 0 11 C-3.63 11 -7.26 11 -11 11 C-10.34 10.67 -9.68 10.34 -9 10 C-8.31527335 8.11235097 -8.31527335 8.11235097 -7.875 5.9375 C-7.70742187 5.20402344 -7.53984375 4.47054687 -7.3671875 3.71484375 C-7.24601562 3.14894531 -7.12484375 2.58304688 -7 2 C-8.32 2 -9.64 2 -11 2 C-11 3.65 -11 5.3 -11 7 C-12.98 7 -14.96 7 -17 7 C-17 6.67 -17 6.34 -17 6 C-15.35 6 -13.7 6 -12 6 C-12 4.35 -12 2.7 -12 1 C-10.82630859 1.01740234 -10.82630859 1.01740234 -9.62890625 1.03515625 C-8.61699219 1.04417969 -7.60507813 1.05320313 -6.5625 1.0625 C-5.04849609 1.07990234 -5.04849609 1.07990234 -3.50390625 1.09765625 C-1.05978933 1.28612676 -1.05978933 1.28612676 0 0 Z " fill="#79C0BB" transform="translate(81,48)"/>
<path d="M0 0 C2.31 0 4.62 0 7 0 C7 1.65 7 3.3 7 5 C5.02 5 3.04 5 1 5 C1 13.58 1 22.16 1 31 C0.67 31 0.34 31 0 31 C0 22.75 0 14.5 0 6 C-0.99 6 -1.98 6 -3 6 C-3 16.23 -3 26.46 -3 37 C-3.33 37 -3.66 37 -4 37 C-4 26.44 -4 15.88 -4 5 C-2.68 5 -1.36 5 0 5 C0 3.35 0 1.7 0 0 Z " fill="#154646" transform="translate(53,65)"/>
<path d="M0 0 C2.97 0 5.94 0 9 0 C9 1.98 9 3.96 9 6 C10.65 6 12.3 6 14 6 C14 6.99 14 7.98 14 9 C9.38 9 4.76 9 0 9 C0 6.03 0 3.06 0 0 Z " fill="#288A87" transform="translate(34,8)"/>
<path d="M0 0 C0.33 0 0.66 0 1 0 C1 6.6 1 13.2 1 20 C4.63 20 8.26 20 12 20 C12 21.98 12 23.96 12 26 C8.04 26 4.08 26 0 26 C0 17.42 0 8.84 0 0 Z " fill="#B66F2D" transform="translate(22,133)"/>
<path d="M0 0 C1.98 0 3.96 0 6 0 C6 1.32 6 2.64 6 4 C4.35 4 2.7 4 1 4 C0.67 5.65 0.34 7.3 0 9 C-3.3 9 -6.6 9 -10 9 C-10 7.02 -10 5.04 -10 3 C-6.7 3 -3.4 3 0 3 C0 2.01 0 1.02 0 0 Z " fill="#186F6B" transform="translate(48,14)"/>
<path d="M0 0 C1.32 0 2.64 0 4 0 C4 6.6 4 13.2 4 20 C2.68 20 1.36 20 0 20 C0 13.4 0 6.8 0 0 Z " fill="#6B3502" transform="translate(80,133)"/>
<path d="M0 0 C6.27 0 12.54 0 19 0 C19 1.32 19 2.64 19 4 C12.4 4 5.8 4 -1 4 C-0.67 2.68 -0.34 1.36 0 0 Z " fill="#086160" transform="translate(18,55)"/>
<path d="M0 0 C1.77049689 -0.05410687 3.54146849 -0.09284119 5.3125 -0.125 C6.29863281 -0.14820313 7.28476562 -0.17140625 8.30078125 -0.1953125 C11 0 11 0 14 2 C14.99 1.34 15.98 0.68 17 0 C17 1.65 17 3.3 17 5 C11.39 5 5.78 5 0 5 C0 3.35 0 1.7 0 0 Z " fill="#68B8B6" transform="translate(17,39)"/>
<path d="M0 0 C3.63 0 7.26 0 11 0 C11 1.98 11 3.96 11 6 C7.01803543 7.05404945 4.01804691 6.84098656 0 6 C0 4.02 0 2.04 0 0 Z " fill="#AAD3D2" transform="translate(54,2)"/>
<path d="M0 0 C0 0.66 0 1.32 0 2 C-0.66 2 -1.32 2 -2 2 C-2 4.97 -2 7.94 -2 11 C-5.3 11 -8.6 11 -12 11 C-12 8.03 -12 5.06 -12 2 C-11.67 2 -11.34 2 -11 2 C-11 4.64 -11 7.28 -11 10 C-9.68 10 -8.36 10 -7 10 C-7 7.03 -7 4.06 -7 1 C-2.25 0 -2.25 0 0 0 Z " fill="#EBAB6A" transform="translate(45,101)"/>
<path d="M0 0 C3.63 0 7.26 0 11 0 C11.33 1.65 11.66 3.3 12 5 C13.32 5.33 14.64 5.66 16 6 C12.37 6 8.74 6 5 6 C5 4.68 5 3.36 5 2 C3.68 2 2.36 2 1 2 C1 3.32 1 4.64 1 6 C-0.65 6 -2.3 6 -4 6 C-3.01 5.67 -2.02 5.34 -1 5 C-0.67 3.35 -0.34 1.7 0 0 Z " fill="#8AC4C3" transform="translate(64,17)"/>
<path d="M0 0 C1.32 0 2.64 0 4 0 C4 5.28 4 10.56 4 16 C2.68 16 1.36 16 0 16 C0 10.72 0 5.44 0 0 Z " fill="#FBD4AC" transform="translate(34,128)"/>
<path d="M0 0 C1.32 0 2.64 0 4 0 C4 4.95 4 9.9 4 15 C2.68 15 1.36 15 0 15 C0 10.05 0 5.1 0 0 Z " fill="#693504" transform="translate(13,117)"/>
<path d="M0 0 C2.97 0 5.94 0 9 0 C9 1.98 9 3.96 9 6 C6.03 6 3.06 6 0 6 C0 4.02 0 2.04 0 0 Z " fill="#D7883C" transform="translate(34,153)"/>
<path d="M0 0 C0.66 0 1.32 0 2 0 C2 6.27 2 12.54 2 19 C1.01 19 0.02 19 -1 19 C-1.02705308 16.58325776 -1.04686438 14.1668206 -1.0625 11.75 C-1.07087891 11.06808594 -1.07925781 10.38617188 -1.08789062 9.68359375 C-1.10428392 6.30657446 -1.05628768 3.22708361 0 0 Z " fill="#045D5B" transform="translate(51,51)"/>
<path d="M0 0 C1.32 0 2.64 0 4 0 C4.20086443 3.71599191 4.1519437 4.77208445 2 8 C4.64 8.33 7.28 8.66 10 9 C10 9.33 10 9.66 10 10 C6.37 10 2.74 10 -1 10 C-1 8.68 -1 7.36 -1 6 C-2.65 6 -4.3 6 -6 6 C-6 5.67 -6 5.34 -6 5 C-4.02 5 -2.04 5 0 5 C0 3.35 0 1.7 0 0 Z " fill="#5FB1AE" transform="translate(70,50)"/>
<path d="M0 0 C1.98 0 3.96 0 6 0 C6.33 1.32 6.66 2.64 7 4 C9.64 4.33 12.28 4.66 15 5 C15 3.35 15 1.7 15 0 C15.33 0 15.66 0 16 0 C16 1.98 16 3.96 16 6 C10.55306686 6.09688221 5.36095333 6.12862175 0 5 C0 3.35 0 1.7 0 0 Z " fill="#0F6967" transform="translate(54,29)"/>
<path d="M0 0 C6.93 0 13.86 0 21 0 C21 0.33 21 0.66 21 1 C16.05 1 11.1 1 6 1 C6 2.32 6 3.64 6 5 C4.02 5 2.04 5 0 5 C0 3.35 0 1.7 0 0 Z " fill="#9F5816" transform="translate(43,153)"/>
<path d="M0 0 C1.64574566 -0.02688151 3.29161413 -0.04634123 4.9375 -0.0625 C5.85402344 -0.07410156 6.77054688 -0.08570313 7.71484375 -0.09765625 C10 0 10 0 11 1 C11.04063832 2.66617115 11.042721 4.33388095 11 6 C9.35 6 7.7 6 6 6 C6 4.35 6 2.7 6 1 C4.35 1 2.7 1 1 1 C1 2.65 1 4.3 1 6 C-0.98 6 -2.96 6 -5 6 C-5 5.67 -5 5.34 -5 5 C-3.35 5 -1.7 5 0 5 C0 3.35 0 1.7 0 0 Z " fill="#C6EDE4" transform="translate(69,49)"/>
<path d="M0 0 C3.63 0 7.26 0 11 0 C11 1.32 11 2.64 11 4 C7.37 4 3.74 4 0 4 C0 2.68 0 1.36 0 0 Z " fill="#0B3F3E" transform="translate(38,50)"/>
<path d="M0 0 C0.99 0 1.98 0 3 0 C2.97679687 0.60328125 2.95359375 1.2065625 2.9296875 1.828125 C2.91164063 2.62734375 2.89359375 3.4265625 2.875 4.25 C2.84019531 5.43335938 2.84019531 5.43335938 2.8046875 6.640625 C3.0171622 9.20731941 3.71345895 10.7916067 5 13 C3.35 13.33 1.7 13.66 0 14 C0 9.38 0 4.76 0 0 Z " fill="#248883" transform="translate(13,39)"/>
<path d="M0 0 C3.3 0 6.6 0 10 0 C10 1.32 10 2.64 10 4 C6.7 4 3.4 4 0 4 C0 2.68 0 1.36 0 0 Z " fill="#8F4803" transform="translate(23,154)"/>
<path d="M0 0 C2.97 0.495 2.97 0.495 6 1 C6 3.97 6 6.94 6 10 C4.68 10 3.36 10 2 10 C1.77213542 7.98177083 1.54427083 5.96354167 1.31640625 3.9453125 C1.08707039 1.92595684 1.08707039 1.92595684 0 0 Z " fill="#FBD7B2" transform="translate(32,101)"/>
<path d="M0 0 C2.97 0 5.94 0 9 0 C9 1.32 9 2.64 9 4 C5.7 4 2.4 4 -1 4 C-0.67 2.68 -0.34 1.36 0 0 Z " fill="#D7F9EE" transform="translate(18,34)"/>
<path d="M0 0 C2.97 0 5.94 0 9 0 C9 1.32 9 2.64 9 4 C6.03 4 3.06 4 0 4 C0 2.68 0 1.36 0 0 Z " fill="#055E5B" transform="translate(39,18)"/>
<path d="M0 0 C2.97 0 5.94 0 9 0 C9 0.99 9 1.98 9 3 C6.03 3 3.06 3 0 3 C0 2.01 0 1.02 0 0 Z " fill="#8F4602" transform="translate(55,103)"/>
<path d="M0 0 C1.65 0 3.3 0 5 0 C5 1.65 5 3.3 5 5 C3.35 5 1.7 5 0 5 C0 3.35 0 1.7 0 0 Z " fill="#6DBCB8" transform="translate(43,8)"/>
<path d="M0 0 C2.475 0.495 2.475 0.495 5 1 C5 2.32 5 3.64 5 5 C3.35 5 1.7 5 0 5 C0 3.35 0 1.7 0 0 Z " fill="#D8F8ED" transform="translate(54,2)"/>
<path d="M0 0 C0.99 0.495 0.99 0.495 2 1 C2 1.99 2 2.98 2 4 C3.32 4 4.64 4 6 4 C6 5.98 6 7.96 6 10 C5.67 8.68 5.34 7.36 5 6 C3.35 6 1.7 6 0 6 C0 4.02 0 2.04 0 0 Z " fill="#77B4B2" transform="translate(37,39)"/>
<path d="M0 0 C0.99 0.33 1.98 0.66 3 1 C3 3.31 3 5.62 3 8 C2.01 8 1.02 8 0 8 C0 5.36 0 2.72 0 0 Z " fill="#EDAC6A" transform="translate(7,103)"/>
<path d="M0 0 C1.65 0 3.3 0 5 0 C5 1.32 5 2.64 5 4 C3.35 4 1.7 4 0 4 C0 2.68 0 1.36 0 0 Z " fill="#8C4603" transform="translate(44,154)"/>
<path d="M0 0 C1.32 0 2.64 0 4 0 C4 1.65 4 3.3 4 5 C2.68 5 1.36 5 0 5 C0 3.35 0 1.7 0 0 Z " fill="#8F4A07" transform="translate(13,127)"/>
<path d="M0 0 C1.65 0 3.3 0 5 0 C5 1.32 5 2.64 5 4 C3.35 4 1.7 4 0 4 C0 2.68 0 1.36 0 0 Z " fill="#065D5D" transform="translate(38,50)"/>
<path d="M0 0 C1.32 0 2.64 0 4 0 C4 1.65 4 3.3 4 5 C2.68 5 1.36 5 0 5 C0 3.35 0 1.7 0 0 Z " fill="#103F3D" transform="translate(55,8)"/>
<path d="M0 0 C1.32 0 2.64 0 4 0 C4 1.65 4 3.3 4 5 C2.68 5 1.36 5 0 5 C0 3.35 0 1.7 0 0 Z " fill="#38938F" transform="translate(60,2)"/>
</svg>
