<?xml version="1.0" encoding="UTF-8"?>
<svg version="1.1" xmlns="http://www.w3.org/2000/svg" width="100" height="180">
<path d="M0 0 C0.9075 0.00257812 1.815 0.00515625 2.75 0.0078125 C4.11125 0.00394531 4.11125 0.00394531 5.5 0 C7.75 0.1328125 7.75 0.1328125 8.75 1.1328125 C8.84851171 2.96397133 8.87972629 4.79901183 8.875 6.6328125 C8.87886719 8.13328125 8.87886719 8.13328125 8.8828125 9.6640625 C8.75 12.1328125 8.75 12.1328125 7.75 13.1328125 C6.23071962 13.20461214 4.70832518 13.21673257 3.1875 13.1953125 C2.36121094 13.18628906 1.53492188 13.17726563 0.68359375 13.16796875 C0.04550781 13.15636719 -0.59257813 13.14476562 -1.25 13.1328125 C-1.25 14.1228125 -1.25 15.1128125 -1.25 16.1328125 C1.72 16.4628125 4.69 16.7928125 7.75 17.1328125 C8.375 19.5078125 8.375 19.5078125 8.75 22.1328125 C8.09 22.7928125 7.43 23.4528125 6.75 24.1328125 C5.76 23.8028125 4.77 23.4728125 3.75 23.1328125 C3.75 24.7828125 3.75 26.4328125 3.75 28.1328125 C2.1 28.7928125 0.45 29.4528125 -1.25 30.1328125 C-1.58 34.7528125 -1.91 39.3728125 -2.25 44.1328125 C-0.93 44.1328125 0.39 44.1328125 1.75 44.1328125 C1.729375 43.3284375 1.70875 42.5240625 1.6875 41.6953125 C1.75 39.1328125 1.75 39.1328125 2.75 38.1328125 C4.41617115 38.09217418 6.08388095 38.0900915 7.75 38.1328125 C7.75 36.4828125 7.75 34.8328125 7.75 33.1328125 C11.71 33.1328125 15.67 33.1328125 19.75 33.1328125 C19.75 34.7828125 19.75 36.4328125 19.75 38.1328125 C21.4 38.1328125 23.05 38.1328125 24.75 38.1328125 C25.73248196 42.18555058 25.91017882 45.96816324 25.75 50.1328125 C24.75 51.1328125 24.75 51.1328125 22.1875 51.1953125 C21.383125 51.1746875 20.57875 51.1540625 19.75 51.1328125 C19.75 52.7828125 19.75 54.4328125 19.75 56.1328125 C13.81 56.1328125 7.87 56.1328125 1.75 56.1328125 C1.75 54.4828125 1.75 52.8328125 1.75 51.1328125 C0.43 51.1328125 -0.89 51.1328125 -2.25 51.1328125 C-2.25 55.7528125 -2.25 60.3728125 -2.25 65.1328125 C-0.93 65.1328125 0.39 65.1328125 1.75 65.1328125 C2.08 63.4828125 2.41 61.8328125 2.75 60.1328125 C4.41611905 60.0900915 6.08382885 60.09217418 7.75 60.1328125 C8.75 61.1328125 8.75 61.1328125 8.8125 64.1953125 C8.791875 65.1646875 8.77125 66.1340625 8.75 67.1328125 C7.1 67.1328125 5.45 67.1328125 3.75 67.1328125 C3.770625 67.9371875 3.79125 68.7415625 3.8125 69.5703125 C3.75 72.1328125 3.75 72.1328125 2.75 73.1328125 C1.08382885 73.17345082 -0.58388095 73.1755335 -2.25 73.1328125 C-2.25 76.1028125 -2.25 79.0728125 -2.25 82.1328125 C-0.93 82.1328125 0.39 82.1328125 1.75 82.1328125 C1.75 80.4828125 1.75 78.8328125 1.75 77.1328125 C4.225 76.6378125 4.225 76.6378125 6.75 76.1328125 C7.08 74.4828125 7.41 72.8328125 7.75 71.1328125 C9.4 71.1328125 11.05 71.1328125 12.75 71.1328125 C12.75 69.4828125 12.75 67.8328125 12.75 66.1328125 C13.40226562 66.14441406 14.05453125 66.15601562 14.7265625 66.16796875 C19.55260282 66.21779512 23.98521735 65.96664946 28.75 65.1328125 C29.41 65.4628125 30.07 65.7928125 30.75 66.1328125 C30.75 67.7828125 30.75 69.4328125 30.75 71.1328125 C32.4 71.1328125 34.05 71.1328125 35.75 71.1328125 C35.75 77.0728125 35.75 83.0128125 35.75 89.1328125 C34.1 89.1328125 32.45 89.1328125 30.75 89.1328125 C30.75 90.7828125 30.75 92.4328125 30.75 94.1328125 C28.29724859 95.3591882 26.6994219 95.24696564 23.9609375 95.23046875 C23.01992187 95.22724609 22.07890625 95.22402344 21.109375 95.22070312 C20.12453125 95.21232422 19.1396875 95.20394531 18.125 95.1953125 C17.13242188 95.19080078 16.13984375 95.18628906 15.1171875 95.18164062 C12.6613984 95.16983395 10.20572896 95.1533665 7.75 95.1328125 C7.42 93.4828125 7.09 91.8328125 6.75 90.1328125 C3.78 89.8028125 0.81 89.4728125 -2.25 89.1328125 C-2.25 99.3628125 -2.25 109.5928125 -2.25 120.1328125 C0.84246094 120.12121094 3.93492188 120.10960938 7.12109375 120.09765625 C10.10294492 120.08986649 13.08479497 120.08378927 16.06665039 120.07788086 C18.14543156 120.07283962 20.22420916 120.06600676 22.30297852 120.05737305 C25.28402586 120.04529828 28.26502649 120.03958226 31.24609375 120.03515625 C32.64921059 120.02741432 32.64921059 120.02741432 34.08067322 120.01951599 C34.94149002 120.01944046 35.80230682 120.01936493 36.68920898 120.01928711 C37.45087875 120.0170665 38.21254852 120.01484589 38.99729919 120.01255798 C40.75 120.1328125 40.75 120.1328125 41.75 121.1328125 C41.82325168 123.99548817 41.84238205 126.8335315 41.8125 129.6953125 C41.80798828 130.50162109 41.80347656 131.30792969 41.79882812 132.13867188 C41.78700518 134.13675006 41.76906914 136.13479033 41.75 138.1328125 C39.77 138.1328125 37.79 138.1328125 35.75 138.1328125 C35.935625 138.9165625 36.12125 139.7003125 36.3125 140.5078125 C36.87543691 145.17214691 36.34607604 149.49258979 35.75 154.1328125 C34.1 154.1328125 32.45 154.1328125 30.75 154.1328125 C30.75 161.3928125 30.75 168.6528125 30.75 176.1328125 C29.1 176.1328125 27.45 176.1328125 25.75 176.1328125 C25.75 177.4528125 25.75 178.7728125 25.75 180.1328125 C5.29 180.1328125 -15.17 180.1328125 -36.25 180.1328125 C-36.25 178.8128125 -36.25 177.4928125 -36.25 176.1328125 C-37.9 176.1328125 -39.55 176.1328125 -41.25 176.1328125 C-42.45029908 173.73221433 -42.36459743 172.23920601 -42.34765625 169.5625 C-42.34443359 168.66660156 -42.34121094 167.77070313 -42.33789062 166.84765625 C-42.32951172 165.91050781 -42.32113281 164.97335938 -42.3125 164.0078125 C-42.30798828 163.06292969 -42.30347656 162.11804688 -42.29882812 161.14453125 C-42.28702357 158.80722863 -42.27055759 156.47005189 -42.25 154.1328125 C-42.889375 154.3184375 -43.52875 154.5040625 -44.1875 154.6953125 C-45.2084375 154.911875 -45.2084375 154.911875 -46.25 155.1328125 C-47.25 154.1328125 -47.25 154.1328125 -47.34765625 150.53515625 C-47.3409822 149.04684383 -47.32902183 147.55854818 -47.3125 146.0703125 C-47.30798828 145.31169922 -47.30347656 144.55308594 -47.29882812 143.77148438 C-47.2870068 141.89189379 -47.26907078 140.01234351 -47.25 138.1328125 C-48.4565625 138.16375 -48.4565625 138.16375 -49.6875 138.1953125 C-52.25 138.1328125 -52.25 138.1328125 -53.25 137.1328125 C-53.159084 134.43172746 -53.01259234 131.76350939 -52.8125 129.0703125 C-52.76029297 128.31169922 -52.70808594 127.55308594 -52.65429688 126.77148438 C-52.52424165 124.89159528 -52.38771962 123.01215565 -52.25 121.1328125 C-49.5437563 120.23073127 -48.01149014 120.01053651 -45.23754883 120.01928711 C-44.43694534 120.01936264 -43.63634186 120.01943817 -42.81147766 120.01951599 C-41.52227669 120.02725792 -41.52227669 120.02725792 -40.20703125 120.03515625 C-39.3234343 120.0365712 -38.43983734 120.03798615 -37.52946472 120.03944397 C-34.70710872 120.04504181 -31.88483203 120.05759389 -29.0625 120.0703125 C-27.14908969 120.07532778 -25.23567813 120.07989064 -23.32226562 120.08398438 C-18.63145527 120.09415967 -13.94081642 120.11373552 -9.25 120.1328125 C-9.25 113.5328125 -9.25 106.9328125 -9.25 100.1328125 C-12.55 100.1328125 -15.85 100.1328125 -19.25 100.1328125 C-19.4975 99.3284375 -19.745 98.5240625 -20 97.6953125 C-20.4125 96.8496875 -20.825 96.0040625 -21.25 95.1328125 C-22.57 94.8028125 -23.89 94.4728125 -25.25 94.1328125 C-25.25 90.1728125 -25.25 86.2128125 -25.25 82.1328125 C-21.29 82.1328125 -17.33 82.1328125 -13.25 82.1328125 C-13.25 85.7628125 -13.25 89.3928125 -13.25 93.1328125 C-11.93 93.1328125 -10.61 93.1328125 -9.25 93.1328125 C-9.25 86.5328125 -9.25 79.9328125 -9.25 73.1328125 C-12.22 73.1328125 -15.19 73.1328125 -18.25 73.1328125 C-18.25 74.7828125 -18.25 76.4328125 -18.25 78.1328125 C-25.84 78.1328125 -33.43 78.1328125 -41.25 78.1328125 C-41.745 75.6578125 -41.745 75.6578125 -42.25 73.1328125 C-43.9 72.8028125 -45.55 72.4728125 -47.25 72.1328125 C-47.25 66.5228125 -47.25 60.9128125 -47.25 55.1328125 C-45.27 55.1328125 -43.29 55.1328125 -41.25 55.1328125 C-40.92 53.4828125 -40.59 51.8328125 -40.25 50.1328125 C-35.3 49.8028125 -30.35 49.4728125 -25.25 49.1328125 C-24.59 50.7828125 -23.93 52.4328125 -23.25 54.1328125 C-20.70224694 55.02667414 -20.70224694 55.02667414 -18.25 55.1328125 C-18.25 56.7828125 -18.25 58.4328125 -18.25 60.1328125 C-16.6 60.1328125 -14.95 60.1328125 -13.25 60.1328125 C-12.755 62.6078125 -12.755 62.6078125 -12.25 65.1328125 C-11.26 65.4628125 -10.27 65.7928125 -9.25 66.1328125 C-9.25 62.8328125 -9.25 59.5328125 -9.25 56.1328125 C-10.9 56.1328125 -12.55 56.1328125 -14.25 56.1328125 C-14.311875 55.5140625 -14.37375 54.8953125 -14.4375 54.2578125 C-15.078919 51.85520109 -15.078919 51.85520109 -17.8125 50.8828125 C-18.616875 50.6353125 -19.42125 50.3878125 -20.25 50.1328125 C-20.25 48.1528125 -20.25 46.1728125 -20.25 44.1328125 C-17.94 44.1328125 -15.63 44.1328125 -13.25 44.1328125 C-12.755 46.6078125 -12.755 46.6078125 -12.25 49.1328125 C-11.59 49.1328125 -10.93 49.1328125 -10.25 49.1328125 C-9.92 46.1628125 -9.59 43.1928125 -9.25 40.1328125 C-12.88 40.1328125 -16.51 40.1328125 -20.25 40.1328125 C-20.25 38.4828125 -20.25 36.8328125 -20.25 35.1328125 C-21.9 34.8028125 -23.55 34.4728125 -25.25 34.1328125 C-25.27687279 32.32039198 -25.29633715 30.50786017 -25.3125 28.6953125 C-25.32410156 27.68597656 -25.33570312 26.67664063 -25.34765625 25.63671875 C-25.25 23.1328125 -25.25 23.1328125 -24.25 22.1328125 C-21.71950598 22.05967683 -19.21695163 22.04033723 -16.6875 22.0703125 C-15.62112305 22.07708008 -15.62112305 22.07708008 -14.53320312 22.08398438 C-12.77209987 22.09580386 -11.01103964 22.11373987 -9.25 22.1328125 C-9.25 20.8128125 -9.25 19.4928125 -9.25 18.1328125 C-12.88 18.1328125 -16.51 18.1328125 -20.25 18.1328125 C-20.34765625 9.63671875 -20.34765625 9.63671875 -20.25 7.1328125 C-19.25 6.1328125 -19.25 6.1328125 -16.74609375 6.03515625 C-15.23208984 6.05255859 -15.23208984 6.05255859 -13.6875 6.0703125 C-12.67558594 6.07933594 -11.66367187 6.08835937 -10.62109375 6.09765625 C-9.83863281 6.10925781 -9.05617187 6.12085938 -8.25 6.1328125 C-7.755 8.6078125 -7.755 8.6078125 -7.25 11.1328125 C-5.93 11.1328125 -4.61 11.1328125 -3.25 11.1328125 C-3.26160156 10.42253906 -3.27320313 9.71226563 -3.28515625 8.98046875 C-3.29417969 8.06136719 -3.30320313 7.14226563 -3.3125 6.1953125 C-3.32410156 5.27878906 -3.33570313 4.36226563 -3.34765625 3.41796875 C-3.21658612 0.35092764 -3.0604863 0.18065371 0 0 Z " fill="#479190" transform="translate(56.25,-0.1328125)"/>
<path d="M0 0 C14.19 0 28.38 0 43 0 C43 4.95 43 9.9 43 15 C41.02 15 39.04 15 37 15 C37 20.28 37 25.56 37 31 C35.35 31 33.7 31 32 31 C32 38.26 32 45.52 32 53 C30.35 53 28.7 53 27 53 C27 54.65 27 56.3 27 58 C14.13 58 1.26 58 -12 58 C-12 56.35 -12 54.7 -12 53 C-4.74 53 2.52 53 10 53 C10 44.09 10 35.18 10 26 C-6.17 26 -22.34 26 -39 26 C-39 27.65 -39 29.3 -39 31 C-40.65 31 -42.3 31 -44 31 C-44 25.72 -44 20.44 -44 15 C-45.65 15 -47.3 15 -49 15 C-49 13.35 -49 11.7 -49 10 C-29.53 10 -10.06 10 10 10 C10 8.02 10 6.04 10 4 C6.7 4 3.4 4 0 4 C0 2.68 0 1.36 0 0 Z " fill="#914A04" transform="translate(54,122)"/>
<path d="M0 0 C3.63 0 7.26 0 11 0 C10.67 0.66 10.34 1.32 10 2 C7.03 1.67 4.06 1.34 1 1 C1 11.23 1 21.46 1 32 C4.09246094 31.98839844 7.18492188 31.97679688 10.37109375 31.96484375 C13.35294492 31.95705399 16.33479497 31.95097677 19.31665039 31.94506836 C21.39543156 31.94002712 23.47420916 31.93319426 25.55297852 31.92456055 C28.53402586 31.91248578 31.51502649 31.90676976 34.49609375 31.90234375 C35.89921059 31.89460182 35.89921059 31.89460182 37.33067322 31.88670349 C38.19149002 31.88662796 39.05230682 31.88655243 39.93920898 31.88647461 C41.08171364 31.88314369 41.08171364 31.88314369 42.24729919 31.87974548 C44 32 44 32 45 33 C45.07325168 35.86267567 45.09238205 38.700719 45.0625 41.5625 C45.05798828 42.36880859 45.05347656 43.17511719 45.04882812 44.00585938 C45.03700518 46.00393756 45.01906914 48.00197783 45 50 C43.02 50 41.04 50 39 50 C39.185625 50.78375 39.37125 51.5675 39.5625 52.375 C40.12543691 57.03933441 39.59607604 61.35977729 39 66 C37.35 66 35.7 66 34 66 C34 73.26 34 80.52 34 88 C32.35 88 30.7 88 29 88 C28.505 89.98 28.505 89.98 28 92 C28 90.35 28 88.7 28 87 C29.65 87 31.3 87 33 87 C33 79.74 33 72.48 33 65 C34.65 65 36.3 65 38 65 C38 59.72 38 54.44 38 49 C39.98 49 41.96 49 44 49 C44 44.05 44 39.1 44 34 C29.81 34 15.62 34 1 34 C1 35.32 1 36.64 1 38 C4.3 38 7.6 38 11 38 C11 39.98 11 41.96 11 44 C-8.47 44 -27.94 44 -48 44 C-48 45.65 -48 47.3 -48 49 C-46.35 49 -44.7 49 -43 49 C-43 54.28 -43 59.56 -43 65 C-41.35 65 -39.7 65 -38 65 C-38 63.35 -38 61.7 -38 60 C-21.83 60 -5.66 60 11 60 C11 68.91 11 77.82 11 87 C3.74 87 -3.52 87 -11 87 C-11 88.65 -11 90.3 -11 92 C-18.26 92 -25.52 92 -33 92 C-33 90.68 -33 89.36 -33 88 C-34.65 88 -36.3 88 -38 88 C-39.20029908 85.59940183 -39.11459743 84.10639351 -39.09765625 81.4296875 C-39.09443359 80.53378906 -39.09121094 79.63789063 -39.08789062 78.71484375 C-39.07951172 77.77769531 -39.07113281 76.84054688 -39.0625 75.875 C-39.05798828 74.93011719 -39.05347656 73.98523438 -39.04882812 73.01171875 C-39.03702357 70.67441613 -39.02055759 68.33723939 -39 66 C-39.639375 66.185625 -40.27875 66.37125 -40.9375 66.5625 C-41.9584375 66.7790625 -41.9584375 66.7790625 -43 67 C-44 66 -44 66 -44.09765625 62.40234375 C-44.0909822 60.91403133 -44.07902183 59.42573568 -44.0625 57.9375 C-44.05798828 57.17888672 -44.05347656 56.42027344 -44.04882812 55.63867188 C-44.0370068 53.75908129 -44.01907078 51.87953101 -44 50 C-44.804375 50.020625 -45.60875 50.04125 -46.4375 50.0625 C-49 50 -49 50 -50 49 C-49.909084 46.29891496 -49.76259234 43.63069689 -49.5625 40.9375 C-49.51029297 40.17888672 -49.45808594 39.42027344 -49.40429688 38.63867188 C-49.27424165 36.75878278 -49.13771962 34.87934315 -49 33 C-46.2937563 32.09791877 -44.76149014 31.87772401 -41.98754883 31.88647461 C-41.18694534 31.88655014 -40.38634186 31.88662567 -39.56147766 31.88670349 C-38.27227669 31.89444542 -38.27227669 31.89444542 -36.95703125 31.90234375 C-36.0734343 31.9037587 -35.18983734 31.90517365 -34.27946472 31.90663147 C-31.45710872 31.91222931 -28.63483203 31.92478139 -25.8125 31.9375 C-23.89908969 31.94251528 -21.98567813 31.94707814 -20.07226562 31.95117188 C-15.38145527 31.96134717 -10.69081642 31.98092302 -6 32 C-6 25.4 -6 18.8 -6 12 C-9.3 12 -12.6 12 -16 12 C-16 11.67 -16 11.34 -16 11 C-12.37 11 -8.74 11 -5 11 C-5 18.26 -5 25.52 -5 33 C-3.35 33 -1.7 33 0 33 C0 22.11 0 11.22 0 0 Z " fill="#D58333" transform="translate(53,88)"/>
<path d="M0 0 C1.65 0 3.3 0 5 0 C5 1.65 5 3.3 5 5 C6.65 5 8.3 5 10 5 C10 10.28 10 15.56 10 21 C8.02 21 6.04 21 4 21 C4 22.65 4 24.3 4 26 C-2.6 26 -9.2 26 -16 26 C-16.33 24.35 -16.66 22.7 -17 21 C-20.63 21 -24.26 21 -28 21 C-28 31.89 -28 42.78 -28 54 C-29.65 54 -31.3 54 -33 54 C-33 46.74 -33 39.48 -33 32 C-36.63 32 -40.26 32 -44 32 C-44 30.02 -44 28.04 -44 26 C-45.65 26 -47.3 26 -49 26 C-49 22.7 -49 19.4 -49 16 C-45.7 16 -42.4 16 -39 16 C-39 19.63 -39 23.26 -39 27 C-37.02 27 -35.04 27 -33 27 C-33 21.39 -33 15.78 -33 10 C-31.35 10 -29.7 10 -28 10 C-28 11.98 -28 13.96 -28 16 C-26.02 16 -24.04 16 -22 16 C-22 14.35 -22 12.7 -22 11 C-20.35 10.67 -18.7 10.34 -17 10 C-16.67 8.68 -16.34 7.36 -16 6 C-14.68 6 -13.36 6 -12 6 C-12 7.65 -12 9.3 -12 11 C-8.04 11 -4.08 11 0 11 C0 7.37 0 3.74 0 0 Z " fill="#075F5D" transform="translate(81,67)"/>
<path d="M0 0 C3.63 0 7.26 0 11 0 C10.67 0.66 10.34 1.32 10 2 C7.03 1.67 4.06 1.34 1 1 C1 11.23 1 21.46 1 32 C4.09246094 31.98839844 7.18492188 31.97679688 10.37109375 31.96484375 C13.35294492 31.95705399 16.33479497 31.95097677 19.31665039 31.94506836 C21.39543156 31.94002712 23.47420916 31.93319426 25.55297852 31.92456055 C28.53402586 31.91248578 31.51502649 31.90676976 34.49609375 31.90234375 C35.89921059 31.89460182 35.89921059 31.89460182 37.33067322 31.88670349 C38.19149002 31.88662796 39.05230682 31.88655243 39.93920898 31.88647461 C41.08171364 31.88314369 41.08171364 31.88314369 42.24729919 31.87974548 C44 32 44 32 45 33 C45.07325168 35.86267567 45.09238205 38.700719 45.0625 41.5625 C45.05798828 42.36880859 45.05347656 43.17511719 45.04882812 44.00585938 C45.03700518 46.00393756 45.01906914 48.00197783 45 50 C43.02 50 41.04 50 39 50 C39.185625 50.78375 39.37125 51.5675 39.5625 52.375 C40.12543691 57.03933441 39.59607604 61.35977729 39 66 C37.35 66 35.7 66 34 66 C34 73.26 34 80.52 34 88 C32.35 88 30.7 88 29 88 C28.505 89.98 28.505 89.98 28 92 C28 90.35 28 88.7 28 87 C29.65 87 31.3 87 33 87 C33 79.74 33 72.48 33 65 C34.65 65 36.3 65 38 65 C38 59.72 38 54.44 38 49 C39.98 49 41.96 49 44 49 C44 44.05 44 39.1 44 34 C29.81 34 15.62 34 1 34 C1 35.32 1 36.64 1 38 C4.3 38 7.6 38 11 38 C11 39.98 11 41.96 11 44 C-8.47 44 -27.94 44 -48 44 C-48 45.65 -48 47.3 -48 49 C-46.35 49 -44.7 49 -43 49 C-43 54.28 -43 59.56 -43 65 C-42.34 65.33 -41.68 65.66 -41 66 C-41.99 66 -42.98 66 -44 66 C-44 60.72 -44 55.44 -44 50 C-45.65 50 -47.3 50 -49 50 C-49.33 49.67 -49.66 49.34 -50 49 C-49.909084 46.29891496 -49.76259234 43.63069689 -49.5625 40.9375 C-49.51029297 40.17888672 -49.45808594 39.42027344 -49.40429688 38.63867188 C-49.27424165 36.75878278 -49.13771962 34.87934315 -49 33 C-46.2937563 32.09791877 -44.76149014 31.87772401 -41.98754883 31.88647461 C-41.18694534 31.88655014 -40.38634186 31.88662567 -39.56147766 31.88670349 C-38.27227669 31.89444542 -38.27227669 31.89444542 -36.95703125 31.90234375 C-36.0734343 31.9037587 -35.18983734 31.90517365 -34.27946472 31.90663147 C-31.45710872 31.91222931 -28.63483203 31.92478139 -25.8125 31.9375 C-23.89908969 31.94251528 -21.98567813 31.94707814 -20.07226562 31.95117188 C-15.38145527 31.96134717 -10.69081642 31.98092302 -6 32 C-6 25.4 -6 18.8 -6 12 C-9.3 12 -12.6 12 -16 12 C-16 11.67 -16 11.34 -16 11 C-12.37 11 -8.74 11 -5 11 C-5 18.26 -5 25.52 -5 33 C-3.35 33 -1.7 33 0 33 C0 22.11 0 11.22 0 0 Z " fill="#C4986B" transform="translate(53,88)"/>
<path d="M0 0 C14.19 0 28.38 0 43 0 C43 4.95 43 9.9 43 15 C41.02 15 39.04 15 37 15 C37 16.98 37 18.96 37 21 C35.35 21 33.7 21 32 21 C32 19.02 32 17.04 32 15 C17.81 15 3.62 15 -11 15 C-11 13.35 -11 11.7 -11 10 C-4.07 10 2.86 10 10 10 C10 8.02 10 6.04 10 4 C6.7 4 3.4 4 0 4 C0 2.68 0 1.36 0 0 Z " fill="#693302" transform="translate(54,122)"/>
<path d="M0 0 C0.9075 0.00257812 1.815 0.00515625 2.75 0.0078125 C4.11125 0.00394531 4.11125 0.00394531 5.5 0 C7.75 0.1328125 7.75 0.1328125 8.75 1.1328125 C8.84851171 2.96397133 8.87972629 4.79901183 8.875 6.6328125 C8.87886719 8.13328125 8.87886719 8.13328125 8.8828125 9.6640625 C8.75 12.1328125 8.75 12.1328125 7.75 13.1328125 C6.23071962 13.20461214 4.70832518 13.21673257 3.1875 13.1953125 C2.36121094 13.18628906 1.53492187 13.17726563 0.68359375 13.16796875 C0.04550781 13.15636719 -0.59257813 13.14476562 -1.25 13.1328125 C-1.25 14.1228125 -1.25 15.1128125 -1.25 16.1328125 C1.72 16.4628125 4.69 16.7928125 7.75 17.1328125 C8.375 19.5078125 8.375 19.5078125 8.75 22.1328125 C8.09 22.7928125 7.43 23.4528125 6.75 24.1328125 C5.76 23.8028125 4.77 23.4728125 3.75 23.1328125 C3.75 24.7828125 3.75 26.4328125 3.75 28.1328125 C3.42 28.1328125 3.09 28.1328125 2.75 28.1328125 C2.75 24.8328125 2.75 21.5328125 2.75 18.1328125 C1.1 18.1328125 -0.55 18.1328125 -2.25 18.1328125 C-2.58 17.8028125 -2.91 17.4728125 -3.25 17.1328125 C-3.25 15.4828125 -3.25 13.8328125 -3.25 12.1328125 C-6.88 12.1328125 -10.51 12.1328125 -14.25 12.1328125 C-14.25 13.7828125 -14.25 15.4328125 -14.25 17.1328125 C-12.27 17.1328125 -10.29 17.1328125 -8.25 17.1328125 C-8.25 22.7428125 -8.25 28.3528125 -8.25 34.1328125 C-11.55 34.1328125 -14.85 34.1328125 -18.25 34.1328125 C-18.25 35.7828125 -18.25 37.4328125 -18.25 39.1328125 C-14.95 39.1328125 -11.65 39.1328125 -8.25 39.1328125 C-8.25 43.0928125 -8.25 47.0528125 -8.25 51.1328125 C-9.9 51.1328125 -11.55 51.1328125 -13.25 51.1328125 C-13.25 52.4528125 -13.25 53.7728125 -13.25 55.1328125 C-11.6 55.1328125 -9.95 55.1328125 -8.25 55.1328125 C-8.25 58.7628125 -8.25 62.3928125 -8.25 66.1328125 C-8.58 66.1328125 -8.91 66.1328125 -9.25 66.1328125 C-9.25 62.8328125 -9.25 59.5328125 -9.25 56.1328125 C-10.9 56.1328125 -12.55 56.1328125 -14.25 56.1328125 C-14.311875 55.5140625 -14.37375 54.8953125 -14.4375 54.2578125 C-15.078919 51.85520109 -15.078919 51.85520109 -17.8125 50.8828125 C-18.616875 50.6353125 -19.42125 50.3878125 -20.25 50.1328125 C-20.25 48.1528125 -20.25 46.1728125 -20.25 44.1328125 C-17.94 44.1328125 -15.63 44.1328125 -13.25 44.1328125 C-12.92 45.7828125 -12.59 47.4328125 -12.25 49.1328125 C-11.59 49.1328125 -10.93 49.1328125 -10.25 49.1328125 C-9.92 46.1628125 -9.59 43.1928125 -9.25 40.1328125 C-12.88 40.1328125 -16.51 40.1328125 -20.25 40.1328125 C-20.25 38.4828125 -20.25 36.8328125 -20.25 35.1328125 C-21.9 34.8028125 -23.55 34.4728125 -25.25 34.1328125 C-25.27687279 32.32039198 -25.29633715 30.50786017 -25.3125 28.6953125 C-25.32410156 27.68597656 -25.33570312 26.67664063 -25.34765625 25.63671875 C-25.25 23.1328125 -25.25 23.1328125 -24.25 22.1328125 C-21.71950598 22.05967683 -19.21695163 22.04033723 -16.6875 22.0703125 C-15.97658203 22.07482422 -15.26566406 22.07933594 -14.53320312 22.08398438 C-12.77209987 22.09580386 -11.01103964 22.11373987 -9.25 22.1328125 C-9.25 20.8128125 -9.25 19.4928125 -9.25 18.1328125 C-12.88 18.1328125 -16.51 18.1328125 -20.25 18.1328125 C-20.34765625 9.63671875 -20.34765625 9.63671875 -20.25 7.1328125 C-19.25 6.1328125 -19.25 6.1328125 -16.74609375 6.03515625 C-15.23208984 6.05255859 -15.23208984 6.05255859 -13.6875 6.0703125 C-12.67558594 6.07933594 -11.66367187 6.08835937 -10.62109375 6.09765625 C-9.44740234 6.11505859 -9.44740234 6.11505859 -8.25 6.1328125 C-7.92 7.7828125 -7.59 9.4328125 -7.25 11.1328125 C-5.93 11.1328125 -4.61 11.1328125 -3.25 11.1328125 C-3.26160156 10.42253906 -3.27320312 9.71226563 -3.28515625 8.98046875 C-3.29417969 8.06136719 -3.30320312 7.14226563 -3.3125 6.1953125 C-3.32410156 5.27878906 -3.33570312 4.36226563 -3.34765625 3.41796875 C-3.21658612 0.35092764 -3.0604863 0.18065371 0 0 Z " fill="#298A87" transform="translate(56.25,-0.1328125)"/>
<path d="M0 0 C5.61 0 11.22 0 17 0 C17 10.56 17 21.12 17 32 C13.04 32 9.08 32 5 32 C5 30.68 5 29.36 5 28 C3.35 28 1.7 28 0 28 C-1.20029908 25.59940183 -1.11459743 24.10639351 -1.09765625 21.4296875 C-1.09443359 20.53378906 -1.09121094 19.63789063 -1.08789062 18.71484375 C-1.07951172 17.77769531 -1.07113281 16.84054688 -1.0625 15.875 C-1.05798828 14.93011719 -1.05347656 13.98523438 -1.04882812 13.01171875 C-1.03702357 10.67441613 -1.02055759 8.33723939 -1 6 C-1.66 5.67 -2.32 5.34 -3 5 C-2.01 5 -1.02 5 0 5 C0 3.35 0 1.7 0 0 Z " fill="#CF8135" transform="translate(15,148)"/>
<path d="M0 0 C3.63 0 7.26 0 11 0 C11.33 1.65 11.66 3.3 12 5 C14.475 5.495 14.475 5.495 17 6 C17 9.3 17 12.6 17 16 C15.02 16 13.04 16 11 16 C11 21.61 11 27.22 11 33 C12.98 33 14.96 33 17 33 C17.33 34.32 17.66 35.64 18 37 C21.3 37.33 24.6 37.66 28 38 C28 36.02 28 34.04 28 32 C29.65 32 31.3 32 33 32 C33 30.68 33 29.36 33 28 C34.65 28 36.3 28 38 28 C38 31.3 38 34.6 38 38 C36.35 38 34.7 38 33 38 C33 39.65 33 41.3 33 43 C27.72 43 22.44 43 17 43 C17 41.35 17 39.7 17 38 C16.05125 38.04125 15.1025 38.0825 14.125 38.125 C11 38 11 38 9 36 C8.34 35.67 7.68 35.34 7 35 C7 32.36 7 29.72 7 27 C3.37 27 -0.26 27 -4 27 C-4 25.35 -4 23.7 -4 22 C-0.7 22 2.6 22 6 22 C6 16.39 6 10.78 6 5 C4.02 5 2.04 5 0 5 C0 3.35 0 1.7 0 0 Z " fill="#248380" transform="translate(42,12)"/>
<path d="M0 0 C1.65 0 3.3 0 5 0 C5 1.98 5 3.96 5 6 C6.98 6 8.96 6 11 6 C11 7.65 11 9.3 11 11 C9.02 11 7.04 11 5 11 C5 21.89 5 32.78 5 44 C3.35 44 1.7 44 0 44 C0 36.74 0 29.48 0 22 C-3.63 22 -7.26 22 -11 22 C-11 20.02 -11 18.04 -11 16 C-12.65 16 -14.3 16 -16 16 C-16 12.7 -16 9.4 -16 6 C-12.7 6 -9.4 6 -6 6 C-6 9.63 -6 13.26 -6 17 C-4.02 17 -2.04 17 0 17 C0 11.39 0 5.78 0 0 Z " fill="#114140" transform="translate(48,77)"/>
<path d="M0 0 C1.98 0 3.96 0 6 0 C5.03320312 0.27457031 5.03320312 0.27457031 4.046875 0.5546875 C1.62555056 1.90811895 1.62555056 1.90811895 1.390625 5.2578125 C1.34421875 6.53398438 1.2978125 7.81015625 1.25 9.125 C1.19328125 10.40632813 1.1365625 11.68765625 1.078125 13.0078125 C1.05234375 13.99523438 1.0265625 14.98265625 1 16 C2.32 16 3.64 16 5 16 C4.979375 15.195625 4.95875 14.39125 4.9375 13.5625 C5 11 5 11 6 10 C7.66617115 9.95936168 9.33388095 9.957279 11 10 C11 8.35 11 6.7 11 5 C14.96 5 18.92 5 23 5 C23 6.65 23 8.3 23 10 C24.65 10 26.3 10 28 10 C28.98248196 14.05273808 29.16017882 17.83535074 29 22 C28 23 28 23 25.4375 23.0625 C24.633125 23.041875 23.82875 23.02125 23 23 C23 24.65 23 26.3 23 28 C17.06 28 11.12 28 5 28 C5 26.35 5 24.7 5 23 C3.68 23 2.36 23 1 23 C1 27.62 1 32.24 1 37 C2.32 37 3.64 37 5 37 C5.33 35.35 5.66 33.7 6 32 C7.66611905 31.957279 9.33382885 31.95936168 11 32 C12 33 12 33 12.0625 36.0625 C12.041875 37.031875 12.02125 38.00125 12 39 C10.35 39 8.7 39 7 39 C7 40.65 7 42.3 7 44 C6.67 44 6.34 44 6 44 C6 42.02 6 40.04 6 38 C4.02 38 2.04 38 0 38 C0 32.72 0 27.44 0 22 C1.98 22 3.96 22 6 22 C6 23.65 6 25.3 6 27 C11.28 27 16.56 27 22 27 C22 25.35 22 23.7 22 22 C23.65 22 25.3 22 27 22 C27 18.7 27 15.4 27 12 C25.35 12 23.7 12 22 12 C22 13.32 22 14.64 22 16 C20.35 16 18.7 16 17 16 C17 17.98 17 19.96 17 22 C13.7 22 10.4 22 7 22 C6.67 20.35 6.34 18.7 6 17 C4.02 17 2.04 17 0 17 C0 11.39 0 5.78 0 0 Z " fill="#3E9390" transform="translate(53,28)"/>
<path d="M0 0 C1.19238281 -0.00128906 2.38476562 -0.00257812 3.61328125 -0.00390625 C5.49853516 0.00189453 5.49853516 0.00189453 7.421875 0.0078125 C8.66324219 0.00394531 9.90460937 0.00007813 11.18359375 -0.00390625 C12.97990234 -0.00197266 12.97990234 -0.00197266 14.8125 0 C15.91110352 0.00112793 17.00970703 0.00225586 18.14160156 0.00341797 C20.93369344 0.122642 23.45594658 0.49766621 26.171875 1.1328125 C26.171875 4.4328125 26.171875 7.7328125 26.171875 11.1328125 C15.611875 11.1328125 5.051875 11.1328125 -5.828125 11.1328125 C-5.828125 13.1128125 -5.828125 15.0928125 -5.828125 17.1328125 C-4.178125 17.1328125 -2.528125 17.1328125 -0.828125 17.1328125 C-0.828125 22.4128125 -0.828125 27.6928125 -0.828125 33.1328125 C-0.168125 33.4628125 0.491875 33.7928125 1.171875 34.1328125 C0.181875 34.1328125 -0.808125 34.1328125 -1.828125 34.1328125 C-1.828125 28.8528125 -1.828125 23.5728125 -1.828125 18.1328125 C-3.478125 18.1328125 -5.128125 18.1328125 -6.828125 18.1328125 C-7.158125 17.8028125 -7.488125 17.4728125 -7.828125 17.1328125 C-7.76342335 14.45063481 -7.63692385 11.80708574 -7.453125 9.1328125 C-7.40929687 8.38257813 -7.36546875 7.63234375 -7.3203125 6.859375 C-6.8844551 0.15201384 -6.60124751 0.00680541 0 0 Z " fill="#EEA55D" transform="translate(10.828125,119.8671875)"/>
<path d="M0 0 C3.3 0 6.6 0 10 0 C10 10.56 10 21.12 10 32 C6.7 32 3.4 32 0 32 C0 21.44 0 10.88 0 0 Z " fill="#ECA55F" transform="translate(32,148)"/>
<path d="M0 0 C0.9075 0.00257812 1.815 0.00515625 2.75 0.0078125 C4.11125 0.00394531 4.11125 0.00394531 5.5 0 C7.75 0.1328125 7.75 0.1328125 8.75 1.1328125 C8.84851171 2.96397133 8.87972629 4.79901183 8.875 6.6328125 C8.87886719 8.13328125 8.87886719 8.13328125 8.8828125 9.6640625 C8.75 12.1328125 8.75 12.1328125 7.75 13.1328125 C6.23071962 13.20461214 4.70832518 13.21673257 3.1875 13.1953125 C2.36121094 13.18628906 1.53492187 13.17726563 0.68359375 13.16796875 C0.04550781 13.15636719 -0.59257813 13.14476562 -1.25 13.1328125 C-1.25 14.1228125 -1.25 15.1128125 -1.25 16.1328125 C1.72 16.4628125 4.69 16.7928125 7.75 17.1328125 C8.375 19.5078125 8.375 19.5078125 8.75 22.1328125 C8.09 22.7928125 7.43 23.4528125 6.75 24.1328125 C5.76 23.8028125 4.77 23.4728125 3.75 23.1328125 C3.75 24.7828125 3.75 26.4328125 3.75 28.1328125 C3.42 28.1328125 3.09 28.1328125 2.75 28.1328125 C2.75 24.8328125 2.75 21.5328125 2.75 18.1328125 C1.1 18.1328125 -0.55 18.1328125 -2.25 18.1328125 C-2.58 17.8028125 -2.91 17.4728125 -3.25 17.1328125 C-3.25 15.4828125 -3.25 13.8328125 -3.25 12.1328125 C-6.88 12.1328125 -10.51 12.1328125 -14.25 12.1328125 C-14.25 13.7828125 -14.25 15.4328125 -14.25 17.1328125 C-15.9 17.1328125 -17.55 17.1328125 -19.25 17.1328125 C-19.25 13.5028125 -19.25 9.8728125 -19.25 6.1328125 C-15.62 6.1328125 -11.99 6.1328125 -8.25 6.1328125 C-7.92 7.7828125 -7.59 9.4328125 -7.25 11.1328125 C-5.93 11.1328125 -4.61 11.1328125 -3.25 11.1328125 C-3.26160156 10.42253906 -3.27320313 9.71226563 -3.28515625 8.98046875 C-3.29869141 7.60181641 -3.29869141 7.60181641 -3.3125 6.1953125 C-3.32410156 5.27878906 -3.33570313 4.36226563 -3.34765625 3.41796875 C-3.21658612 0.35092764 -3.0604863 0.18065371 0 0 Z " fill="#9AC4C5" transform="translate(56.25,-0.1328125)"/>
<path d="M0 0 C0 1.65 0 3.3 0 5 C1.65 5 3.3 5 5 5 C5 10.94 5 16.88 5 23 C3.35 23 1.7 23 0 23 C0 24.65 0 26.3 0 28 C-2.45275141 29.2263757 -4.0505781 29.11415314 -6.7890625 29.09765625 C-7.73007813 29.09443359 -8.67109375 29.09121094 -9.640625 29.08789062 C-11.11789063 29.07532227 -11.11789063 29.07532227 -12.625 29.0625 C-13.61757812 29.05798828 -14.61015625 29.05347656 -15.6328125 29.04882812 C-18.0886016 29.03702145 -20.54427104 29.020554 -23 29 C-23.33 28.01 -23.66 27.02 -24 26 C-16.74 26.33 -9.48 26.66 -2 27 C-2 25.35 -2 23.7 -2 22 C-0.02 22 1.96 22 4 22 C4 16.72 4 11.44 4 6 C2.35 6 0.7 6 -1 6 C-1 4.35 -1 2.7 -1 1 C-2.65 1 -4.3 1 -6 1 C-6 4.63 -6 8.26 -6 12 C-9.96 12 -13.92 12 -18 12 C-18 10.35 -18 8.7 -18 7 C-19.32 7 -20.64 7 -22 7 C-22.33 8.65 -22.66 10.3 -23 12 C-24.65 12 -26.3 12 -28 12 C-28 13.65 -28 15.3 -28 17 C-29.98 17 -31.96 17 -34 17 C-34 13.37 -34 9.74 -34 6 C-32.02 6 -30.04 6 -28 6 C-28 6.33 -28 6.66 -28 7 C-29.65 7 -31.3 7 -33 7 C-33 9.97 -33 12.94 -33 16 C-31.68 16 -30.36 16 -29 16 C-29 14.35 -29 12.7 -29 11 C-27.35 10.67 -25.7 10.34 -24 10 C-23.67 8.35 -23.34 6.7 -23 5 C-21.35 5 -19.7 5 -18 5 C-18 3.35 -18 1.7 -18 0 C-17.31292969 0.01160156 -16.62585938 0.02320312 -15.91796875 0.03515625 C-15.01691406 0.04417969 -14.11585937 0.05320312 -13.1875 0.0625 C-11.84751953 0.07990234 -11.84751953 0.07990234 -10.48046875 0.09765625 C-1.11445783 -0.27108434 -1.11445783 -0.27108434 0 0 Z " fill="#73B8B5" transform="translate(87,66)"/>
<path d="M0 0 C0.33 1.32 0.66 2.64 1 4 C3.475 4.495 3.475 4.495 6 5 C6 6.65 6 8.3 6 10 C7.65 10 9.3 10 11 10 C11.495 12.97 11.495 12.97 12 16 C11.34 16 10.68 16 10 16 C10 14.35 10 12.7 10 11 C8.35 11 6.7 11 5 11 C5 9.35 5 7.7 5 6 C3.35 6 1.7 6 0 6 C0 7.65 0 9.3 0 11 C-5.61 11 -11.22 11 -17 11 C-17 9.35 -17 7.7 -17 6 C-18.65 6 -20.3 6 -22 6 C-21.67 10.95 -21.34 15.9 -21 21 C-19.68 21 -18.36 21 -17 21 C-17 22.98 -17 24.96 -17 27 C-17.33 25.68 -17.66 24.36 -18 23 C-19.65 22.67 -21.3 22.34 -23 22 C-23 16.39 -23 10.78 -23 5 C-21.02 5 -19.04 5 -17 5 C-16.67 3.35 -16.34 1.7 -16 0 C-14.08416353 -0.1958009 -12.16727461 -0.38132214 -10.25 -0.5625 C-8.64898438 -0.71912109 -8.64898438 -0.71912109 -7.015625 -0.87890625 C-4.35858796 -0.98560074 -2.50039428 -0.81930395 0 0 Z " fill="#C8ECE4" transform="translate(32,50)"/>
<path d="M0 0 C1.65 0 3.3 0 5 0 C5 3.3 5 6.6 5 10 C3.35 10 1.7 10 0 10 C0 11.65 0 13.3 0 15 C-5.28 15 -10.56 15 -16 15 C-16 13.35 -16 11.7 -16 10 C-17.98 10 -19.96 10 -22 10 C-22 8.35 -22 6.7 -22 5 C-20.02 5 -18.04 5 -16 5 C-15.67 6.32 -15.34 7.64 -15 9 C-11.7 9.33 -8.4 9.66 -5 10 C-5 8.02 -5 6.04 -5 4 C-3.35 4 -1.7 4 0 4 C0 2.68 0 1.36 0 0 Z " fill="#09605F" transform="translate(75,40)"/>
<path d="M0 0 C12.54 0 25.08 0 38 0 C38 1.65 38 3.3 38 5 C25.46 5 12.92 5 0 5 C0 3.35 0 1.7 0 0 Z " fill="#683302" transform="translate(42,175)"/>
<path d="M0 0 C3.96 0 7.92 0 12 0 C12 1.65 12 3.3 12 5 C13.65 5 15.3 5 17 5 C17.98248196 9.05273808 18.16017882 12.83535074 18 17 C17 18 17 18 14.4375 18.0625 C13.633125 18.041875 12.82875 18.02125 12 18 C12 19.65 12 21.3 12 23 C6.06 23 0.12 23 -6 23 C-6 21.35 -6 19.7 -6 18 C-7.32 18 -8.64 18 -10 18 C-10 22.62 -10 27.24 -10 32 C-8.68 32 -7.36 32 -6 32 C-5.67 30.35 -5.34 28.7 -5 27 C-3.33388095 26.957279 -1.66617115 26.95936168 0 27 C1 28 1 28 1.0625 31.0625 C1.041875 32.031875 1.02125 33.00125 1 34 C-0.65 34 -2.3 34 -4 34 C-4 35.65 -4 37.3 -4 39 C-4.33 39 -4.66 39 -5 39 C-5 37.02 -5 35.04 -5 33 C-6.98 33 -8.96 33 -11 33 C-11 27.72 -11 22.44 -11 17 C-9.02 17 -7.04 17 -5 17 C-5 18.65 -5 20.3 -5 22 C0.28 22 5.56 22 11 22 C11 20.35 11 18.7 11 17 C12.65 17 14.3 17 16 17 C16 13.37 16 9.74 16 6 C12.7 6 9.4 6 6 6 C6 4.35 6 2.7 6 1 C4.02 1 2.04 1 0 1 C0 0.67 0 0.34 0 0 Z " fill="#96B9B8" transform="translate(64,33)"/>
<path d="M0 0 C1.19238281 -0.00128906 2.38476562 -0.00257812 3.61328125 -0.00390625 C5.49853516 0.00189453 5.49853516 0.00189453 7.421875 0.0078125 C8.66324219 0.00394531 9.90460937 0.00007813 11.18359375 -0.00390625 C12.97990234 -0.00197266 12.97990234 -0.00197266 14.8125 0 C15.91110352 0.00112793 17.00970703 0.00225586 18.14160156 0.00341797 C20.93369344 0.122642 23.45594658 0.49766621 26.171875 1.1328125 C26.171875 4.4328125 26.171875 7.7328125 26.171875 11.1328125 C24.191875 11.1328125 22.211875 11.1328125 20.171875 11.1328125 C20.171875 8.1628125 20.171875 5.1928125 20.171875 2.1328125 C11.591875 2.1328125 3.011875 2.1328125 -5.828125 2.1328125 C-5.828125 7.0828125 -5.828125 12.0328125 -5.828125 17.1328125 C-4.178125 17.1328125 -2.528125 17.1328125 -0.828125 17.1328125 C-0.828125 22.4128125 -0.828125 27.6928125 -0.828125 33.1328125 C-0.168125 33.4628125 0.491875 33.7928125 1.171875 34.1328125 C0.181875 34.1328125 -0.808125 34.1328125 -1.828125 34.1328125 C-1.828125 28.8528125 -1.828125 23.5728125 -1.828125 18.1328125 C-3.478125 18.1328125 -5.128125 18.1328125 -6.828125 18.1328125 C-7.158125 17.8028125 -7.488125 17.4728125 -7.828125 17.1328125 C-7.76342335 14.45063481 -7.63692385 11.80708574 -7.453125 9.1328125 C-7.40929687 8.38257813 -7.36546875 7.63234375 -7.3203125 6.859375 C-6.8844551 0.15201384 -6.60124751 0.00680541 0 0 Z " fill="#E8C7A2" transform="translate(10.828125,119.8671875)"/>
<path d="M0 0 C3.63 0 7.26 0 11 0 C11 7.59 11 15.18 11 23 C9.35 23 7.7 23 6 23 C6.01160156 23.63808594 6.02320313 24.27617188 6.03515625 24.93359375 C6.04417969 25.75988281 6.05320313 26.58617188 6.0625 27.4375 C6.07410156 28.26121094 6.08570313 29.08492187 6.09765625 29.93359375 C6 32 6 32 5 33 C2.26105915 33.08858646 -0.4525327 33.11523479 -3.19140625 33.09765625 C-4.01124496 33.0962413 -4.83108368 33.09482635 -5.67576599 33.09336853 C-8.30471382 33.08775289 -10.93357773 33.07519779 -13.5625 33.0625 C-15.34049357 33.05748701 -17.11848846 33.05292376 -18.89648438 33.04882812 C-23.26435545 33.03777839 -27.63216348 33.02050331 -32 33 C-32 32.67 -32 32.34 -32 32 C-21.44 32 -10.88 32 0 32 C0 28.7 0 25.4 0 22 C0.495 21.505 0.495 21.505 1 21 C3.97 21 6.94 21 10 21 C10 14.4 10 7.8 10 1 C6.7 1 3.4 1 0 1 C0 0.67 0 0.34 0 0 Z " fill="#D9AB79" transform="translate(37,99)"/>
<path d="M0 0 C3.63 0 7.26 0 11 0 C11.33 1.65 11.66 3.3 12 5 C13.65 5.33 15.3 5.66 17 6 C17 9.3 17 12.6 17 16 C15.02 16 13.04 16 11 16 C11 14.35 11 12.7 11 11 C9.68 11 8.36 11 7 11 C7 9.02 7 7.04 7 5 C4.69 5 2.38 5 0 5 C0 3.35 0 1.7 0 0 Z " fill="#0C6361" transform="translate(42,12)"/>
<path d="M0 0 C0 1.65 0 3.3 0 5 C1.65 5 3.3 5 5 5 C5 10.94 5 16.88 5 23 C3.35 23 1.7 23 0 23 C0 24.65 0 26.3 0 28 C-2.45275141 29.2263757 -4.0505781 29.11415314 -6.7890625 29.09765625 C-7.73007813 29.09443359 -8.67109375 29.09121094 -9.640625 29.08789062 C-11.11789063 29.07532227 -11.11789063 29.07532227 -12.625 29.0625 C-13.61757812 29.05798828 -14.61015625 29.05347656 -15.6328125 29.04882812 C-18.0886016 29.03702145 -20.54427104 29.020554 -23 29 C-23.33 28.01 -23.66 27.02 -24 26 C-16.74 26.33 -9.48 26.66 -2 27 C-2 25.35 -2 23.7 -2 22 C-0.02 22 1.96 22 4 22 C4 16.72 4 11.44 4 6 C2.35 6 0.7 6 -1 6 C-1 4.35 -1 2.7 -1 1 C-2.65 1 -4.3 1 -6 1 C-6 2.65 -6 4.3 -6 6 C-7.98 6 -9.96 6 -12 6 C-12 4.35 -12 2.7 -12 1 C-13.65 1 -15.3 1 -17 1 C-17 2.65 -17 4.3 -17 6 C-18.98 6 -20.96 6 -23 6 C-23 5.67 -23 5.34 -23 5 C-21.35 5 -19.7 5 -18 5 C-18 3.35 -18 1.7 -18 0 C-17.31292969 0.01160156 -16.62585938 0.02320312 -15.91796875 0.03515625 C-15.01691406 0.04417969 -14.11585937 0.05320312 -13.1875 0.0625 C-11.84751953 0.07990234 -11.84751953 0.07990234 -10.48046875 0.09765625 C-1.11445783 -0.27108434 -1.11445783 -0.27108434 0 0 Z " fill="#87B0AE" transform="translate(87,66)"/>
<path d="M0 0 C7.26 0 14.52 0 22 0 C22 1.98 22 3.96 22 6 C14.74 6 7.48 6 0 6 C0 4.02 0 2.04 0 0 Z " fill="#8D4703" transform="translate(64,126)"/>
<path d="M0 0 C1.32 0 2.64 0 4 0 C4 1.65 4 3.3 4 5 C7.96 5 11.92 5 16 5 C16 6.65 16 8.3 16 10 C8.74 10 1.48 10 -6 10 C-6 8.35 -6 6.7 -6 5 C-4.35 4.67 -2.7 4.34 -1 4 C-0.67 2.68 -0.34 1.36 0 0 Z " fill="#248683" transform="translate(65,73)"/>
<path d="M0 0 C0.33 0 0.66 0 1 0 C1 3.3 1 6.6 1 10 C2.98 10 4.96 10 7 10 C7 11.98 7 13.96 7 16 C10.3 16 13.6 16 17 16 C17 19.96 17 23.92 17 28 C15.35 28 13.7 28 12 28 C12 29.32 12 30.64 12 32 C13.65 32 15.3 32 17 32 C17 35.63 17 39.26 17 43 C16.67 43 16.34 43 16 43 C16 39.7 16 36.4 16 33 C14.35 33 12.7 33 11 33 C10.938125 32.38125 10.87625 31.7625 10.8125 31.125 C10.171081 28.72238859 10.171081 28.72238859 7.4375 27.75 C6.633125 27.5025 5.82875 27.255 5 27 C5 25.02 5 23.04 5 21 C7.31 21 9.62 21 12 21 C12.33 22.65 12.66 24.3 13 26 C13.66 26 14.32 26 15 26 C15.495 21.545 15.495 21.545 16 17 C12.37 17 8.74 17 5 17 C5 15.35 5 13.7 5 12 C3.35 11.67 1.7 11.34 0 11 C0 7.37 0 3.74 0 0 Z " fill="#C3BFC6" transform="translate(31,23)"/>
<path d="M0 0 C0.33 0 0.66 0 1 0 C1 2.64 1 5.28 1 8 C2.32 7.67 3.64 7.34 5 7 C5.34778511 26.97832234 5.34778511 26.97832234 2 32 C1.67 31.01 1.34 30.02 1 29 C-1.31 28.67 -3.62 28.34 -6 28 C-6 27.67 -6 27.34 -6 27 C-4.02 27 -2.04 27 0 27 C0 23.37 0 19.74 0 16 C-1.65 16 -3.3 16 -5 16 C-5 14.68 -5 13.36 -5 12 C-3.35 12 -1.7 12 0 12 C0 8.04 0 4.08 0 0 Z " fill="#2F8B88" transform="translate(48,39)"/>
<path d="M0 0 C1.65 0 3.3 0 5 0 C5 1.65 5 3.3 5 5 C6.65 5 8.3 5 10 5 C10 10.28 10 15.56 10 21 C8.35 21 6.7 21 5 21 C5.33 20.34 5.66 19.68 6 19 C6.0689472 17.62657169 6.08467708 16.24997898 6.0625 14.875 C6.041875 13.59625 6.02125 12.3175 6 11 C4.02 11 2.04 11 0 11 C0 7.37 0 3.74 0 0 Z " fill="#0B615F" transform="translate(81,67)"/>
<path d="M0 0 C1.65 0 3.3 0 5 0 C5.33 3.3 5.66 6.6 6 10 C0.39 10 -5.22 10 -11 10 C-11 8.35 -11 6.7 -11 5 C-7.37 5 -3.74 5 0 5 C0 3.35 0 1.7 0 0 Z " fill="#68B8B5" transform="translate(26,51)"/>
<path d="M0 0 C6.6 0 13.2 0 20 0 C20 1.65 20 3.3 20 5 C13.4 5 6.8 5 0 5 C0 3.35 0 1.7 0 0 Z " fill="#065F5C" transform="translate(16,72)"/>
<path d="M0 0 C3.63 0 7.26 0 11 0 C11 1.98 11 3.96 11 6 C9.02 6 7.04 6 5 6 C5 7.65 5 9.3 5 11 C3.35 11 1.7 11 0 11 C0 7.37 0 3.74 0 0 Z " fill="#F96E94" transform="translate(37,6)"/>
<path d="M0 0 C1.32 0 2.64 0 4 0 C4 6.93 4 13.86 4 21 C2.68 21 1.36 21 0 21 C0 14.07 0 7.14 0 0 Z " fill="#914904" transform="translate(16,154)"/>
<path d="M0 0 C1.65 0 3.3 0 5 0 C5 5.28 5 10.56 5 16 C3.35 16 1.7 16 0 16 C0 10.72 0 5.44 0 0 Z " fill="#FDD4AB" transform="translate(32,149)"/>
<path d="M0 0 C0.99 0 1.98 0 3 0 C3 6.93 3 13.86 3 21 C1.68 20.67 0.36 20.34 -1 20 C-1.02703562 17.41659616 -1.04685611 14.83347692 -1.0625 12.25 C-1.07087891 11.52039063 -1.07925781 10.79078125 -1.08789062 10.0390625 C-1.10391684 6.51329442 -0.95292713 3.38965084 0 0 Z " fill="#663002" transform="translate(82,154)"/>
<path d="M0 0 C2.97 0 5.94 0 9 0 C9.9681648 3.8726592 10.07622858 7.03611362 10 11 C8.33388095 11.042721 6.66617115 11.04063832 5 11 C4 10 4 10 3.9375 7.4375 C3.958125 6.633125 3.97875 5.82875 4 5 C2.68 5 1.36 5 0 5 C0 3.35 0 1.7 0 0 Z " fill="#D05176" transform="translate(54,2)"/>
<path d="M0 0 C3.3 0 6.6 0 10 0 C10 1.65 10 3.3 10 5 C8.35 5 6.7 5 5 5 C5 6.65 5 8.3 5 10 C3.35 10 1.7 10 0 10 C0 6.7 0 3.4 0 0 Z " fill="#F20541" transform="translate(32,83)"/>
<path d="M0 0 C1.32 0 2.64 0 4 0 C4 1.65 4 3.3 4 5 C5.98 5 7.96 5 10 5 C10 6.65 10 8.3 10 10 C7.36 10.33 4.72 10.66 2 11 C2 10.34 2 9.68 2 9 C1.34 9 0.68 9 0 9 C0 6.03 0 3.06 0 0 Z " fill="#0C3C3C" transform="translate(49,78)"/>
<path d="M0 0 C0 1.65 0 3.3 0 5 C1.65 5 3.3 5 5 5 C5 5.33 5 5.66 5 6 C3.02 6 1.04 6 -1 6 C-1 4.35 -1 2.7 -1 1 C-2.65 1 -4.3 1 -6 1 C-6 2.65 -6 4.3 -6 6 C-7.98 6 -9.96 6 -12 6 C-12 4.35 -12 2.7 -12 1 C-13.65 1 -15.3 1 -17 1 C-17 2.65 -17 4.3 -17 6 C-18.98 6 -20.96 6 -23 6 C-23 5.67 -23 5.34 -23 5 C-21.35 5 -19.7 5 -18 5 C-18 3.35 -18 1.7 -18 0 C-17.31292969 0.01160156 -16.62585938 0.02320312 -15.91796875 0.03515625 C-15.01691406 0.04417969 -14.11585937 0.05320312 -13.1875 0.0625 C-11.84751953 0.07990234 -11.84751953 0.07990234 -10.48046875 0.09765625 C-1.11445783 -0.27108434 -1.11445783 -0.27108434 0 0 Z " fill="#BFE5E0" transform="translate(87,66)"/>
<path d="M0 0 C0.33 0 0.66 0 1 0 C1 3.3 1 6.6 1 10 C4.63 10 8.26 10 12 10 C12 13.63 12 17.26 12 21 C10.35 21 8.7 21 7 21 C7 19.35 7 17.7 7 16 C3.37 16 -0.26 16 -4 16 C-4 15.67 -4 15.34 -4 15 C0.95 15 5.9 15 11 15 C11 13.68 11 12.36 11 11 C7.37 11 3.74 11 0 11 C0 7.37 0 3.74 0 0 Z " fill="#D2D4D9" transform="translate(36,7)"/>
<path d="M0 0 C1.65 0 3.3 0 5 0 C5 1.65 5 3.3 5 5 C6.65 5 8.3 5 10 5 C10 5.33 10 5.66 10 6 C8.35 6 6.7 6 5 6 C5 7.65 5 9.3 5 11 C3.35 11 1.7 11 0 11 C0 7.37 0 3.74 0 0 Z " fill="#258581" transform="translate(81,67)"/>
<path d="M0 0 C3.63 0 7.26 0 11 0 C11 1.65 11 3.3 11 5 C7.37 5 3.74 5 0 5 C0 3.35 0 1.7 0 0 Z " fill="#995009" transform="translate(21,175)"/>
<path d="M0 0 C0.33 0 0.66 0 1 0 C1 3.3 1 6.6 1 10 C2.98 10 4.96 10 7 10 C7 11.98 7 13.96 7 16 C10.3 16 13.6 16 17 16 C17 19.63 17 23.26 17 27 C16.34 26.67 15.68 26.34 15 26 C15.495 21.545 15.495 21.545 16 17 C12.37 17 8.74 17 5 17 C5 15.35 5 13.7 5 12 C3.35 11.67 1.7 11.34 0 11 C0 7.37 0 3.74 0 0 Z " fill="#AACECE" transform="translate(31,23)"/>
<path d="M0 0 C5.61 0 11.22 0 17 0 C17 0.33 17 0.66 17 1 C11.72 1 6.44 1 1 1 C1.33 5.95 1.66 10.9 2 16 C3.32 16 4.64 16 6 16 C6 17.98 6 19.96 6 22 C5.67 20.68 5.34 19.36 5 18 C3.35 17.67 1.7 17.34 0 17 C0 11.39 0 5.78 0 0 Z " fill="#A3D1CE" transform="translate(9,55)"/>
<path d="M0 0 C3.3 0 6.6 0 10 0 C10 1.65 10 3.3 10 5 C6.7 5 3.4 5 0 5 C0 3.35 0 1.7 0 0 Z " fill="#D78536" transform="translate(32,175)"/>
<path d="M0 0 C1.65 0 3.3 0 5 0 C5 3.3 5 6.6 5 10 C3.35 10 1.7 10 0 10 C0 6.7 0 3.4 0 0 Z " fill="#FDD7B1" transform="translate(32,121)"/>
<path d="M0 0 C0.33 0 0.66 0 1 0 C1 2.97 1 5.94 1 9 C2.98 9 4.96 9 7 9 C7 10.98 7 12.96 7 15 C5.02 15 3.04 15 1 15 C-0.00109515 11.68929162 -0.10356134 8.69915231 -0.0625 5.25 C-0.05347656 4.26515625 -0.04445312 3.2803125 -0.03515625 2.265625 C-0.02355469 1.51796875 -0.01195312 0.7703125 0 0 Z " fill="#28615F" transform="translate(52,57)"/>
<path d="M0 0 C3.96 0 7.92 0 12 0 C12 1.65 12 3.3 12 5 C13.65 5 15.3 5 17 5 C17 5.33 17 5.66 17 6 C13.37 6 9.74 6 6 6 C6 4.35 6 2.7 6 1 C4.02 1 2.04 1 0 1 C0 0.67 0 0.34 0 0 Z " fill="#93CDCA" transform="translate(64,33)"/>
<path d="M0 0 C7.26 0 14.52 0 22 0 C22 0.33 22 0.66 22 1 C16.72 1 11.44 1 6 1 C6 2.32 6 3.64 6 5 C4.02 5 2.04 5 0 5 C0 3.35 0 1.7 0 0 Z " fill="#9F5B18" transform="translate(42,175)"/>
<path d="M0 0 C1.65 0 3.3 0 5 0 C6 1 6 1 6.0625 4.0625 C6.041875 5.031875 6.02125 6.00125 6 7 C4.35 7 2.7 7 1 7 C1 8.65 1 10.3 1 12 C0.67 12 0.34 12 0 12 C0 8.04 0 4.08 0 0 Z " fill="#F299B2" transform="translate(59,60)"/>
<path d="M0 0 C1.32 0 2.64 0 4 0 C4 3.63 4 7.26 4 11 C2.68 11 1.36 11 0 11 C0 7.37 0 3.74 0 0 Z " fill="#6A3203" transform="translate(11,137)"/>
<path d="M0 0 C3.63 0 7.26 0 11 0 C11 1.32 11 2.64 11 4 C7.37 4 3.74 4 0 4 C0 2.68 0 1.36 0 0 Z " fill="#0D403F" transform="translate(37,67)"/>
<path d="M0 0 C0.9075 0.00257812 1.815 0.00515625 2.75 0.0078125 C4.11125 0.00394531 4.11125 0.00394531 5.5 0 C7.75 0.1328125 7.75 0.1328125 8.75 1.1328125 C8.82226502 2.98568752 8.8338122 4.84115128 8.8125 6.6953125 C8.80347656 7.70722656 8.79445313 8.71914062 8.78515625 9.76171875 C8.77355469 10.54417969 8.76195313 11.32664062 8.75 12.1328125 C8.42 12.1328125 8.09 12.1328125 7.75 12.1328125 C7.75 10.1528125 7.75 8.1728125 7.75 6.1328125 C6.76 5.8028125 5.77 5.4728125 4.75 5.1328125 C5.41 5.1328125 6.07 5.1328125 6.75 5.1328125 C6.75 4.1428125 6.75 3.1528125 6.75 2.1328125 C3.78 2.1328125 0.81 2.1328125 -2.25 2.1328125 C-2.25 3.7828125 -2.25 5.4328125 -2.25 7.1328125 C-2.58 7.1328125 -2.91 7.1328125 -3.25 7.1328125 C-3.29254356 5.13326504 -3.29080783 3.13239614 -3.25 1.1328125 C-2.25 0.1328125 -2.25 0.1328125 0 0 Z " fill="#FA9FB9" transform="translate(56.25,-0.1328125)"/>
<path d="M0 0 C3.3 0 6.6 0 10 0 C10 1.32 10 2.64 10 4 C6.7 4 3.4 4 0 4 C0 2.68 0 1.36 0 0 Z " fill="#914603" transform="translate(54,122)"/>
<path d="M0 0 C3.3 0 6.6 0 10 0 C10 1.32 10 2.64 10 4 C6.7 4 3.4 4 0 4 C0 2.68 0 1.36 0 0 Z " fill="#065F5D" transform="translate(38,34)"/>
<path d="M0 0 C0.33 0 0.66 0 1 0 C1 3.3 1 6.6 1 10 C2.32 10 3.64 10 5 10 C5 11.65 5 13.3 5 15 C3.35 15 1.7 15 0 15 C0 10.05 0 5.1 0 0 Z " fill="#884B14" transform="translate(10,138)"/>
<path d="M0 0 C1.65 0 3.3 0 5 0 C5 1.98 5 3.96 5 6 C3.68 6 2.36 6 1 6 C1 7.65 1 9.3 1 11 C0.67 11 0.34 11 0 11 C0 7.37 0 3.74 0 0 Z " fill="#3A7E7E" transform="translate(37,88)"/>
<path d="M0 0 C4.62 0 9.24 0 14 0 C14 0.33 14 0.66 14 1 C10.7 1 7.4 1 4 1 C3.67 1.99 3.34 2.98 3 4 C2.01 4.495 2.01 4.495 1 5 C0.01 6.485 0.01 6.485 -1 8 C-1 7.01 -1 6.02 -1 5 C-1.66 4.67 -2.32 4.34 -3 4 C-2.01 4 -1.02 4 0 4 C0 2.68 0 1.36 0 0 Z " fill="#D58D48" transform="translate(15,149)"/>
<path d="M0 0 C1.98 0 3.96 0 6 0 C6 1.65 6 3.3 6 5 C4.02 5 2.04 5 0 5 C0 3.35 0 1.7 0 0 Z " fill="#134747" transform="translate(53,45)"/>
<path d="M0 0 C1.98 0 3.96 0 6 0 C6 1.65 6 3.3 6 5 C4.02 5 2.04 5 0 5 C0 3.35 0 1.7 0 0 Z " fill="#368181" transform="translate(42,12)"/>
<path d="M0 0 C1.65 0 3.3 0 5 0 C5 1.98 5 3.96 5 6 C3.35 6 1.7 6 0 6 C0 4.02 0 2.04 0 0 Z " fill="#F43469" transform="translate(59,7)"/>
<path d="M0 0 C1.32 0 2.64 0 4 0 C3.67 1.98 3.34 3.96 3 6 C1.68 5.67 0.36 5.34 -1 5 C-1 6.65 -1 8.3 -1 10 C-1.33 10 -1.66 10 -2 10 C-2.25 3.375 -2.25 3.375 0 0 Z " fill="#98CECC" transform="translate(61,18)"/>
<path d="M0 0 C1.98 0 3.96 0 6 0 C6 1.65 6 3.3 6 5 C4.35 5 2.7 5 1 5 C0.67 3.35 0.34 1.7 0 0 Z " fill="#F4356C" transform="translate(42,7)"/>
<path d="M0 0 C3.3 0 6.6 0 10 0 C10 1.65 10 3.3 10 5 C8.35 5 6.7 5 5 5 C5 4.01 5 3.02 5 2 C3.35 1.67 1.7 1.34 0 1 C0 0.67 0 0.34 0 0 Z " fill="#F4104A" transform="translate(32,83)"/>
<path d="M0 0 C2.31 0.33 4.62 0.66 7 1 C7 2.32 7 3.64 7 5 C4.69 4.67 2.38 4.34 0 4 C0 2.68 0 1.36 0 0 Z " fill="#248884" transform="translate(43,51)"/>
<path d="M0 0 C2.97 0.495 2.97 0.495 6 1 C6 4.3 6 7.6 6 11 C5.67 11 5.34 11 5 11 C5 9.02 5 7.04 5 5 C3.68 5 2.36 5 1 5 C0.67 3.35 0.34 1.7 0 0 Z " fill="#2E817F" transform="translate(53,17)"/>
<path d="M0 0 C0.66 0 1.32 0 2 0 C2 4.95 2 9.9 2 15 C1.01 15 0.02 15 -1 15 C-1 13.02 -1 11.04 -1 9 C-0.67 9 -0.34 9 0 9 C0 6.03 0 3.06 0 0 Z " fill="#FEDBB7" transform="translate(34,149)"/>
<path d="M0 0 C1.65 0 3.3 0 5 0 C5.33 1.65 5.66 3.3 6 5 C3 6 3 6 0 5 C0 3.35 0 1.7 0 0 Z " fill="#73C0BC" transform="translate(26,51)"/>
<path d="M0 0 C1.65 0 3.3 0 5 0 C5 1.65 5 3.3 5 5 C3.35 5 1.7 5 0 5 C0 3.35 0 1.7 0 0 Z " fill="#F9346D" transform="translate(37,45)"/>
<path d="M0 0 C1.65 0 3.3 0 5 0 C5 1.65 5 3.3 5 5 C3.35 5 1.7 5 0 5 C0 3.35 0 1.7 0 0 Z " fill="#08615F" transform="translate(48,29)"/>
<path d="M0 0 C1.65 0 3.3 0 5 0 C5 1.65 5 3.3 5 5 C3.35 5 1.7 5 0 5 C0 3.35 0 1.7 0 0 Z " fill="#6DBCBA" transform="translate(43,23)"/>
<path d="M0 0 C0.33 0 0.66 0 1 0 C1 1.65 1 3.3 1 5 C2.65 5 4.3 5 6 5 C6 5.33 6 5.66 6 6 C4.02 6 2.04 6 0 6 C0 7.32 0 8.64 0 10 C-0.99 10 -1.98 10 -3 10 C-2.21302675 6.58978257 -1.12880057 3.31114834 0 0 Z " fill="#338A87" transform="translate(85,67)"/>
<path d="M0 0 C1.98 0 3.96 0 6 0 C6 1.65 6 3.3 6 5 C5.67 4.34 5.34 3.68 5 3 C3.35 3.66 1.7 4.32 0 5 C0 3.35 0 1.7 0 0 Z " fill="#3B9592" transform="translate(64,34)"/>
<path d="M0 0 C1.65 0 3.3 0 5 0 C5 1.32 5 2.64 5 4 C3.35 4 1.7 4 0 4 C0 2.68 0 1.36 0 0 Z " fill="#8D4803" transform="translate(43,176)"/>
<path d="M0 0 C1.32 0 2.64 0 4 0 C4 1.65 4 3.3 4 5 C2.68 5 1.36 5 0 5 C0 3.35 0 1.7 0 0 Z " fill="#0A5E5D" transform="translate(38,94)"/>
<path d="M0 0 C1.65 0 3.3 0 5 0 C5 1.32 5 2.64 5 4 C3.35 4 1.7 4 0 4 C0 2.68 0 1.36 0 0 Z " fill="#065F5D" transform="translate(37,67)"/>
<path d="M0 0 C1.32 0 2.64 0 4 0 C4 1.65 4 3.3 4 5 C2.68 5 1.36 5 0 5 C0 3.35 0 1.7 0 0 Z " fill="#0B3D3D" transform="translate(54,23)"/>
<path d="M0 0 C1.32 0 2.64 0 4 0 C4 1.65 4 3.3 4 5 C2.68 5 1.36 5 0 5 C0 3.35 0 1.7 0 0 Z " fill="#F62A64" transform="translate(38,12)"/>
<path d="M0 0 C1.32 0 2.64 0 4 0 C4 1.65 4 3.3 4 5 C2.68 5 1.36 5 0 5 C0 3.35 0 1.7 0 0 Z " fill="#2C8E89" transform="translate(54,7)"/>
<path d="M0 0 C1.65 0 3.3 0 5 0 C5 1.32 5 2.64 5 4 C3.35 4 1.7 4 0 4 C0 2.68 0 1.36 0 0 Z " fill="#FA2B63" transform="translate(54,2)"/>
<path d="M0 0 C1.32 0 2.64 0 4 0 C4 1.32 4 2.64 4 4 C2.35 4 0.7 4 -1 4 C-0.67 2.68 -0.34 1.36 0 0 Z " fill="#F50C46" transform="translate(60,62)"/>
<path d="M0 0 C2.31 0 4.62 0 7 0 C7 0.99 7 1.98 7 3 C5.35 3 3.7 3 2 3 C2 2.34 2 1.68 2 1 C1.34 0.67 0.68 0.34 0 0 Z " fill="#124443" transform="translate(52,85)"/>
</svg>
